%TF.GenerationSoftware,KiCad,Pcbnew,(6.0.2)*%
%TF.CreationDate,2022-03-08T08:53:01-06:00*%
%TF.ProjectId,FundamentalsRobot,46756e64-616d-4656-9e74-616c73526f62,rev?*%
%TF.SameCoordinates,Original*%
%TF.FileFunction,Legend,Top*%
%TF.FilePolarity,Positive*%
%FSLAX46Y46*%
G04 Gerber Fmt 4.6, Leading zero omitted, Abs format (unit mm)*
G04 Created by KiCad (PCBNEW (6.0.2)) date 2022-03-08 08:53:01*
%MOMM*%
%LPD*%
G01*
G04 APERTURE LIST*
%ADD10C,0.150000*%
%ADD11C,0.120000*%
G04 APERTURE END LIST*
D10*
%TO.C,R13*%
X102037380Y-64987857D02*
X101561190Y-65321190D01*
X102037380Y-65559285D02*
X101037380Y-65559285D01*
X101037380Y-65178333D01*
X101085000Y-65083095D01*
X101132619Y-65035476D01*
X101227857Y-64987857D01*
X101370714Y-64987857D01*
X101465952Y-65035476D01*
X101513571Y-65083095D01*
X101561190Y-65178333D01*
X101561190Y-65559285D01*
X102037380Y-64035476D02*
X102037380Y-64606904D01*
X102037380Y-64321190D02*
X101037380Y-64321190D01*
X101180238Y-64416428D01*
X101275476Y-64511666D01*
X101323095Y-64606904D01*
X101037380Y-63702142D02*
X101037380Y-63083095D01*
X101418333Y-63416428D01*
X101418333Y-63273571D01*
X101465952Y-63178333D01*
X101513571Y-63130714D01*
X101608809Y-63083095D01*
X101846904Y-63083095D01*
X101942142Y-63130714D01*
X101989761Y-63178333D01*
X102037380Y-63273571D01*
X102037380Y-63559285D01*
X101989761Y-63654523D01*
X101942142Y-63702142D01*
%TO.C,U2*%
X149508095Y-86122380D02*
X149508095Y-86931904D01*
X149555714Y-87027142D01*
X149603333Y-87074761D01*
X149698571Y-87122380D01*
X149889047Y-87122380D01*
X149984285Y-87074761D01*
X150031904Y-87027142D01*
X150079523Y-86931904D01*
X150079523Y-86122380D01*
X150508095Y-86217619D02*
X150555714Y-86170000D01*
X150650952Y-86122380D01*
X150889047Y-86122380D01*
X150984285Y-86170000D01*
X151031904Y-86217619D01*
X151079523Y-86312857D01*
X151079523Y-86408095D01*
X151031904Y-86550952D01*
X150460476Y-87122380D01*
X151079523Y-87122380D01*
%TO.C,Q4*%
X125504761Y-122847619D02*
X125409523Y-122800000D01*
X125314285Y-122704761D01*
X125171428Y-122561904D01*
X125076190Y-122514285D01*
X124980952Y-122514285D01*
X125028571Y-122752380D02*
X124933333Y-122704761D01*
X124838095Y-122609523D01*
X124790476Y-122419047D01*
X124790476Y-122085714D01*
X124838095Y-121895238D01*
X124933333Y-121800000D01*
X125028571Y-121752380D01*
X125219047Y-121752380D01*
X125314285Y-121800000D01*
X125409523Y-121895238D01*
X125457142Y-122085714D01*
X125457142Y-122419047D01*
X125409523Y-122609523D01*
X125314285Y-122704761D01*
X125219047Y-122752380D01*
X125028571Y-122752380D01*
X126314285Y-122085714D02*
X126314285Y-122752380D01*
X126076190Y-121704761D02*
X125838095Y-122419047D01*
X126457142Y-122419047D01*
%TO.C,Q12*%
X146488571Y-125612619D02*
X146393333Y-125565000D01*
X146298095Y-125469761D01*
X146155238Y-125326904D01*
X146060000Y-125279285D01*
X145964761Y-125279285D01*
X146012380Y-125517380D02*
X145917142Y-125469761D01*
X145821904Y-125374523D01*
X145774285Y-125184047D01*
X145774285Y-124850714D01*
X145821904Y-124660238D01*
X145917142Y-124565000D01*
X146012380Y-124517380D01*
X146202857Y-124517380D01*
X146298095Y-124565000D01*
X146393333Y-124660238D01*
X146440952Y-124850714D01*
X146440952Y-125184047D01*
X146393333Y-125374523D01*
X146298095Y-125469761D01*
X146202857Y-125517380D01*
X146012380Y-125517380D01*
X147393333Y-125517380D02*
X146821904Y-125517380D01*
X147107619Y-125517380D02*
X147107619Y-124517380D01*
X147012380Y-124660238D01*
X146917142Y-124755476D01*
X146821904Y-124803095D01*
X147774285Y-124612619D02*
X147821904Y-124565000D01*
X147917142Y-124517380D01*
X148155238Y-124517380D01*
X148250476Y-124565000D01*
X148298095Y-124612619D01*
X148345714Y-124707857D01*
X148345714Y-124803095D01*
X148298095Y-124945952D01*
X147726666Y-125517380D01*
X148345714Y-125517380D01*
%TO.C,R17*%
X115304450Y-132564687D02*
X115203435Y-133137106D01*
X115708511Y-132968748D02*
X115001404Y-133675854D01*
X114732030Y-133406480D01*
X114698358Y-133305465D01*
X114698358Y-133238122D01*
X114732030Y-133137106D01*
X114833045Y-133036091D01*
X114934061Y-133002419D01*
X115001404Y-133002419D01*
X115102419Y-133036091D01*
X115371793Y-133305465D01*
X114631015Y-131891251D02*
X115035076Y-132295312D01*
X114833045Y-132093282D02*
X114125938Y-132800389D01*
X114294297Y-132766717D01*
X114428984Y-132766717D01*
X114530000Y-132800389D01*
X113688206Y-132362656D02*
X113216801Y-131891251D01*
X114226954Y-131487190D01*
%TO.C,R4*%
X147252380Y-86266666D02*
X146776190Y-86600000D01*
X147252380Y-86838095D02*
X146252380Y-86838095D01*
X146252380Y-86457142D01*
X146300000Y-86361904D01*
X146347619Y-86314285D01*
X146442857Y-86266666D01*
X146585714Y-86266666D01*
X146680952Y-86314285D01*
X146728571Y-86361904D01*
X146776190Y-86457142D01*
X146776190Y-86838095D01*
X146585714Y-85409523D02*
X147252380Y-85409523D01*
X146204761Y-85647619D02*
X146919047Y-85885714D01*
X146919047Y-85266666D01*
%TO.C,R27*%
X145517142Y-133927380D02*
X145183809Y-133451190D01*
X144945714Y-133927380D02*
X144945714Y-132927380D01*
X145326666Y-132927380D01*
X145421904Y-132975000D01*
X145469523Y-133022619D01*
X145517142Y-133117857D01*
X145517142Y-133260714D01*
X145469523Y-133355952D01*
X145421904Y-133403571D01*
X145326666Y-133451190D01*
X144945714Y-133451190D01*
X145898095Y-133022619D02*
X145945714Y-132975000D01*
X146040952Y-132927380D01*
X146279047Y-132927380D01*
X146374285Y-132975000D01*
X146421904Y-133022619D01*
X146469523Y-133117857D01*
X146469523Y-133213095D01*
X146421904Y-133355952D01*
X145850476Y-133927380D01*
X146469523Y-133927380D01*
X146802857Y-132927380D02*
X147469523Y-132927380D01*
X147040952Y-133927380D01*
%TO.C,U1*%
X124347380Y-77916904D02*
X125156904Y-77916904D01*
X125252142Y-77869285D01*
X125299761Y-77821666D01*
X125347380Y-77726428D01*
X125347380Y-77535952D01*
X125299761Y-77440714D01*
X125252142Y-77393095D01*
X125156904Y-77345476D01*
X124347380Y-77345476D01*
X125347380Y-76345476D02*
X125347380Y-76916904D01*
X125347380Y-76631190D02*
X124347380Y-76631190D01*
X124490238Y-76726428D01*
X124585476Y-76821666D01*
X124633095Y-76916904D01*
%TO.C,C4*%
X135973333Y-111787142D02*
X135925714Y-111834761D01*
X135782857Y-111882380D01*
X135687619Y-111882380D01*
X135544761Y-111834761D01*
X135449523Y-111739523D01*
X135401904Y-111644285D01*
X135354285Y-111453809D01*
X135354285Y-111310952D01*
X135401904Y-111120476D01*
X135449523Y-111025238D01*
X135544761Y-110930000D01*
X135687619Y-110882380D01*
X135782857Y-110882380D01*
X135925714Y-110930000D01*
X135973333Y-110977619D01*
X136830476Y-111215714D02*
X136830476Y-111882380D01*
X136592380Y-110834761D02*
X136354285Y-111549047D01*
X136973333Y-111549047D01*
%TO.C,Q1*%
X100007619Y-115955238D02*
X99960000Y-116050476D01*
X99864761Y-116145714D01*
X99721904Y-116288571D01*
X99674285Y-116383809D01*
X99674285Y-116479047D01*
X99912380Y-116431428D02*
X99864761Y-116526666D01*
X99769523Y-116621904D01*
X99579047Y-116669523D01*
X99245714Y-116669523D01*
X99055238Y-116621904D01*
X98960000Y-116526666D01*
X98912380Y-116431428D01*
X98912380Y-116240952D01*
X98960000Y-116145714D01*
X99055238Y-116050476D01*
X99245714Y-116002857D01*
X99579047Y-116002857D01*
X99769523Y-116050476D01*
X99864761Y-116145714D01*
X99912380Y-116240952D01*
X99912380Y-116431428D01*
X99912380Y-115050476D02*
X99912380Y-115621904D01*
X99912380Y-115336190D02*
X98912380Y-115336190D01*
X99055238Y-115431428D01*
X99150476Y-115526666D01*
X99198095Y-115621904D01*
%TO.C,R10*%
X133977142Y-88927380D02*
X133643809Y-88451190D01*
X133405714Y-88927380D02*
X133405714Y-87927380D01*
X133786666Y-87927380D01*
X133881904Y-87975000D01*
X133929523Y-88022619D01*
X133977142Y-88117857D01*
X133977142Y-88260714D01*
X133929523Y-88355952D01*
X133881904Y-88403571D01*
X133786666Y-88451190D01*
X133405714Y-88451190D01*
X134929523Y-88927380D02*
X134358095Y-88927380D01*
X134643809Y-88927380D02*
X134643809Y-87927380D01*
X134548571Y-88070238D01*
X134453333Y-88165476D01*
X134358095Y-88213095D01*
X135548571Y-87927380D02*
X135643809Y-87927380D01*
X135739047Y-87975000D01*
X135786666Y-88022619D01*
X135834285Y-88117857D01*
X135881904Y-88308333D01*
X135881904Y-88546428D01*
X135834285Y-88736904D01*
X135786666Y-88832142D01*
X135739047Y-88879761D01*
X135643809Y-88927380D01*
X135548571Y-88927380D01*
X135453333Y-88879761D01*
X135405714Y-88832142D01*
X135358095Y-88736904D01*
X135310476Y-88546428D01*
X135310476Y-88308333D01*
X135358095Y-88117857D01*
X135405714Y-88022619D01*
X135453333Y-87975000D01*
X135548571Y-87927380D01*
%TO.C,R24*%
X133402380Y-107137857D02*
X132926190Y-107471190D01*
X133402380Y-107709285D02*
X132402380Y-107709285D01*
X132402380Y-107328333D01*
X132450000Y-107233095D01*
X132497619Y-107185476D01*
X132592857Y-107137857D01*
X132735714Y-107137857D01*
X132830952Y-107185476D01*
X132878571Y-107233095D01*
X132926190Y-107328333D01*
X132926190Y-107709285D01*
X132497619Y-106756904D02*
X132450000Y-106709285D01*
X132402380Y-106614047D01*
X132402380Y-106375952D01*
X132450000Y-106280714D01*
X132497619Y-106233095D01*
X132592857Y-106185476D01*
X132688095Y-106185476D01*
X132830952Y-106233095D01*
X133402380Y-106804523D01*
X133402380Y-106185476D01*
X132735714Y-105328333D02*
X133402380Y-105328333D01*
X132354761Y-105566428D02*
X133069047Y-105804523D01*
X133069047Y-105185476D01*
%TO.C,J5*%
X104906666Y-54252380D02*
X104906666Y-54966666D01*
X104859047Y-55109523D01*
X104763809Y-55204761D01*
X104620952Y-55252380D01*
X104525714Y-55252380D01*
X105859047Y-54252380D02*
X105382857Y-54252380D01*
X105335238Y-54728571D01*
X105382857Y-54680952D01*
X105478095Y-54633333D01*
X105716190Y-54633333D01*
X105811428Y-54680952D01*
X105859047Y-54728571D01*
X105906666Y-54823809D01*
X105906666Y-55061904D01*
X105859047Y-55157142D01*
X105811428Y-55204761D01*
X105716190Y-55252380D01*
X105478095Y-55252380D01*
X105382857Y-55204761D01*
X105335238Y-55157142D01*
%TO.C,J1*%
X158232380Y-100838333D02*
X158946666Y-100838333D01*
X159089523Y-100885952D01*
X159184761Y-100981190D01*
X159232380Y-101124047D01*
X159232380Y-101219285D01*
X159232380Y-99838333D02*
X159232380Y-100409761D01*
X159232380Y-100124047D02*
X158232380Y-100124047D01*
X158375238Y-100219285D01*
X158470476Y-100314523D01*
X158518095Y-100409761D01*
%TO.C,J6*%
X146581666Y-54132380D02*
X146581666Y-54846666D01*
X146534047Y-54989523D01*
X146438809Y-55084761D01*
X146295952Y-55132380D01*
X146200714Y-55132380D01*
X147486428Y-54132380D02*
X147295952Y-54132380D01*
X147200714Y-54180000D01*
X147153095Y-54227619D01*
X147057857Y-54370476D01*
X147010238Y-54560952D01*
X147010238Y-54941904D01*
X147057857Y-55037142D01*
X147105476Y-55084761D01*
X147200714Y-55132380D01*
X147391190Y-55132380D01*
X147486428Y-55084761D01*
X147534047Y-55037142D01*
X147581666Y-54941904D01*
X147581666Y-54703809D01*
X147534047Y-54608571D01*
X147486428Y-54560952D01*
X147391190Y-54513333D01*
X147200714Y-54513333D01*
X147105476Y-54560952D01*
X147057857Y-54608571D01*
X147010238Y-54703809D01*
%TO.C,C2*%
X156807142Y-86506666D02*
X156854761Y-86554285D01*
X156902380Y-86697142D01*
X156902380Y-86792380D01*
X156854761Y-86935238D01*
X156759523Y-87030476D01*
X156664285Y-87078095D01*
X156473809Y-87125714D01*
X156330952Y-87125714D01*
X156140476Y-87078095D01*
X156045238Y-87030476D01*
X155950000Y-86935238D01*
X155902380Y-86792380D01*
X155902380Y-86697142D01*
X155950000Y-86554285D01*
X155997619Y-86506666D01*
X155997619Y-86125714D02*
X155950000Y-86078095D01*
X155902380Y-85982857D01*
X155902380Y-85744761D01*
X155950000Y-85649523D01*
X155997619Y-85601904D01*
X156092857Y-85554285D01*
X156188095Y-85554285D01*
X156330952Y-85601904D01*
X156902380Y-86173333D01*
X156902380Y-85554285D01*
%TO.C,Q10*%
X139428571Y-135647619D02*
X139333333Y-135600000D01*
X139238095Y-135504761D01*
X139095238Y-135361904D01*
X139000000Y-135314285D01*
X138904761Y-135314285D01*
X138952380Y-135552380D02*
X138857142Y-135504761D01*
X138761904Y-135409523D01*
X138714285Y-135219047D01*
X138714285Y-134885714D01*
X138761904Y-134695238D01*
X138857142Y-134600000D01*
X138952380Y-134552380D01*
X139142857Y-134552380D01*
X139238095Y-134600000D01*
X139333333Y-134695238D01*
X139380952Y-134885714D01*
X139380952Y-135219047D01*
X139333333Y-135409523D01*
X139238095Y-135504761D01*
X139142857Y-135552380D01*
X138952380Y-135552380D01*
X140333333Y-135552380D02*
X139761904Y-135552380D01*
X140047619Y-135552380D02*
X140047619Y-134552380D01*
X139952380Y-134695238D01*
X139857142Y-134790476D01*
X139761904Y-134838095D01*
X140952380Y-134552380D02*
X141047619Y-134552380D01*
X141142857Y-134600000D01*
X141190476Y-134647619D01*
X141238095Y-134742857D01*
X141285714Y-134933333D01*
X141285714Y-135171428D01*
X141238095Y-135361904D01*
X141190476Y-135457142D01*
X141142857Y-135504761D01*
X141047619Y-135552380D01*
X140952380Y-135552380D01*
X140857142Y-135504761D01*
X140809523Y-135457142D01*
X140761904Y-135361904D01*
X140714285Y-135171428D01*
X140714285Y-134933333D01*
X140761904Y-134742857D01*
X140809523Y-134647619D01*
X140857142Y-134600000D01*
X140952380Y-134552380D01*
%TO.C,R23*%
X130442380Y-107107857D02*
X129966190Y-107441190D01*
X130442380Y-107679285D02*
X129442380Y-107679285D01*
X129442380Y-107298333D01*
X129490000Y-107203095D01*
X129537619Y-107155476D01*
X129632857Y-107107857D01*
X129775714Y-107107857D01*
X129870952Y-107155476D01*
X129918571Y-107203095D01*
X129966190Y-107298333D01*
X129966190Y-107679285D01*
X129537619Y-106726904D02*
X129490000Y-106679285D01*
X129442380Y-106584047D01*
X129442380Y-106345952D01*
X129490000Y-106250714D01*
X129537619Y-106203095D01*
X129632857Y-106155476D01*
X129728095Y-106155476D01*
X129870952Y-106203095D01*
X130442380Y-106774523D01*
X130442380Y-106155476D01*
X129442380Y-105822142D02*
X129442380Y-105203095D01*
X129823333Y-105536428D01*
X129823333Y-105393571D01*
X129870952Y-105298333D01*
X129918571Y-105250714D01*
X130013809Y-105203095D01*
X130251904Y-105203095D01*
X130347142Y-105250714D01*
X130394761Y-105298333D01*
X130442380Y-105393571D01*
X130442380Y-105679285D01*
X130394761Y-105774523D01*
X130347142Y-105822142D01*
%TO.C,R18*%
X119567142Y-123652380D02*
X119233809Y-123176190D01*
X118995714Y-123652380D02*
X118995714Y-122652380D01*
X119376666Y-122652380D01*
X119471904Y-122700000D01*
X119519523Y-122747619D01*
X119567142Y-122842857D01*
X119567142Y-122985714D01*
X119519523Y-123080952D01*
X119471904Y-123128571D01*
X119376666Y-123176190D01*
X118995714Y-123176190D01*
X120519523Y-123652380D02*
X119948095Y-123652380D01*
X120233809Y-123652380D02*
X120233809Y-122652380D01*
X120138571Y-122795238D01*
X120043333Y-122890476D01*
X119948095Y-122938095D01*
X121090952Y-123080952D02*
X120995714Y-123033333D01*
X120948095Y-122985714D01*
X120900476Y-122890476D01*
X120900476Y-122842857D01*
X120948095Y-122747619D01*
X120995714Y-122700000D01*
X121090952Y-122652380D01*
X121281428Y-122652380D01*
X121376666Y-122700000D01*
X121424285Y-122747619D01*
X121471904Y-122842857D01*
X121471904Y-122890476D01*
X121424285Y-122985714D01*
X121376666Y-123033333D01*
X121281428Y-123080952D01*
X121090952Y-123080952D01*
X120995714Y-123128571D01*
X120948095Y-123176190D01*
X120900476Y-123271428D01*
X120900476Y-123461904D01*
X120948095Y-123557142D01*
X120995714Y-123604761D01*
X121090952Y-123652380D01*
X121281428Y-123652380D01*
X121376666Y-123604761D01*
X121424285Y-123557142D01*
X121471904Y-123461904D01*
X121471904Y-123271428D01*
X121424285Y-123176190D01*
X121376666Y-123128571D01*
X121281428Y-123080952D01*
%TO.C,R26*%
X143652142Y-123737380D02*
X143318809Y-123261190D01*
X143080714Y-123737380D02*
X143080714Y-122737380D01*
X143461666Y-122737380D01*
X143556904Y-122785000D01*
X143604523Y-122832619D01*
X143652142Y-122927857D01*
X143652142Y-123070714D01*
X143604523Y-123165952D01*
X143556904Y-123213571D01*
X143461666Y-123261190D01*
X143080714Y-123261190D01*
X144033095Y-122832619D02*
X144080714Y-122785000D01*
X144175952Y-122737380D01*
X144414047Y-122737380D01*
X144509285Y-122785000D01*
X144556904Y-122832619D01*
X144604523Y-122927857D01*
X144604523Y-123023095D01*
X144556904Y-123165952D01*
X143985476Y-123737380D01*
X144604523Y-123737380D01*
X145461666Y-122737380D02*
X145271190Y-122737380D01*
X145175952Y-122785000D01*
X145128333Y-122832619D01*
X145033095Y-122975476D01*
X144985476Y-123165952D01*
X144985476Y-123546904D01*
X145033095Y-123642142D01*
X145080714Y-123689761D01*
X145175952Y-123737380D01*
X145366428Y-123737380D01*
X145461666Y-123689761D01*
X145509285Y-123642142D01*
X145556904Y-123546904D01*
X145556904Y-123308809D01*
X145509285Y-123213571D01*
X145461666Y-123165952D01*
X145366428Y-123118333D01*
X145175952Y-123118333D01*
X145080714Y-123165952D01*
X145033095Y-123213571D01*
X144985476Y-123308809D01*
%TO.C,R25*%
X143817142Y-135347380D02*
X143483809Y-134871190D01*
X143245714Y-135347380D02*
X143245714Y-134347380D01*
X143626666Y-134347380D01*
X143721904Y-134395000D01*
X143769523Y-134442619D01*
X143817142Y-134537857D01*
X143817142Y-134680714D01*
X143769523Y-134775952D01*
X143721904Y-134823571D01*
X143626666Y-134871190D01*
X143245714Y-134871190D01*
X144198095Y-134442619D02*
X144245714Y-134395000D01*
X144340952Y-134347380D01*
X144579047Y-134347380D01*
X144674285Y-134395000D01*
X144721904Y-134442619D01*
X144769523Y-134537857D01*
X144769523Y-134633095D01*
X144721904Y-134775952D01*
X144150476Y-135347380D01*
X144769523Y-135347380D01*
X145674285Y-134347380D02*
X145198095Y-134347380D01*
X145150476Y-134823571D01*
X145198095Y-134775952D01*
X145293333Y-134728333D01*
X145531428Y-134728333D01*
X145626666Y-134775952D01*
X145674285Y-134823571D01*
X145721904Y-134918809D01*
X145721904Y-135156904D01*
X145674285Y-135252142D01*
X145626666Y-135299761D01*
X145531428Y-135347380D01*
X145293333Y-135347380D01*
X145198095Y-135299761D01*
X145150476Y-135252142D01*
%TO.C,Q5*%
X123704761Y-111447619D02*
X123609523Y-111400000D01*
X123514285Y-111304761D01*
X123371428Y-111161904D01*
X123276190Y-111114285D01*
X123180952Y-111114285D01*
X123228571Y-111352380D02*
X123133333Y-111304761D01*
X123038095Y-111209523D01*
X122990476Y-111019047D01*
X122990476Y-110685714D01*
X123038095Y-110495238D01*
X123133333Y-110400000D01*
X123228571Y-110352380D01*
X123419047Y-110352380D01*
X123514285Y-110400000D01*
X123609523Y-110495238D01*
X123657142Y-110685714D01*
X123657142Y-111019047D01*
X123609523Y-111209523D01*
X123514285Y-111304761D01*
X123419047Y-111352380D01*
X123228571Y-111352380D01*
X124561904Y-110352380D02*
X124085714Y-110352380D01*
X124038095Y-110828571D01*
X124085714Y-110780952D01*
X124180952Y-110733333D01*
X124419047Y-110733333D01*
X124514285Y-110780952D01*
X124561904Y-110828571D01*
X124609523Y-110923809D01*
X124609523Y-111161904D01*
X124561904Y-111257142D01*
X124514285Y-111304761D01*
X124419047Y-111352380D01*
X124180952Y-111352380D01*
X124085714Y-111304761D01*
X124038095Y-111257142D01*
%TO.C,R3*%
X124603333Y-73072380D02*
X124270000Y-72596190D01*
X124031904Y-73072380D02*
X124031904Y-72072380D01*
X124412857Y-72072380D01*
X124508095Y-72120000D01*
X124555714Y-72167619D01*
X124603333Y-72262857D01*
X124603333Y-72405714D01*
X124555714Y-72500952D01*
X124508095Y-72548571D01*
X124412857Y-72596190D01*
X124031904Y-72596190D01*
X124936666Y-72072380D02*
X125555714Y-72072380D01*
X125222380Y-72453333D01*
X125365238Y-72453333D01*
X125460476Y-72500952D01*
X125508095Y-72548571D01*
X125555714Y-72643809D01*
X125555714Y-72881904D01*
X125508095Y-72977142D01*
X125460476Y-73024761D01*
X125365238Y-73072380D01*
X125079523Y-73072380D01*
X124984285Y-73024761D01*
X124936666Y-72977142D01*
%TO.C,C3*%
X102738333Y-59332142D02*
X102690714Y-59379761D01*
X102547857Y-59427380D01*
X102452619Y-59427380D01*
X102309761Y-59379761D01*
X102214523Y-59284523D01*
X102166904Y-59189285D01*
X102119285Y-58998809D01*
X102119285Y-58855952D01*
X102166904Y-58665476D01*
X102214523Y-58570238D01*
X102309761Y-58475000D01*
X102452619Y-58427380D01*
X102547857Y-58427380D01*
X102690714Y-58475000D01*
X102738333Y-58522619D01*
X103071666Y-58427380D02*
X103690714Y-58427380D01*
X103357380Y-58808333D01*
X103500238Y-58808333D01*
X103595476Y-58855952D01*
X103643095Y-58903571D01*
X103690714Y-58998809D01*
X103690714Y-59236904D01*
X103643095Y-59332142D01*
X103595476Y-59379761D01*
X103500238Y-59427380D01*
X103214523Y-59427380D01*
X103119285Y-59379761D01*
X103071666Y-59332142D01*
%TO.C,J8*%
X140662380Y-121068333D02*
X141376666Y-121068333D01*
X141519523Y-121115952D01*
X141614761Y-121211190D01*
X141662380Y-121354047D01*
X141662380Y-121449285D01*
X141090952Y-120449285D02*
X141043333Y-120544523D01*
X140995714Y-120592142D01*
X140900476Y-120639761D01*
X140852857Y-120639761D01*
X140757619Y-120592142D01*
X140710000Y-120544523D01*
X140662380Y-120449285D01*
X140662380Y-120258809D01*
X140710000Y-120163571D01*
X140757619Y-120115952D01*
X140852857Y-120068333D01*
X140900476Y-120068333D01*
X140995714Y-120115952D01*
X141043333Y-120163571D01*
X141090952Y-120258809D01*
X141090952Y-120449285D01*
X141138571Y-120544523D01*
X141186190Y-120592142D01*
X141281428Y-120639761D01*
X141471904Y-120639761D01*
X141567142Y-120592142D01*
X141614761Y-120544523D01*
X141662380Y-120449285D01*
X141662380Y-120258809D01*
X141614761Y-120163571D01*
X141567142Y-120115952D01*
X141471904Y-120068333D01*
X141281428Y-120068333D01*
X141186190Y-120115952D01*
X141138571Y-120163571D01*
X141090952Y-120258809D01*
%TO.C,C1*%
X143333333Y-85547142D02*
X143285714Y-85594761D01*
X143142857Y-85642380D01*
X143047619Y-85642380D01*
X142904761Y-85594761D01*
X142809523Y-85499523D01*
X142761904Y-85404285D01*
X142714285Y-85213809D01*
X142714285Y-85070952D01*
X142761904Y-84880476D01*
X142809523Y-84785238D01*
X142904761Y-84690000D01*
X143047619Y-84642380D01*
X143142857Y-84642380D01*
X143285714Y-84690000D01*
X143333333Y-84737619D01*
X144285714Y-85642380D02*
X143714285Y-85642380D01*
X144000000Y-85642380D02*
X144000000Y-84642380D01*
X143904761Y-84785238D01*
X143809523Y-84880476D01*
X143714285Y-84928095D01*
%TO.C,R14*%
X132077142Y-120487380D02*
X131743809Y-120011190D01*
X131505714Y-120487380D02*
X131505714Y-119487380D01*
X131886666Y-119487380D01*
X131981904Y-119535000D01*
X132029523Y-119582619D01*
X132077142Y-119677857D01*
X132077142Y-119820714D01*
X132029523Y-119915952D01*
X131981904Y-119963571D01*
X131886666Y-120011190D01*
X131505714Y-120011190D01*
X133029523Y-120487380D02*
X132458095Y-120487380D01*
X132743809Y-120487380D02*
X132743809Y-119487380D01*
X132648571Y-119630238D01*
X132553333Y-119725476D01*
X132458095Y-119773095D01*
X133886666Y-119820714D02*
X133886666Y-120487380D01*
X133648571Y-119439761D02*
X133410476Y-120154047D01*
X134029523Y-120154047D01*
%TO.C,C6*%
X138663333Y-111772142D02*
X138615714Y-111819761D01*
X138472857Y-111867380D01*
X138377619Y-111867380D01*
X138234761Y-111819761D01*
X138139523Y-111724523D01*
X138091904Y-111629285D01*
X138044285Y-111438809D01*
X138044285Y-111295952D01*
X138091904Y-111105476D01*
X138139523Y-111010238D01*
X138234761Y-110915000D01*
X138377619Y-110867380D01*
X138472857Y-110867380D01*
X138615714Y-110915000D01*
X138663333Y-110962619D01*
X139520476Y-110867380D02*
X139330000Y-110867380D01*
X139234761Y-110915000D01*
X139187142Y-110962619D01*
X139091904Y-111105476D01*
X139044285Y-111295952D01*
X139044285Y-111676904D01*
X139091904Y-111772142D01*
X139139523Y-111819761D01*
X139234761Y-111867380D01*
X139425238Y-111867380D01*
X139520476Y-111819761D01*
X139568095Y-111772142D01*
X139615714Y-111676904D01*
X139615714Y-111438809D01*
X139568095Y-111343571D01*
X139520476Y-111295952D01*
X139425238Y-111248333D01*
X139234761Y-111248333D01*
X139139523Y-111295952D01*
X139091904Y-111343571D01*
X139044285Y-111438809D01*
%TO.C,R20*%
X120260000Y-127861666D02*
X120026666Y-127528333D01*
X119860000Y-127861666D02*
X119860000Y-127161666D01*
X120126666Y-127161666D01*
X120193333Y-127195000D01*
X120226666Y-127228333D01*
X120260000Y-127295000D01*
X120260000Y-127395000D01*
X120226666Y-127461666D01*
X120193333Y-127495000D01*
X120126666Y-127528333D01*
X119860000Y-127528333D01*
X120526666Y-127228333D02*
X120560000Y-127195000D01*
X120626666Y-127161666D01*
X120793333Y-127161666D01*
X120860000Y-127195000D01*
X120893333Y-127228333D01*
X120926666Y-127295000D01*
X120926666Y-127361666D01*
X120893333Y-127461666D01*
X120493333Y-127861666D01*
X120926666Y-127861666D01*
X121360000Y-127161666D02*
X121426666Y-127161666D01*
X121493333Y-127195000D01*
X121526666Y-127228333D01*
X121560000Y-127295000D01*
X121593333Y-127428333D01*
X121593333Y-127595000D01*
X121560000Y-127728333D01*
X121526666Y-127795000D01*
X121493333Y-127828333D01*
X121426666Y-127861666D01*
X121360000Y-127861666D01*
X121293333Y-127828333D01*
X121260000Y-127795000D01*
X121226666Y-127728333D01*
X121193333Y-127595000D01*
X121193333Y-127428333D01*
X121226666Y-127295000D01*
X121260000Y-127228333D01*
X121293333Y-127195000D01*
X121360000Y-127161666D01*
%TO.C,R6*%
X105182380Y-121576666D02*
X104706190Y-121910000D01*
X105182380Y-122148095D02*
X104182380Y-122148095D01*
X104182380Y-121767142D01*
X104230000Y-121671904D01*
X104277619Y-121624285D01*
X104372857Y-121576666D01*
X104515714Y-121576666D01*
X104610952Y-121624285D01*
X104658571Y-121671904D01*
X104706190Y-121767142D01*
X104706190Y-122148095D01*
X104182380Y-120719523D02*
X104182380Y-120910000D01*
X104230000Y-121005238D01*
X104277619Y-121052857D01*
X104420476Y-121148095D01*
X104610952Y-121195714D01*
X104991904Y-121195714D01*
X105087142Y-121148095D01*
X105134761Y-121100476D01*
X105182380Y-121005238D01*
X105182380Y-120814761D01*
X105134761Y-120719523D01*
X105087142Y-120671904D01*
X104991904Y-120624285D01*
X104753809Y-120624285D01*
X104658571Y-120671904D01*
X104610952Y-120719523D01*
X104563333Y-120814761D01*
X104563333Y-121005238D01*
X104610952Y-121100476D01*
X104658571Y-121148095D01*
X104753809Y-121195714D01*
%TO.C,R16*%
X160077380Y-64432857D02*
X159601190Y-64766190D01*
X160077380Y-65004285D02*
X159077380Y-65004285D01*
X159077380Y-64623333D01*
X159125000Y-64528095D01*
X159172619Y-64480476D01*
X159267857Y-64432857D01*
X159410714Y-64432857D01*
X159505952Y-64480476D01*
X159553571Y-64528095D01*
X159601190Y-64623333D01*
X159601190Y-65004285D01*
X160077380Y-63480476D02*
X160077380Y-64051904D01*
X160077380Y-63766190D02*
X159077380Y-63766190D01*
X159220238Y-63861428D01*
X159315476Y-63956666D01*
X159363095Y-64051904D01*
X159077380Y-62623333D02*
X159077380Y-62813809D01*
X159125000Y-62909047D01*
X159172619Y-62956666D01*
X159315476Y-63051904D01*
X159505952Y-63099523D01*
X159886904Y-63099523D01*
X159982142Y-63051904D01*
X160029761Y-63004285D01*
X160077380Y-62909047D01*
X160077380Y-62718571D01*
X160029761Y-62623333D01*
X159982142Y-62575714D01*
X159886904Y-62528095D01*
X159648809Y-62528095D01*
X159553571Y-62575714D01*
X159505952Y-62623333D01*
X159458333Y-62718571D01*
X159458333Y-62909047D01*
X159505952Y-63004285D01*
X159553571Y-63051904D01*
X159648809Y-63099523D01*
%TO.C,R9*%
X131002380Y-120941666D02*
X130526190Y-121275000D01*
X131002380Y-121513095D02*
X130002380Y-121513095D01*
X130002380Y-121132142D01*
X130050000Y-121036904D01*
X130097619Y-120989285D01*
X130192857Y-120941666D01*
X130335714Y-120941666D01*
X130430952Y-120989285D01*
X130478571Y-121036904D01*
X130526190Y-121132142D01*
X130526190Y-121513095D01*
X131002380Y-120465476D02*
X131002380Y-120275000D01*
X130954761Y-120179761D01*
X130907142Y-120132142D01*
X130764285Y-120036904D01*
X130573809Y-119989285D01*
X130192857Y-119989285D01*
X130097619Y-120036904D01*
X130050000Y-120084523D01*
X130002380Y-120179761D01*
X130002380Y-120370238D01*
X130050000Y-120465476D01*
X130097619Y-120513095D01*
X130192857Y-120560714D01*
X130430952Y-120560714D01*
X130526190Y-120513095D01*
X130573809Y-120465476D01*
X130621428Y-120370238D01*
X130621428Y-120179761D01*
X130573809Y-120084523D01*
X130526190Y-120036904D01*
X130430952Y-119989285D01*
%TO.C,Q6*%
X132694761Y-112007619D02*
X132599523Y-111960000D01*
X132504285Y-111864761D01*
X132361428Y-111721904D01*
X132266190Y-111674285D01*
X132170952Y-111674285D01*
X132218571Y-111912380D02*
X132123333Y-111864761D01*
X132028095Y-111769523D01*
X131980476Y-111579047D01*
X131980476Y-111245714D01*
X132028095Y-111055238D01*
X132123333Y-110960000D01*
X132218571Y-110912380D01*
X132409047Y-110912380D01*
X132504285Y-110960000D01*
X132599523Y-111055238D01*
X132647142Y-111245714D01*
X132647142Y-111579047D01*
X132599523Y-111769523D01*
X132504285Y-111864761D01*
X132409047Y-111912380D01*
X132218571Y-111912380D01*
X133504285Y-110912380D02*
X133313809Y-110912380D01*
X133218571Y-110960000D01*
X133170952Y-111007619D01*
X133075714Y-111150476D01*
X133028095Y-111340952D01*
X133028095Y-111721904D01*
X133075714Y-111817142D01*
X133123333Y-111864761D01*
X133218571Y-111912380D01*
X133409047Y-111912380D01*
X133504285Y-111864761D01*
X133551904Y-111817142D01*
X133599523Y-111721904D01*
X133599523Y-111483809D01*
X133551904Y-111388571D01*
X133504285Y-111340952D01*
X133409047Y-111293333D01*
X133218571Y-111293333D01*
X133123333Y-111340952D01*
X133075714Y-111388571D01*
X133028095Y-111483809D01*
%TO.C,R2*%
X105833333Y-111612380D02*
X105500000Y-111136190D01*
X105261904Y-111612380D02*
X105261904Y-110612380D01*
X105642857Y-110612380D01*
X105738095Y-110660000D01*
X105785714Y-110707619D01*
X105833333Y-110802857D01*
X105833333Y-110945714D01*
X105785714Y-111040952D01*
X105738095Y-111088571D01*
X105642857Y-111136190D01*
X105261904Y-111136190D01*
X106214285Y-110707619D02*
X106261904Y-110660000D01*
X106357142Y-110612380D01*
X106595238Y-110612380D01*
X106690476Y-110660000D01*
X106738095Y-110707619D01*
X106785714Y-110802857D01*
X106785714Y-110898095D01*
X106738095Y-111040952D01*
X106166666Y-111612380D01*
X106785714Y-111612380D01*
%TO.C,J7*%
X132591666Y-54132380D02*
X132591666Y-54846666D01*
X132544047Y-54989523D01*
X132448809Y-55084761D01*
X132305952Y-55132380D01*
X132210714Y-55132380D01*
X132972619Y-54132380D02*
X133639285Y-54132380D01*
X133210714Y-55132380D01*
%TO.C,R7*%
X105773333Y-116582380D02*
X105440000Y-116106190D01*
X105201904Y-116582380D02*
X105201904Y-115582380D01*
X105582857Y-115582380D01*
X105678095Y-115630000D01*
X105725714Y-115677619D01*
X105773333Y-115772857D01*
X105773333Y-115915714D01*
X105725714Y-116010952D01*
X105678095Y-116058571D01*
X105582857Y-116106190D01*
X105201904Y-116106190D01*
X106106666Y-115582380D02*
X106773333Y-115582380D01*
X106344761Y-116582380D01*
%TO.C,R15*%
X144467142Y-72552380D02*
X144133809Y-72076190D01*
X143895714Y-72552380D02*
X143895714Y-71552380D01*
X144276666Y-71552380D01*
X144371904Y-71600000D01*
X144419523Y-71647619D01*
X144467142Y-71742857D01*
X144467142Y-71885714D01*
X144419523Y-71980952D01*
X144371904Y-72028571D01*
X144276666Y-72076190D01*
X143895714Y-72076190D01*
X145419523Y-72552380D02*
X144848095Y-72552380D01*
X145133809Y-72552380D02*
X145133809Y-71552380D01*
X145038571Y-71695238D01*
X144943333Y-71790476D01*
X144848095Y-71838095D01*
X146324285Y-71552380D02*
X145848095Y-71552380D01*
X145800476Y-72028571D01*
X145848095Y-71980952D01*
X145943333Y-71933333D01*
X146181428Y-71933333D01*
X146276666Y-71980952D01*
X146324285Y-72028571D01*
X146371904Y-72123809D01*
X146371904Y-72361904D01*
X146324285Y-72457142D01*
X146276666Y-72504761D01*
X146181428Y-72552380D01*
X145943333Y-72552380D01*
X145848095Y-72504761D01*
X145800476Y-72457142D01*
%TO.C,Q9*%
X126904761Y-135972619D02*
X126809523Y-135925000D01*
X126714285Y-135829761D01*
X126571428Y-135686904D01*
X126476190Y-135639285D01*
X126380952Y-135639285D01*
X126428571Y-135877380D02*
X126333333Y-135829761D01*
X126238095Y-135734523D01*
X126190476Y-135544047D01*
X126190476Y-135210714D01*
X126238095Y-135020238D01*
X126333333Y-134925000D01*
X126428571Y-134877380D01*
X126619047Y-134877380D01*
X126714285Y-134925000D01*
X126809523Y-135020238D01*
X126857142Y-135210714D01*
X126857142Y-135544047D01*
X126809523Y-135734523D01*
X126714285Y-135829761D01*
X126619047Y-135877380D01*
X126428571Y-135877380D01*
X127333333Y-135877380D02*
X127523809Y-135877380D01*
X127619047Y-135829761D01*
X127666666Y-135782142D01*
X127761904Y-135639285D01*
X127809523Y-135448809D01*
X127809523Y-135067857D01*
X127761904Y-134972619D01*
X127714285Y-134925000D01*
X127619047Y-134877380D01*
X127428571Y-134877380D01*
X127333333Y-134925000D01*
X127285714Y-134972619D01*
X127238095Y-135067857D01*
X127238095Y-135305952D01*
X127285714Y-135401190D01*
X127333333Y-135448809D01*
X127428571Y-135496428D01*
X127619047Y-135496428D01*
X127714285Y-135448809D01*
X127761904Y-135401190D01*
X127809523Y-135305952D01*
%TO.C,R1*%
X99927732Y-119402969D02*
X99826717Y-119975389D01*
X100331793Y-119807030D02*
X99624687Y-120514137D01*
X99355312Y-120244763D01*
X99321641Y-120143748D01*
X99321641Y-120076404D01*
X99355312Y-119975389D01*
X99456328Y-119874374D01*
X99557343Y-119840702D01*
X99624687Y-119840702D01*
X99725702Y-119874374D01*
X99995076Y-120143748D01*
X99254297Y-118729534D02*
X99658358Y-119133595D01*
X99456328Y-118931564D02*
X98749221Y-119638671D01*
X98917580Y-119605000D01*
X99052267Y-119605000D01*
X99153282Y-119638671D01*
%TO.C,J3*%
X102476666Y-94712380D02*
X102476666Y-95426666D01*
X102429047Y-95569523D01*
X102333809Y-95664761D01*
X102190952Y-95712380D01*
X102095714Y-95712380D01*
X102857619Y-94712380D02*
X103476666Y-94712380D01*
X103143333Y-95093333D01*
X103286190Y-95093333D01*
X103381428Y-95140952D01*
X103429047Y-95188571D01*
X103476666Y-95283809D01*
X103476666Y-95521904D01*
X103429047Y-95617142D01*
X103381428Y-95664761D01*
X103286190Y-95712380D01*
X103000476Y-95712380D01*
X102905238Y-95664761D01*
X102857619Y-95617142D01*
%TO.C,Q3*%
X109604761Y-122847619D02*
X109509523Y-122800000D01*
X109414285Y-122704761D01*
X109271428Y-122561904D01*
X109176190Y-122514285D01*
X109080952Y-122514285D01*
X109128571Y-122752380D02*
X109033333Y-122704761D01*
X108938095Y-122609523D01*
X108890476Y-122419047D01*
X108890476Y-122085714D01*
X108938095Y-121895238D01*
X109033333Y-121800000D01*
X109128571Y-121752380D01*
X109319047Y-121752380D01*
X109414285Y-121800000D01*
X109509523Y-121895238D01*
X109557142Y-122085714D01*
X109557142Y-122419047D01*
X109509523Y-122609523D01*
X109414285Y-122704761D01*
X109319047Y-122752380D01*
X109128571Y-122752380D01*
X109890476Y-121752380D02*
X110509523Y-121752380D01*
X110176190Y-122133333D01*
X110319047Y-122133333D01*
X110414285Y-122180952D01*
X110461904Y-122228571D01*
X110509523Y-122323809D01*
X110509523Y-122561904D01*
X110461904Y-122657142D01*
X110414285Y-122704761D01*
X110319047Y-122752380D01*
X110033333Y-122752380D01*
X109938095Y-122704761D01*
X109890476Y-122657142D01*
%TO.C,R11*%
X135922380Y-93842857D02*
X135446190Y-94176190D01*
X135922380Y-94414285D02*
X134922380Y-94414285D01*
X134922380Y-94033333D01*
X134970000Y-93938095D01*
X135017619Y-93890476D01*
X135112857Y-93842857D01*
X135255714Y-93842857D01*
X135350952Y-93890476D01*
X135398571Y-93938095D01*
X135446190Y-94033333D01*
X135446190Y-94414285D01*
X135922380Y-92890476D02*
X135922380Y-93461904D01*
X135922380Y-93176190D02*
X134922380Y-93176190D01*
X135065238Y-93271428D01*
X135160476Y-93366666D01*
X135208095Y-93461904D01*
X135922380Y-91938095D02*
X135922380Y-92509523D01*
X135922380Y-92223809D02*
X134922380Y-92223809D01*
X135065238Y-92319047D01*
X135160476Y-92414285D01*
X135208095Y-92509523D01*
%TO.C,R8*%
X128863333Y-115202380D02*
X128530000Y-114726190D01*
X128291904Y-115202380D02*
X128291904Y-114202380D01*
X128672857Y-114202380D01*
X128768095Y-114250000D01*
X128815714Y-114297619D01*
X128863333Y-114392857D01*
X128863333Y-114535714D01*
X128815714Y-114630952D01*
X128768095Y-114678571D01*
X128672857Y-114726190D01*
X128291904Y-114726190D01*
X129434761Y-114630952D02*
X129339523Y-114583333D01*
X129291904Y-114535714D01*
X129244285Y-114440476D01*
X129244285Y-114392857D01*
X129291904Y-114297619D01*
X129339523Y-114250000D01*
X129434761Y-114202380D01*
X129625238Y-114202380D01*
X129720476Y-114250000D01*
X129768095Y-114297619D01*
X129815714Y-114392857D01*
X129815714Y-114440476D01*
X129768095Y-114535714D01*
X129720476Y-114583333D01*
X129625238Y-114630952D01*
X129434761Y-114630952D01*
X129339523Y-114678571D01*
X129291904Y-114726190D01*
X129244285Y-114821428D01*
X129244285Y-115011904D01*
X129291904Y-115107142D01*
X129339523Y-115154761D01*
X129434761Y-115202380D01*
X129625238Y-115202380D01*
X129720476Y-115154761D01*
X129768095Y-115107142D01*
X129815714Y-115011904D01*
X129815714Y-114821428D01*
X129768095Y-114726190D01*
X129720476Y-114678571D01*
X129625238Y-114630952D01*
%TO.C,R5*%
X147152380Y-90476666D02*
X146676190Y-90810000D01*
X147152380Y-91048095D02*
X146152380Y-91048095D01*
X146152380Y-90667142D01*
X146200000Y-90571904D01*
X146247619Y-90524285D01*
X146342857Y-90476666D01*
X146485714Y-90476666D01*
X146580952Y-90524285D01*
X146628571Y-90571904D01*
X146676190Y-90667142D01*
X146676190Y-91048095D01*
X146152380Y-89571904D02*
X146152380Y-90048095D01*
X146628571Y-90095714D01*
X146580952Y-90048095D01*
X146533333Y-89952857D01*
X146533333Y-89714761D01*
X146580952Y-89619523D01*
X146628571Y-89571904D01*
X146723809Y-89524285D01*
X146961904Y-89524285D01*
X147057142Y-89571904D01*
X147104761Y-89619523D01*
X147152380Y-89714761D01*
X147152380Y-89952857D01*
X147104761Y-90048095D01*
X147057142Y-90095714D01*
%TO.C,R21*%
X143330000Y-127961666D02*
X143096666Y-127628333D01*
X142930000Y-127961666D02*
X142930000Y-127261666D01*
X143196666Y-127261666D01*
X143263333Y-127295000D01*
X143296666Y-127328333D01*
X143330000Y-127395000D01*
X143330000Y-127495000D01*
X143296666Y-127561666D01*
X143263333Y-127595000D01*
X143196666Y-127628333D01*
X142930000Y-127628333D01*
X143596666Y-127328333D02*
X143630000Y-127295000D01*
X143696666Y-127261666D01*
X143863333Y-127261666D01*
X143930000Y-127295000D01*
X143963333Y-127328333D01*
X143996666Y-127395000D01*
X143996666Y-127461666D01*
X143963333Y-127561666D01*
X143563333Y-127961666D01*
X143996666Y-127961666D01*
X144663333Y-127961666D02*
X144263333Y-127961666D01*
X144463333Y-127961666D02*
X144463333Y-127261666D01*
X144396666Y-127361666D01*
X144330000Y-127428333D01*
X144263333Y-127461666D01*
%TO.C,Q7*%
X117534761Y-125517619D02*
X117439523Y-125470000D01*
X117344285Y-125374761D01*
X117201428Y-125231904D01*
X117106190Y-125184285D01*
X117010952Y-125184285D01*
X117058571Y-125422380D02*
X116963333Y-125374761D01*
X116868095Y-125279523D01*
X116820476Y-125089047D01*
X116820476Y-124755714D01*
X116868095Y-124565238D01*
X116963333Y-124470000D01*
X117058571Y-124422380D01*
X117249047Y-124422380D01*
X117344285Y-124470000D01*
X117439523Y-124565238D01*
X117487142Y-124755714D01*
X117487142Y-125089047D01*
X117439523Y-125279523D01*
X117344285Y-125374761D01*
X117249047Y-125422380D01*
X117058571Y-125422380D01*
X117820476Y-124422380D02*
X118487142Y-124422380D01*
X118058571Y-125422380D01*
%TO.C,D1*%
X126661904Y-109452380D02*
X126661904Y-108452380D01*
X126900000Y-108452380D01*
X127042857Y-108500000D01*
X127138095Y-108595238D01*
X127185714Y-108690476D01*
X127233333Y-108880952D01*
X127233333Y-109023809D01*
X127185714Y-109214285D01*
X127138095Y-109309523D01*
X127042857Y-109404761D01*
X126900000Y-109452380D01*
X126661904Y-109452380D01*
X128185714Y-109452380D02*
X127614285Y-109452380D01*
X127900000Y-109452380D02*
X127900000Y-108452380D01*
X127804761Y-108595238D01*
X127709523Y-108690476D01*
X127614285Y-108738095D01*
%TO.C,J2*%
X118731666Y-54282380D02*
X118731666Y-54996666D01*
X118684047Y-55139523D01*
X118588809Y-55234761D01*
X118445952Y-55282380D01*
X118350714Y-55282380D01*
X119160238Y-54377619D02*
X119207857Y-54330000D01*
X119303095Y-54282380D01*
X119541190Y-54282380D01*
X119636428Y-54330000D01*
X119684047Y-54377619D01*
X119731666Y-54472857D01*
X119731666Y-54568095D01*
X119684047Y-54710952D01*
X119112619Y-55282380D01*
X119731666Y-55282380D01*
%TO.C,C5*%
X158028333Y-58357142D02*
X157980714Y-58404761D01*
X157837857Y-58452380D01*
X157742619Y-58452380D01*
X157599761Y-58404761D01*
X157504523Y-58309523D01*
X157456904Y-58214285D01*
X157409285Y-58023809D01*
X157409285Y-57880952D01*
X157456904Y-57690476D01*
X157504523Y-57595238D01*
X157599761Y-57500000D01*
X157742619Y-57452380D01*
X157837857Y-57452380D01*
X157980714Y-57500000D01*
X158028333Y-57547619D01*
X158933095Y-57452380D02*
X158456904Y-57452380D01*
X158409285Y-57928571D01*
X158456904Y-57880952D01*
X158552142Y-57833333D01*
X158790238Y-57833333D01*
X158885476Y-57880952D01*
X158933095Y-57928571D01*
X158980714Y-58023809D01*
X158980714Y-58261904D01*
X158933095Y-58357142D01*
X158885476Y-58404761D01*
X158790238Y-58452380D01*
X158552142Y-58452380D01*
X158456904Y-58404761D01*
X158409285Y-58357142D01*
%TO.C,Q11*%
X139328571Y-124447619D02*
X139233333Y-124400000D01*
X139138095Y-124304761D01*
X138995238Y-124161904D01*
X138900000Y-124114285D01*
X138804761Y-124114285D01*
X138852380Y-124352380D02*
X138757142Y-124304761D01*
X138661904Y-124209523D01*
X138614285Y-124019047D01*
X138614285Y-123685714D01*
X138661904Y-123495238D01*
X138757142Y-123400000D01*
X138852380Y-123352380D01*
X139042857Y-123352380D01*
X139138095Y-123400000D01*
X139233333Y-123495238D01*
X139280952Y-123685714D01*
X139280952Y-124019047D01*
X139233333Y-124209523D01*
X139138095Y-124304761D01*
X139042857Y-124352380D01*
X138852380Y-124352380D01*
X140233333Y-124352380D02*
X139661904Y-124352380D01*
X139947619Y-124352380D02*
X139947619Y-123352380D01*
X139852380Y-123495238D01*
X139757142Y-123590476D01*
X139661904Y-123638095D01*
X141185714Y-124352380D02*
X140614285Y-124352380D01*
X140900000Y-124352380D02*
X140900000Y-123352380D01*
X140804761Y-123495238D01*
X140709523Y-123590476D01*
X140614285Y-123638095D01*
%TO.C,Q2*%
X109404761Y-111647619D02*
X109309523Y-111600000D01*
X109214285Y-111504761D01*
X109071428Y-111361904D01*
X108976190Y-111314285D01*
X108880952Y-111314285D01*
X108928571Y-111552380D02*
X108833333Y-111504761D01*
X108738095Y-111409523D01*
X108690476Y-111219047D01*
X108690476Y-110885714D01*
X108738095Y-110695238D01*
X108833333Y-110600000D01*
X108928571Y-110552380D01*
X109119047Y-110552380D01*
X109214285Y-110600000D01*
X109309523Y-110695238D01*
X109357142Y-110885714D01*
X109357142Y-111219047D01*
X109309523Y-111409523D01*
X109214285Y-111504761D01*
X109119047Y-111552380D01*
X108928571Y-111552380D01*
X109738095Y-110647619D02*
X109785714Y-110600000D01*
X109880952Y-110552380D01*
X110119047Y-110552380D01*
X110214285Y-110600000D01*
X110261904Y-110647619D01*
X110309523Y-110742857D01*
X110309523Y-110838095D01*
X110261904Y-110980952D01*
X109690476Y-111552380D01*
X110309523Y-111552380D01*
%TO.C,U3*%
X143642380Y-100616904D02*
X144451904Y-100616904D01*
X144547142Y-100569285D01*
X144594761Y-100521666D01*
X144642380Y-100426428D01*
X144642380Y-100235952D01*
X144594761Y-100140714D01*
X144547142Y-100093095D01*
X144451904Y-100045476D01*
X143642380Y-100045476D01*
X143642380Y-99664523D02*
X143642380Y-99045476D01*
X144023333Y-99378809D01*
X144023333Y-99235952D01*
X144070952Y-99140714D01*
X144118571Y-99093095D01*
X144213809Y-99045476D01*
X144451904Y-99045476D01*
X144547142Y-99093095D01*
X144594761Y-99140714D01*
X144642380Y-99235952D01*
X144642380Y-99521666D01*
X144594761Y-99616904D01*
X144547142Y-99664523D01*
%TO.C,U4*%
X100687380Y-87016904D02*
X101496904Y-87016904D01*
X101592142Y-86969285D01*
X101639761Y-86921666D01*
X101687380Y-86826428D01*
X101687380Y-86635952D01*
X101639761Y-86540714D01*
X101592142Y-86493095D01*
X101496904Y-86445476D01*
X100687380Y-86445476D01*
X101020714Y-85540714D02*
X101687380Y-85540714D01*
X100639761Y-85778809D02*
X101354047Y-86016904D01*
X101354047Y-85397857D01*
%TO.C,R22*%
X127552380Y-107137857D02*
X127076190Y-107471190D01*
X127552380Y-107709285D02*
X126552380Y-107709285D01*
X126552380Y-107328333D01*
X126600000Y-107233095D01*
X126647619Y-107185476D01*
X126742857Y-107137857D01*
X126885714Y-107137857D01*
X126980952Y-107185476D01*
X127028571Y-107233095D01*
X127076190Y-107328333D01*
X127076190Y-107709285D01*
X126647619Y-106756904D02*
X126600000Y-106709285D01*
X126552380Y-106614047D01*
X126552380Y-106375952D01*
X126600000Y-106280714D01*
X126647619Y-106233095D01*
X126742857Y-106185476D01*
X126838095Y-106185476D01*
X126980952Y-106233095D01*
X127552380Y-106804523D01*
X127552380Y-106185476D01*
X126647619Y-105804523D02*
X126600000Y-105756904D01*
X126552380Y-105661666D01*
X126552380Y-105423571D01*
X126600000Y-105328333D01*
X126647619Y-105280714D01*
X126742857Y-105233095D01*
X126838095Y-105233095D01*
X126980952Y-105280714D01*
X127552380Y-105852142D01*
X127552380Y-105233095D01*
%TO.C,Q8*%
X126814761Y-124217619D02*
X126719523Y-124170000D01*
X126624285Y-124074761D01*
X126481428Y-123931904D01*
X126386190Y-123884285D01*
X126290952Y-123884285D01*
X126338571Y-124122380D02*
X126243333Y-124074761D01*
X126148095Y-123979523D01*
X126100476Y-123789047D01*
X126100476Y-123455714D01*
X126148095Y-123265238D01*
X126243333Y-123170000D01*
X126338571Y-123122380D01*
X126529047Y-123122380D01*
X126624285Y-123170000D01*
X126719523Y-123265238D01*
X126767142Y-123455714D01*
X126767142Y-123789047D01*
X126719523Y-123979523D01*
X126624285Y-124074761D01*
X126529047Y-124122380D01*
X126338571Y-124122380D01*
X127338571Y-123550952D02*
X127243333Y-123503333D01*
X127195714Y-123455714D01*
X127148095Y-123360476D01*
X127148095Y-123312857D01*
X127195714Y-123217619D01*
X127243333Y-123170000D01*
X127338571Y-123122380D01*
X127529047Y-123122380D01*
X127624285Y-123170000D01*
X127671904Y-123217619D01*
X127719523Y-123312857D01*
X127719523Y-123360476D01*
X127671904Y-123455714D01*
X127624285Y-123503333D01*
X127529047Y-123550952D01*
X127338571Y-123550952D01*
X127243333Y-123598571D01*
X127195714Y-123646190D01*
X127148095Y-123741428D01*
X127148095Y-123931904D01*
X127195714Y-124027142D01*
X127243333Y-124074761D01*
X127338571Y-124122380D01*
X127529047Y-124122380D01*
X127624285Y-124074761D01*
X127671904Y-124027142D01*
X127719523Y-123931904D01*
X127719523Y-123741428D01*
X127671904Y-123646190D01*
X127624285Y-123598571D01*
X127529047Y-123550952D01*
%TO.C,SW2*%
X128664761Y-91878333D02*
X128712380Y-91735476D01*
X128712380Y-91497380D01*
X128664761Y-91402142D01*
X128617142Y-91354523D01*
X128521904Y-91306904D01*
X128426666Y-91306904D01*
X128331428Y-91354523D01*
X128283809Y-91402142D01*
X128236190Y-91497380D01*
X128188571Y-91687857D01*
X128140952Y-91783095D01*
X128093333Y-91830714D01*
X127998095Y-91878333D01*
X127902857Y-91878333D01*
X127807619Y-91830714D01*
X127760000Y-91783095D01*
X127712380Y-91687857D01*
X127712380Y-91449761D01*
X127760000Y-91306904D01*
X127712380Y-90973571D02*
X128712380Y-90735476D01*
X127998095Y-90545000D01*
X128712380Y-90354523D01*
X127712380Y-90116428D01*
X127807619Y-89783095D02*
X127760000Y-89735476D01*
X127712380Y-89640238D01*
X127712380Y-89402142D01*
X127760000Y-89306904D01*
X127807619Y-89259285D01*
X127902857Y-89211666D01*
X127998095Y-89211666D01*
X128140952Y-89259285D01*
X128712380Y-89830714D01*
X128712380Y-89211666D01*
%TO.C,R19*%
X119562380Y-133547857D02*
X119086190Y-133881190D01*
X119562380Y-134119285D02*
X118562380Y-134119285D01*
X118562380Y-133738333D01*
X118610000Y-133643095D01*
X118657619Y-133595476D01*
X118752857Y-133547857D01*
X118895714Y-133547857D01*
X118990952Y-133595476D01*
X119038571Y-133643095D01*
X119086190Y-133738333D01*
X119086190Y-134119285D01*
X119562380Y-132595476D02*
X119562380Y-133166904D01*
X119562380Y-132881190D02*
X118562380Y-132881190D01*
X118705238Y-132976428D01*
X118800476Y-133071666D01*
X118848095Y-133166904D01*
X119562380Y-132119285D02*
X119562380Y-131928809D01*
X119514761Y-131833571D01*
X119467142Y-131785952D01*
X119324285Y-131690714D01*
X119133809Y-131643095D01*
X118752857Y-131643095D01*
X118657619Y-131690714D01*
X118610000Y-131738333D01*
X118562380Y-131833571D01*
X118562380Y-132024047D01*
X118610000Y-132119285D01*
X118657619Y-132166904D01*
X118752857Y-132214523D01*
X118990952Y-132214523D01*
X119086190Y-132166904D01*
X119133809Y-132119285D01*
X119181428Y-132024047D01*
X119181428Y-131833571D01*
X119133809Y-131738333D01*
X119086190Y-131690714D01*
X118990952Y-131643095D01*
%TO.C,R12*%
X125927142Y-111337380D02*
X125593809Y-110861190D01*
X125355714Y-111337380D02*
X125355714Y-110337380D01*
X125736666Y-110337380D01*
X125831904Y-110385000D01*
X125879523Y-110432619D01*
X125927142Y-110527857D01*
X125927142Y-110670714D01*
X125879523Y-110765952D01*
X125831904Y-110813571D01*
X125736666Y-110861190D01*
X125355714Y-110861190D01*
X126879523Y-111337380D02*
X126308095Y-111337380D01*
X126593809Y-111337380D02*
X126593809Y-110337380D01*
X126498571Y-110480238D01*
X126403333Y-110575476D01*
X126308095Y-110623095D01*
X127260476Y-110432619D02*
X127308095Y-110385000D01*
X127403333Y-110337380D01*
X127641428Y-110337380D01*
X127736666Y-110385000D01*
X127784285Y-110432619D01*
X127831904Y-110527857D01*
X127831904Y-110623095D01*
X127784285Y-110765952D01*
X127212857Y-111337380D01*
X127831904Y-111337380D01*
%TO.C,J4*%
X98332380Y-134953333D02*
X99046666Y-134953333D01*
X99189523Y-135000952D01*
X99284761Y-135096190D01*
X99332380Y-135239047D01*
X99332380Y-135334285D01*
X98665714Y-134048571D02*
X99332380Y-134048571D01*
X98284761Y-134286666D02*
X98999047Y-134524761D01*
X98999047Y-133905714D01*
D11*
%TO.C,R13*%
X103537500Y-64582258D02*
X103537500Y-64107742D01*
X102492500Y-64582258D02*
X102492500Y-64107742D01*
%TO.C,U2*%
X157980000Y-87590000D02*
X157980000Y-92231000D01*
X147740000Y-87590000D02*
X157980000Y-87590000D01*
X147740000Y-89100000D02*
X157980000Y-89100000D01*
X154711000Y-87590000D02*
X154711000Y-89100000D01*
X151010000Y-87590000D02*
X151010000Y-89100000D01*
X147740000Y-87590000D02*
X147740000Y-92231000D01*
X147740000Y-92231000D02*
X157980000Y-92231000D01*
%TO.C,Q4*%
X127980000Y-121490000D02*
X117740000Y-121490000D01*
X127980000Y-121490000D02*
X127980000Y-116849000D01*
X124710000Y-121490000D02*
X124710000Y-119980000D01*
X121009000Y-121490000D02*
X121009000Y-119980000D01*
X117740000Y-121490000D02*
X117740000Y-116849000D01*
X127980000Y-116849000D02*
X117740000Y-116849000D01*
X127980000Y-119980000D02*
X117740000Y-119980000D01*
%TO.C,Q12*%
X149290000Y-130305000D02*
X149290000Y-126705000D01*
X149278478Y-126666522D02*
G75*
G03*
X144840000Y-128505000I-1838478J-1838478D01*
G01*
X144839999Y-128505000D02*
G75*
G03*
X149278478Y-130343478I2600001J0D01*
G01*
%TO.C,R17*%
X114962770Y-131701697D02*
X115298303Y-132037230D01*
X115701697Y-130962770D02*
X116037230Y-131298303D01*
%TO.C,R4*%
X145732500Y-86432742D02*
X145732500Y-86907258D01*
X144687500Y-86432742D02*
X144687500Y-86907258D01*
%TO.C,R27*%
X146417258Y-132567500D02*
X145942742Y-132567500D01*
X146417258Y-131522500D02*
X145942742Y-131522500D01*
%TO.C,SW1*%
X141520000Y-88265000D02*
X141520000Y-90865000D01*
X138860000Y-88265000D02*
X141520000Y-88265000D01*
X138860000Y-90865000D02*
X141520000Y-90865000D01*
X138860000Y-85665000D02*
X140190000Y-85665000D01*
X138860000Y-88265000D02*
X138860000Y-90865000D01*
X138860000Y-86995000D02*
X138860000Y-85665000D01*
%TO.C,U1*%
X143795000Y-79805000D02*
X143795000Y-74505000D01*
X125895000Y-74505000D02*
X125895000Y-76155000D01*
X125895000Y-79805000D02*
X143795000Y-79805000D01*
X143795000Y-74505000D02*
X125895000Y-74505000D01*
X125895000Y-78155000D02*
X125895000Y-79805000D01*
X125895000Y-78155000D02*
G75*
G03*
X125895000Y-76155000I0J1000000D01*
G01*
%TO.C,C4*%
X135380000Y-113908748D02*
X135380000Y-115331252D01*
X137200000Y-113908748D02*
X137200000Y-115331252D01*
%TO.C,Q1*%
X104870000Y-117660000D02*
X104870000Y-114060000D01*
X100419999Y-115860000D02*
G75*
G03*
X104858478Y-117698478I2600001J0D01*
G01*
X104858478Y-114021522D02*
G75*
G03*
X100420000Y-115860000I-1838478J-1838478D01*
G01*
%TO.C,R10*%
X134967258Y-90447500D02*
X134492742Y-90447500D01*
X134967258Y-89402500D02*
X134492742Y-89402500D01*
%TO.C,R24*%
X134902500Y-106732258D02*
X134902500Y-106257742D01*
X133857500Y-106732258D02*
X133857500Y-106257742D01*
%TO.C,J5*%
X115360000Y-65440000D02*
X114860000Y-65690000D01*
X104510000Y-68090000D02*
X114860000Y-68090000D01*
X115360000Y-60590000D02*
X115360000Y-55490000D01*
X114860000Y-65690000D02*
X114860000Y-60290000D01*
X114860000Y-67140000D02*
X115360000Y-67390000D01*
X104510000Y-55490000D02*
X104510000Y-68090000D01*
X115360000Y-55490000D02*
X104510000Y-55490000D01*
X114860000Y-68090000D02*
X114860000Y-67140000D01*
X115360000Y-67390000D02*
X115360000Y-65490000D01*
X114860000Y-60290000D02*
X115360000Y-60590000D01*
X115360000Y-65490000D02*
X115360000Y-65440000D01*
%TO.C,J1*%
X148030000Y-108755000D02*
X147780000Y-108255000D01*
X152930000Y-108755000D02*
X157980000Y-108755000D01*
X153180000Y-108255000D02*
X152930000Y-108755000D01*
X147780000Y-108255000D02*
X153180000Y-108255000D01*
X157980000Y-92855000D02*
X145380000Y-92855000D01*
X157980000Y-108755000D02*
X157980000Y-92855000D01*
X146330000Y-108255000D02*
X146030000Y-108755000D01*
X145380000Y-92855000D02*
X145380000Y-108255000D01*
X145380000Y-108255000D02*
X146330000Y-108255000D01*
X146030000Y-108755000D02*
X148030000Y-108755000D01*
%TO.C,J6*%
X146185000Y-55370000D02*
X146185000Y-67970000D01*
X156535000Y-60170000D02*
X157035000Y-60470000D01*
X156535000Y-65570000D02*
X156535000Y-60170000D01*
X157035000Y-65370000D02*
X157035000Y-65320000D01*
X157035000Y-55370000D02*
X146185000Y-55370000D01*
X156535000Y-67020000D02*
X157035000Y-67270000D01*
X157035000Y-65320000D02*
X156535000Y-65570000D01*
X157035000Y-67270000D02*
X157035000Y-65370000D01*
X146185000Y-67970000D02*
X156535000Y-67970000D01*
X157035000Y-60470000D02*
X157035000Y-55370000D01*
X156535000Y-67970000D02*
X156535000Y-67020000D01*
%TO.C,C2*%
X154390580Y-86940000D02*
X154109420Y-86940000D01*
X154390580Y-85920000D02*
X154109420Y-85920000D01*
%TO.C,Q10*%
X142640000Y-132830000D02*
X132400000Y-132830000D01*
X132400000Y-134340000D02*
X132400000Y-129699000D01*
X142640000Y-129699000D02*
X132400000Y-129699000D01*
X139370000Y-134340000D02*
X139370000Y-132830000D01*
X142640000Y-134340000D02*
X142640000Y-129699000D01*
X135669000Y-134340000D02*
X135669000Y-132830000D01*
X142640000Y-134340000D02*
X132400000Y-134340000D01*
%TO.C,R23*%
X131942500Y-106702258D02*
X131942500Y-106227742D01*
X130897500Y-106702258D02*
X130897500Y-106227742D01*
%TO.C,R18*%
X121242500Y-125647258D02*
X121242500Y-125172742D01*
X120197500Y-125647258D02*
X120197500Y-125172742D01*
%TO.C,R26*%
X143187500Y-125812258D02*
X143187500Y-125337742D01*
X144232500Y-125812258D02*
X144232500Y-125337742D01*
%TO.C,R25*%
X143147500Y-132487742D02*
X143147500Y-132962258D01*
X144192500Y-132487742D02*
X144192500Y-132962258D01*
%TO.C,Q5*%
X127960000Y-114965000D02*
X117720000Y-114965000D01*
X127960000Y-116475000D02*
X127960000Y-111834000D01*
X124690000Y-116475000D02*
X124690000Y-114965000D01*
X127960000Y-111834000D02*
X117720000Y-111834000D01*
X120989000Y-116475000D02*
X120989000Y-114965000D01*
X117720000Y-116475000D02*
X117720000Y-111834000D01*
X127960000Y-116475000D02*
X117720000Y-116475000D01*
%TO.C,R3*%
X125447258Y-70667500D02*
X124972742Y-70667500D01*
X125447258Y-71712500D02*
X124972742Y-71712500D01*
%TO.C,C3*%
X102510000Y-61124420D02*
X102510000Y-61405580D01*
X103530000Y-61124420D02*
X103530000Y-61405580D01*
%TO.C,J8*%
X151900000Y-110615000D02*
X151850000Y-110615000D01*
X153550000Y-111115000D02*
X153800000Y-110615000D01*
X146700000Y-111115000D02*
X147000000Y-110615000D01*
X141900000Y-121465000D02*
X154500000Y-121465000D01*
X151850000Y-110615000D02*
X152100000Y-111115000D01*
X141900000Y-110615000D02*
X141900000Y-121465000D01*
X154500000Y-121465000D02*
X154500000Y-111115000D01*
X154500000Y-111115000D02*
X153550000Y-111115000D01*
X152100000Y-111115000D02*
X146700000Y-111115000D01*
X147000000Y-110615000D02*
X141900000Y-110615000D01*
X153800000Y-110615000D02*
X151900000Y-110615000D01*
%TO.C,C1*%
X144150000Y-87510580D02*
X144150000Y-87229420D01*
X143130000Y-87510580D02*
X143130000Y-87229420D01*
%TO.C,R14*%
X131787258Y-119167500D02*
X131312742Y-119167500D01*
X131787258Y-118122500D02*
X131312742Y-118122500D01*
%TO.C,C6*%
X137890000Y-113913748D02*
X137890000Y-115336252D01*
X139710000Y-113913748D02*
X139710000Y-115336252D01*
%TO.C,R20*%
X121112500Y-129902258D02*
X121112500Y-129427742D01*
X120067500Y-129902258D02*
X120067500Y-129427742D01*
%TO.C,R6*%
X106582500Y-121182742D02*
X106582500Y-121657258D01*
X105537500Y-121182742D02*
X105537500Y-121657258D01*
%TO.C,R16*%
X157672500Y-63552742D02*
X157672500Y-64027258D01*
X158717500Y-63552742D02*
X158717500Y-64027258D01*
%TO.C,R9*%
X129622500Y-119862742D02*
X129622500Y-120337258D01*
X128577500Y-119862742D02*
X128577500Y-120337258D01*
%TO.C,Q6*%
X134620000Y-116775000D02*
X134620000Y-113175000D01*
X134608478Y-113136522D02*
G75*
G03*
X130170000Y-114975000I-1838478J-1838478D01*
G01*
X130169999Y-114975000D02*
G75*
G03*
X134608478Y-116813478I2600001J0D01*
G01*
%TO.C,R2*%
X106582500Y-113737258D02*
X106582500Y-113262742D01*
X105537500Y-113737258D02*
X105537500Y-113262742D01*
%TO.C,J7*%
X143045000Y-65320000D02*
X142545000Y-65570000D01*
X143045000Y-55370000D02*
X132195000Y-55370000D01*
X132195000Y-67970000D02*
X142545000Y-67970000D01*
X132195000Y-55370000D02*
X132195000Y-67970000D01*
X142545000Y-67970000D02*
X142545000Y-67020000D01*
X142545000Y-60170000D02*
X143045000Y-60470000D01*
X142545000Y-65570000D02*
X142545000Y-60170000D01*
X143045000Y-65370000D02*
X143045000Y-65320000D01*
X143045000Y-67270000D02*
X143045000Y-65370000D01*
X142545000Y-67020000D02*
X143045000Y-67270000D01*
X143045000Y-60470000D02*
X143045000Y-55370000D01*
%TO.C,R7*%
X106582500Y-118637258D02*
X106582500Y-118162742D01*
X105537500Y-118637258D02*
X105537500Y-118162742D01*
%TO.C,R15*%
X144902500Y-70237258D02*
X144902500Y-69762742D01*
X143857500Y-70237258D02*
X143857500Y-69762742D01*
%TO.C,Q9*%
X121790000Y-129680000D02*
X121790000Y-134321000D01*
X132030000Y-129680000D02*
X132030000Y-134321000D01*
X125060000Y-129680000D02*
X125060000Y-131190000D01*
X121790000Y-134321000D02*
X132030000Y-134321000D01*
X121790000Y-131190000D02*
X132030000Y-131190000D01*
X121790000Y-129680000D02*
X132030000Y-129680000D01*
X128761000Y-129680000D02*
X128761000Y-131190000D01*
%TO.C,R1*%
X100681697Y-118087770D02*
X101017230Y-118423303D01*
X99942770Y-118826697D02*
X100278303Y-119162230D01*
%TO.C,J3*%
X101480000Y-98860000D02*
X101480000Y-109080000D01*
X101480000Y-98860000D02*
X104140000Y-98860000D01*
X104140000Y-98860000D02*
X104140000Y-109080000D01*
X101480000Y-109080000D02*
X104140000Y-109080000D01*
X101480000Y-97590000D02*
X101480000Y-96260000D01*
X101480000Y-96260000D02*
X102810000Y-96260000D01*
%TO.C,Q3*%
X114101000Y-116850000D02*
X114101000Y-118360000D01*
X107130000Y-121491000D02*
X117370000Y-121491000D01*
X117370000Y-116850000D02*
X117370000Y-121491000D01*
X107130000Y-116850000D02*
X117370000Y-116850000D01*
X107130000Y-118360000D02*
X117370000Y-118360000D01*
X110400000Y-116850000D02*
X110400000Y-118360000D01*
X107130000Y-116850000D02*
X107130000Y-121491000D01*
%TO.C,R11*%
X133517500Y-92037742D02*
X133517500Y-92512258D01*
X134562500Y-92037742D02*
X134562500Y-92512258D01*
%TO.C,R8*%
X128597500Y-117267258D02*
X128597500Y-116792742D01*
X129642500Y-117267258D02*
X129642500Y-116792742D01*
%TO.C,R5*%
X145732500Y-89492742D02*
X145732500Y-89967258D01*
X144687500Y-89492742D02*
X144687500Y-89967258D01*
%TO.C,R21*%
X143157500Y-129882258D02*
X143157500Y-129407742D01*
X144202500Y-129882258D02*
X144202500Y-129407742D01*
%TO.C,Q7*%
X119580000Y-130370000D02*
X119580000Y-126770000D01*
X115129999Y-128570000D02*
G75*
G03*
X119568478Y-130408478I2600001J0D01*
G01*
X119568478Y-126731522D02*
G75*
G03*
X115130000Y-128570000I-1838478J-1838478D01*
G01*
%TO.C,J2*%
X128685000Y-65720000D02*
X128685000Y-60320000D01*
X118335000Y-68120000D02*
X128685000Y-68120000D01*
X129185000Y-65470000D02*
X128685000Y-65720000D01*
X129185000Y-67420000D02*
X129185000Y-65520000D01*
X128685000Y-68120000D02*
X128685000Y-67170000D01*
X118335000Y-55520000D02*
X118335000Y-68120000D01*
X129185000Y-55520000D02*
X118335000Y-55520000D01*
X128685000Y-60320000D02*
X129185000Y-60620000D01*
X128685000Y-67170000D02*
X129185000Y-67420000D01*
X129185000Y-60620000D02*
X129185000Y-55520000D01*
X129185000Y-65520000D02*
X129185000Y-65470000D01*
%TO.C,C5*%
X158705000Y-60399420D02*
X158705000Y-60680580D01*
X157685000Y-60399420D02*
X157685000Y-60680580D01*
%TO.C,Q11*%
X132390000Y-129310000D02*
X132390000Y-124669000D01*
X142630000Y-129310000D02*
X132390000Y-129310000D01*
X139360000Y-129310000D02*
X139360000Y-127800000D01*
X142630000Y-129310000D02*
X142630000Y-124669000D01*
X135659000Y-129310000D02*
X135659000Y-127800000D01*
X142630000Y-124669000D02*
X132390000Y-124669000D01*
X142630000Y-127800000D02*
X132390000Y-127800000D01*
%TO.C,Q2*%
X107120000Y-113335000D02*
X117360000Y-113335000D01*
X114091000Y-111825000D02*
X114091000Y-113335000D01*
X110390000Y-111825000D02*
X110390000Y-113335000D01*
X117360000Y-111825000D02*
X117360000Y-116466000D01*
X107120000Y-111825000D02*
X107120000Y-116466000D01*
X107120000Y-116466000D02*
X117360000Y-116466000D01*
X107120000Y-111825000D02*
X117360000Y-111825000D01*
%TO.C,U3*%
X143190000Y-97205000D02*
X107510000Y-97205000D01*
X143190000Y-102505000D02*
X143190000Y-100855000D01*
X107510000Y-102505000D02*
X143190000Y-102505000D01*
X107510000Y-97205000D02*
X107510000Y-102505000D01*
X143190000Y-98855000D02*
X143190000Y-97205000D01*
X143190000Y-98855000D02*
G75*
G03*
X143190000Y-100855000I0J-1000000D01*
G01*
%TO.C,U4*%
X120135000Y-83605000D02*
X102235000Y-83605000D01*
X102235000Y-88905000D02*
X120135000Y-88905000D01*
X102235000Y-83605000D02*
X102235000Y-85255000D01*
X102235000Y-87255000D02*
X102235000Y-88905000D01*
X120135000Y-88905000D02*
X120135000Y-83605000D01*
X102235000Y-87255000D02*
G75*
G03*
X102235000Y-85255000I0J1000000D01*
G01*
%TO.C,R22*%
X128007500Y-106732258D02*
X128007500Y-106257742D01*
X129052500Y-106732258D02*
X129052500Y-106257742D01*
%TO.C,Q8*%
X121790000Y-126180000D02*
X132030000Y-126180000D01*
X125060000Y-124670000D02*
X125060000Y-126180000D01*
X121790000Y-124670000D02*
X121790000Y-129311000D01*
X121790000Y-124670000D02*
X132030000Y-124670000D01*
X121790000Y-129311000D02*
X132030000Y-129311000D01*
X128761000Y-124670000D02*
X128761000Y-126180000D01*
X132030000Y-124670000D02*
X132030000Y-129311000D01*
%TO.C,SW2*%
X121785000Y-90990000D02*
X122985000Y-90990000D01*
X121785000Y-90990000D02*
X121785000Y-92631000D01*
X122985000Y-94230000D02*
X132885000Y-94230000D01*
X121785000Y-90090000D02*
X122985000Y-90090000D01*
X122745000Y-86610000D02*
X124129000Y-86610000D01*
X122985000Y-86850000D02*
X132885000Y-86850000D01*
X121785000Y-88450000D02*
X121785000Y-90090000D01*
X121785000Y-92631000D02*
X122985000Y-92631000D01*
X122985000Y-88450000D02*
X122985000Y-90090000D01*
X121785000Y-88450000D02*
X122985000Y-88450000D01*
X122985000Y-90990000D02*
X122985000Y-92631000D01*
X132885000Y-86850000D02*
X132885000Y-94230000D01*
X122985000Y-86850000D02*
X122985000Y-94230000D01*
X122745000Y-86610000D02*
X122745000Y-87993000D01*
%TO.C,R19*%
X121182500Y-132497742D02*
X121182500Y-132972258D01*
X120137500Y-132497742D02*
X120137500Y-132972258D01*
%TO.C,R12*%
X128497500Y-112567258D02*
X128497500Y-112092742D01*
X129542500Y-112567258D02*
X129542500Y-112092742D01*
%TO.C,J4*%
X99570000Y-124500000D02*
X99570000Y-135350000D01*
X112170000Y-125000000D02*
X111220000Y-125000000D01*
X112170000Y-135350000D02*
X112170000Y-125000000D01*
X104670000Y-124500000D02*
X99570000Y-124500000D01*
X109520000Y-124500000D02*
X109770000Y-125000000D01*
X104370000Y-125000000D02*
X104670000Y-124500000D01*
X109570000Y-124500000D02*
X109520000Y-124500000D01*
X109770000Y-125000000D02*
X104370000Y-125000000D01*
X111220000Y-125000000D02*
X111470000Y-124500000D01*
X111470000Y-124500000D02*
X109570000Y-124500000D01*
X99570000Y-135350000D02*
X112170000Y-135350000D01*
%TD*%
M02*
