M48
; DRILL file {KiCad (6.0.2)} date Tue 08 Mar 2022 08:53:06 AM CST
; FORMAT={-:-/ absolute / inch / decimal}
; #@! TF.CreationDate,2022-03-08T08:53:06-06:00
; #@! TF.GenerationSoftware,Kicad,Pcbnew,(6.0.2)
; #@! TF.FileFunction,Plated,1,4,PTH
FMAT,2
INCH
; #@! TA.AperFunction,Plated,PTH,ViaDrill
T1C0.0079
; #@! TA.AperFunction,Plated,PTH,ComponentDrill
T2C0.0197
; #@! TA.AperFunction,Plated,PTH,ViaDrill
T3C0.0217
; #@! TA.AperFunction,Plated,PTH,ComponentDrill
T4C0.0295
; #@! TA.AperFunction,Plated,PTH,ComponentDrill
T5C0.0315
; #@! TA.AperFunction,Plated,PTH,ComponentDrill
T6C0.0394
; #@! TA.AperFunction,Plated,PTH,ComponentDrill
T7C0.0433
; #@! TA.AperFunction,Plated,PTH,ComponentDrill
T8C0.0520
%
G90
G05
T1
X3.8583Y-2.2047
X3.8583Y-2.2835
X3.8583Y-2.3622
X3.8583Y-2.4409
X3.8583Y-2.5197
X3.8583Y-2.5984
X3.8583Y-2.6772
X3.8583Y-2.7559
X3.8583Y-2.8346
X3.8583Y-2.9134
X3.8583Y-2.9921
X3.8583Y-3.0709
X3.8583Y-3.1496
X3.8583Y-3.2283
X3.8583Y-3.3071
X3.8583Y-3.3858
X3.8583Y-3.4646
X3.8583Y-3.5433
X3.8583Y-3.622
X3.8583Y-3.7008
X3.8583Y-3.7795
X3.8583Y-3.8583
X3.8583Y-3.937
X3.8583Y-4.0157
X3.8583Y-4.0945
X3.8583Y-4.1732
X3.8583Y-4.252
X3.8583Y-4.3307
X3.8583Y-4.4094
X3.8583Y-4.4882
X3.8583Y-4.5669
X3.8583Y-4.6457
X3.8583Y-4.7244
X3.8583Y-4.8031
X3.8583Y-4.8819
X3.8583Y-4.9606
X3.8583Y-5.0394
X3.8583Y-5.1181
X3.8583Y-5.1969
X3.8583Y-5.2756
X3.8583Y-5.3543
X3.8583Y-5.4331
X3.937Y-2.2047
X3.937Y-2.2835
X3.937Y-2.3622
X3.937Y-2.4409
X3.937Y-2.5197
X3.937Y-2.5984
X3.937Y-2.6772
X3.937Y-2.7559
X3.937Y-2.8346
X3.937Y-2.9134
X3.937Y-2.9921
X3.937Y-3.0709
X3.937Y-3.1496
X3.937Y-3.2283
X3.937Y-3.3071
X3.937Y-3.3858
X3.937Y-3.4646
X3.937Y-3.5433
X3.937Y-3.622
X3.937Y-3.7008
X3.937Y-3.7795
X3.937Y-3.8583
X3.937Y-3.937
X3.937Y-4.0157
X3.937Y-4.0945
X3.937Y-4.1732
X3.937Y-4.252
X3.937Y-4.3307
X3.937Y-4.4094
X3.937Y-4.4882
X3.937Y-4.8031
X3.937Y-4.8819
X3.937Y-4.9606
X3.937Y-5.0394
X3.937Y-5.1181
X3.937Y-5.1969
X3.937Y-5.2756
X3.937Y-5.3543
X3.937Y-5.4331
X4.0055Y-4.9602
X4.0055Y-5.039
X4.0055Y-5.1177
X4.0055Y-5.1965
X4.0055Y-5.2752
X4.0157Y-2.2047
X4.0157Y-2.2835
X4.0157Y-5.3543
X4.0157Y-5.4331
X4.0173Y-4.8024
X4.0173Y-4.8811
X4.0256Y-4.3358
X4.0256Y-4.4193
X4.0492Y-4.687
X4.0492Y-4.7657
X4.0551Y-2.6378
X4.0551Y-2.7559
X4.0551Y-2.8346
X4.0551Y-2.913
X4.0551Y-2.9917
X4.0551Y-3.0736
X4.0618Y-5.289
X4.076Y-3.6075
X4.078Y-4.8114
X4.0937Y-4.7268
X4.0945Y-2.2047
X4.0945Y-2.2835
X4.0945Y-5.3543
X4.0945Y-5.4331
X4.0961Y-4.8811
X4.1142Y-4.3406
X4.1142Y-4.4193
X4.1252Y-3.6425
X4.128Y-4.687
X4.1291Y-5.2953
X4.1339Y-2.7559
X4.1339Y-2.8346
X4.1339Y-2.913
X4.1339Y-2.9917
X4.1402Y-2.2469
X4.1406Y-2.4807
X4.1406Y-2.5449
X4.1409Y-2.3567
X4.1409Y-2.4063
X4.1425Y-3.8106
X4.1429Y-3.7638
X4.1567Y-3.3224
X4.1567Y-3.4012
X4.1571Y-3.4709
X4.1594Y-4.1902
X4.1594Y-4.2815
X4.172Y-4.8665
X4.1732Y-2.2047
X4.1732Y-2.5984
X4.1732Y-3.6094
X4.1732Y-3.7315
X4.1732Y-5.3543
X4.1732Y-5.4331
X4.1736Y-2.6665
X4.174Y-4.0276
X4.1744Y-4.0961
X4.1862Y-3.9496
X4.1909Y-3.8087
X4.2024Y-3.7634
X4.2067Y-5.2965
X4.2114Y-2.9126
X4.2122Y-2.2433
X4.2126Y-2.7559
X4.2126Y-2.8346
X4.215Y-2.5449
X4.2154Y-5.1618
X4.2185Y-5.0972
X4.2213Y-3.6382
X4.2354Y-3.3224
X4.2354Y-3.4012
X4.2358Y-3.4709
X4.2421Y-4.3504
X4.2429Y-4.1902
X4.2429Y-4.2815
X4.2445Y-4.6327
X4.2508Y-4.8665
X4.252Y-2.2047
X4.252Y-2.5984
X4.252Y-5.3543
X4.252Y-5.4331
X4.2524Y-2.6673
X4.2744Y-3.987
X4.2748Y-3.8996
X4.2862Y-2.7555
X4.2862Y-2.8343
X4.2909Y-2.2433
X4.2941Y-5.1618
X4.2949Y-5.2205
X4.2949Y-5.2992
X4.2972Y-5.0972
X4.3122Y-3.472
X4.3142Y-3.3224
X4.3142Y-3.4012
X4.3197Y-3.0807
X4.3201Y-3.9457
X4.3205Y-3.1638
X4.3248Y-4.1902
X4.3248Y-4.2815
X4.3307Y-2.2047
X4.3307Y-2.2835
X4.3307Y-5.3543
X4.3307Y-5.4331
X4.3579Y-3.987
X4.3583Y-3.8996
X4.3583Y-4.3465
X4.3602Y-4.8606
X4.3701Y-2.5984
X4.3701Y-2.6673
X4.3701Y-2.7559
X4.3701Y-2.8346
X4.3728Y-5.1618
X4.3728Y-5.2224
X4.3728Y-5.3012
X4.376Y-5.0972
X4.3909Y-3.3228
X4.3909Y-3.4016
X4.3909Y-3.472
X4.3929Y-3.9402
X4.3984Y-3.0807
X4.3992Y-3.1638
X4.4055Y-4.3768
X4.4071Y-4.2988
X4.4075Y-2.8866
X4.4094Y-2.2047
X4.4094Y-2.2835
X4.4094Y-5.3543
X4.4094Y-5.4331
X4.4102Y-2.5496
X4.4102Y-4.1878
X4.4205Y-3.6626
X4.4228Y-3.9874
X4.448Y-4.3433
X4.4488Y-2.5984
X4.4488Y-2.6673
X4.4488Y-2.7559
X4.4488Y-2.8346
X4.4547Y-4.274
X4.4551Y-3.3232
X4.4551Y-3.402
X4.4551Y-3.4724
X4.4567Y-3.7106
X4.4567Y-4.3772
X4.4591Y-5.2803
X4.4654Y-5.0917
X4.4693Y-4.9346
X4.4705Y-4.1461
X4.4724Y-4.8091
X4.4728Y-4.8657
X4.4772Y-3.0807
X4.4772Y-3.163
X4.4862Y-2.8866
X4.4882Y-2.2047
X4.4882Y-2.2835
X4.4882Y-5.3543
X4.4882Y-5.4331
X4.4886Y-2.3441
X4.4886Y-2.4228
X4.4886Y-2.4866
X4.4894Y-2.5488
X4.4913Y-4.0016
X4.4949Y-3.8688
X4.4961Y-3.6626
X4.5075Y-2.6575
X4.5087Y-4.2744
X4.5098Y-3.3646
X4.5098Y-3.435
X4.5126Y-4.2098
X4.5213Y-2.6039
X4.5276Y-2.7559
X4.5276Y-2.8346
X4.528Y-5.2902
X4.5283Y-3.8965
X4.535Y-4.8091
X4.5354Y-3.7106
X4.5354Y-4.8661
X4.5484Y-3.3213
X4.5484Y-3.4
X4.5484Y-3.4705
X4.55Y-4.0012
X4.5559Y-3.0807
X4.5559Y-3.163
X4.5634Y-4.1583
X4.5665Y-2.8854
X4.5669Y-2.2047
X4.5669Y-2.2835
X4.5669Y-5.3543
X4.5669Y-5.4331
X4.5677Y-3.8693
X4.5748Y-3.6626
X4.5776Y-4.274
X4.5902Y-4.7004
X4.5945Y-4.2098
X4.5965Y-4.8091
X4.6004Y-4.7587
X4.6024Y-2.5012
X4.6035Y-2.3535
X4.6035Y-2.4323
X4.6055Y-3.8957
X4.6063Y-2.5984
X4.6063Y-2.6772
X4.6063Y-2.7559
X4.6063Y-2.8346
X4.6106Y-5.2661
X4.6118Y-3.7118
X4.615Y-4.0012
X4.622Y-3.4685
X4.624Y-3.3189
X4.624Y-3.3976
X4.6343Y-3.1622
X4.6346Y-3.0807
X4.6398Y-4.2744
X4.6398Y-5.1858
X4.6413Y-2.2047
X4.6413Y-2.2835
X4.6425Y-3.8701
X4.6453Y-2.8854
X4.6453Y-4.1583
X4.6457Y-5.3543
X4.6457Y-5.4331
X4.6484Y-5.2323
X4.6512Y-3.6638
X4.661Y-3.4339
X4.6642Y-3.3583
X4.6791Y-5.3071
X4.6795Y-4.2059
X4.6846Y-2.3311
X4.6846Y-2.389
X4.685Y-2.4496
X4.685Y-2.5984
X4.685Y-2.6665
X4.685Y-2.7559
X4.685Y-2.8346
X4.685Y-3.8819
X4.6854Y-2.5512
X4.6858Y-2.4988
X4.6902Y-3.7087
X4.6988Y-4.274
X4.7008Y-3.3193
X4.7008Y-3.398
X4.7008Y-3.4685
X4.7008Y-3.9118
X4.7059Y-4.1539
X4.713Y-3.1622
X4.7134Y-3.0807
X4.7181Y-3.6508
X4.7244Y-2.2047
X4.7244Y-2.2835
X4.7244Y-5.3543
X4.7244Y-5.4331
X4.7256Y-2.8854
X4.737Y-3.9543
X4.7449Y-4.2732
X4.7559Y-3.7087
X4.7598Y-5.3059
X4.7606Y-2.3268
X4.7614Y-3.9118
X4.7638Y-2.5984
X4.7638Y-2.6665
X4.7638Y-2.7559
X4.7638Y-2.8346
X4.7638Y-3.2677
X4.7638Y-3.3465
X4.7669Y-3.6508
X4.776Y-4.1488
X4.7772Y-3.9902
X4.7823Y-4.2374
X4.7921Y-3.0815
X4.7972Y-3.1551
X4.7972Y-3.2173
X4.8024Y-3.9492
X4.8031Y-2.2047
X4.8031Y-2.2835
X4.8031Y-5.3543
X4.8031Y-5.4331
X4.8043Y-2.8854
X4.8063Y-4.8134
X4.8217Y-4.1945
X4.8291Y-3.9126
X4.8319Y-2.4669
X4.8327Y-2.3693
X4.8331Y-2.422
X4.8378Y-4.8547
X4.8425Y-2.3276
X4.8425Y-2.5984
X4.8425Y-2.6665
X4.8425Y-3.2677
X4.8425Y-3.3465
X4.8583Y-2.7835
X4.8583Y-2.8228
X4.8606Y-4.1508
X4.8657Y-4.8142
X4.8689Y-4.3087
X4.8709Y-3.0815
X4.876Y-3.1551
X4.876Y-3.2173
X4.8819Y-2.2047
X4.8819Y-2.2835
X4.8819Y-5.3543
X4.8819Y-5.4331
X4.885Y-3.9146
X4.8858Y-2.4228
X4.887Y-2.3701
X4.887Y-2.5205
X4.8874Y-2.4697
X4.8972Y-4.8555
X4.9126Y-3.4465
X4.9213Y-2.3283
X4.9213Y-3.2677
X4.9213Y-3.3465
X4.9287Y-4.3083
X4.9307Y-4.2465
X4.9319Y-3.6882
X4.9433Y-3.9146
X4.9472Y-3.6398
X4.9567Y-3.4949
X4.9567Y-3.5736
X4.9606Y-2.2047
X4.9606Y-2.2835
X4.9606Y-5.3543
X4.9606Y-5.4331
X4.9913Y-3.4465
X4.9921Y-3.6846
X5.0Y-3.2677
X5.0Y-3.3465
X5.0012Y-2.3283
X5.0071Y-3.9146
X5.0197Y-2.998
X5.0201Y-4.8122
X5.0236Y-3.3976
X5.024Y-3.4843
X5.024Y-3.563
X5.026Y-3.6398
X5.028Y-3.0858
X5.0346Y-2.5039
X5.0382Y-2.7732
X5.039Y-2.7055
X5.0394Y-2.2047
X5.0394Y-2.2835
X5.0394Y-5.4331
X5.0413Y-2.3654
X5.0472Y-3.378
X5.0516Y-4.8535
X5.0579Y-2.9622
X5.0583Y-5.1535
X5.0618Y-3.6866
X5.0626Y-2.613
X5.0744Y-3.915
X5.0748Y-3.3504
X5.0748Y-3.3976
X5.0787Y-3.2677
X5.0791Y-4.8138
X5.0803Y-3.448
X5.0985Y-2.6744
X5.1028Y-2.7417
X5.1106Y-4.8551
X5.1181Y-2.2047
X5.1181Y-2.2835
X5.1181Y-5.3543
X5.1189Y-3.0295
X5.1209Y-2.4598
X5.122Y-5.4606
X5.1311Y-2.5362
X5.1311Y-2.6209
X5.1315Y-5.1535
X5.1339Y-3.6398
X5.1343Y-2.9449
X5.1346Y-3.6933
X5.1358Y-3.915
X5.1362Y-3.5689
X5.1386Y-4.8146
X5.152Y-3.0909
X5.1539Y-2.3646
X5.1575Y-3.3504
X5.1591Y-3.448
X5.161Y-5.1874
X5.1614Y-3.2677
X5.1614Y-5.2606
X5.165Y-2.9886
X5.1693Y-2.7681
X5.1701Y-4.8559
X5.1705Y-2.6992
X5.1736Y-5.2248
X5.1937Y-4.8154
X5.1953Y-3.048
X5.1969Y-2.2047
X5.1969Y-2.2835
X5.1969Y-5.3543
X5.2008Y-5.4606
X5.2016Y-3.915
X5.2079Y-2.952
X5.2087Y-3.6839
X5.2236Y-4.8551
X5.2283Y-3.1189
X5.2382Y-5.1453
X5.2394Y-3.0039
X5.2402Y-5.2606
X5.2508Y-2.7205
X5.2508Y-2.7992
X5.2512Y-2.5689
X5.2512Y-2.6476
X5.2528Y-4.8169
X5.2732Y-3.4213
X5.2756Y-2.2047
X5.2756Y-2.2835
X5.2756Y-3.3504
X5.2756Y-5.3543
X5.2764Y-4.8559
X5.2787Y-3.915
X5.2795Y-3.2677
X5.2795Y-5.4606
X5.2811Y-4.7646
X5.2819Y-4.7059
X5.2835Y-2.9598
X5.285Y-4.6472
X5.3008Y-3.0402
X5.3008Y-3.1189
X5.3122Y-4.8177
X5.3122Y-5.2713
X5.3252Y-2.7193
X5.3252Y-2.798
X5.3256Y-2.5677
X5.3256Y-2.6465
X5.3362Y-3.4209
X5.337Y-4.1992
X5.337Y-4.2547
X5.337Y-4.3094
X5.339Y-3.3083
X5.3449Y-4.7646
X5.3457Y-4.7051
X5.3469Y-3.915
X5.3472Y-4.6461
X5.3512Y-4.1457
X5.3543Y-2.2047
X5.3543Y-2.2835
X5.3543Y-5.3543
X5.3583Y-5.4606
X5.3752Y-2.9791
X5.3752Y-3.039
X5.3752Y-3.1177
X5.3756Y-5.2705
X5.3937Y-3.3504
X5.3949Y-2.7201
X5.3949Y-2.7988
X5.3953Y-2.5685
X5.3953Y-2.6472
X5.3957Y-4.198
X5.3957Y-4.2535
X5.3957Y-4.3083
X5.3976Y-3.2677
X5.4063Y-2.5087
X5.4067Y-4.7055
X5.4075Y-2.361
X5.4075Y-2.4398
X5.4075Y-3.9154
X5.4083Y-4.6465
X5.415Y-3.4209
X5.4213Y-3.5063
X5.4213Y-3.585
X5.4232Y-5.2638
X5.4287Y-3.7024
X5.4299Y-4.1457
X5.4331Y-2.2047
X5.4331Y-2.2835
X5.4331Y-5.3543
X5.437Y-5.4606
X5.4555Y-4.2528
X5.4587Y-4.3091
X5.4673Y-2.7209
X5.4673Y-2.7996
X5.4677Y-2.5697
X5.4677Y-2.6484
X5.4677Y-4.6469
X5.4681Y-3.915
X5.4689Y-5.2634
X5.4709Y-4.1827
X5.4717Y-3.335
X5.4748Y-3.6157
X5.4764Y-3.2677
X5.4929Y-4.1465
X5.5039Y-3.6807
X5.5118Y-2.2047
X5.5118Y-2.2835
X5.5118Y-5.3543
X5.5157Y-5.4606
X5.5185Y-4.2535
X5.5185Y-5.265
X5.5189Y-3.615
X5.5248Y-4.3094
X5.5283Y-3.7209
X5.5339Y-4.1835
X5.5354Y-3.2362
X5.5394Y-3.915
X5.5409Y-4.5398
X5.5417Y-4.4272
X5.5417Y-4.4835
X5.5417Y-4.5874
X5.55Y-2.9567
X5.55Y-3.0354
X5.5508Y-3.6768
X5.5512Y-3.3504
X5.5551Y-3.2677
X5.5618Y-2.7165
X5.5634Y-2.5701
X5.5634Y-2.6488
X5.565Y-4.1484
X5.5657Y-5.2646
X5.5685Y-3.0992
X5.5724Y-3.8433
X5.5732Y-4.2531
X5.5886Y-2.3961
X5.5886Y-2.4748
X5.5906Y-2.2047
X5.5906Y-2.2835
X5.5906Y-5.3543
X5.5945Y-5.4606
X5.6055Y-4.487
X5.6063Y-4.4315
X5.6067Y-4.3831
X5.611Y-3.5161
X5.6224Y-2.9579
X5.6224Y-3.0366
X5.6228Y-3.7091
X5.624Y-4.2055
X5.6256Y-3.6067
X5.6299Y-3.2677
X5.6374Y-4.7606
X5.6398Y-2.7244
X5.6409Y-3.1004
X5.665Y-3.6713
X5.6665Y-4.1646
X5.6693Y-2.2047
X5.6693Y-2.2835
X5.6693Y-3.5606
X5.6693Y-5.3543
X5.6732Y-5.4606
X5.6846Y-2.6811
X5.6858Y-3.9878
X5.6866Y-4.0461
X5.6878Y-3.7094
X5.6886Y-3.8114
X5.6921Y-2.5157
X5.6933Y-2.3681
X5.6933Y-2.4469
X5.6933Y-2.5854
X5.7031Y-4.124
X5.7035Y-4.6976
X5.7039Y-4.7602
X5.7114Y-3.6224
X5.713Y-4.4626
X5.713Y-4.5189
X5.7138Y-2.9657
X5.7138Y-3.0445
X5.7138Y-3.115
X5.7138Y-3.1937
X5.728Y-4.4106
X5.7323Y-2.7244
X5.7346Y-4.3185
X5.7382Y-2.2051
X5.7382Y-2.2839
X5.7445Y-4.8118
X5.7472Y-4.8783
X5.7539Y-3.9224
X5.7539Y-4.0012
X5.7559Y-5.4685
X5.7575Y-4.0965
X5.7665Y-4.7598
X5.7669Y-4.2272
X5.7697Y-3.6213
X5.7728Y-3.1594
X5.7728Y-3.2382
X5.7866Y-2.3197
X5.7866Y-2.3984
X5.7866Y-2.4709
X5.789Y-2.8106
X5.789Y-2.8894
X5.789Y-2.9657
X5.7945Y-4.4102
X5.7992Y-2.5646
X5.7992Y-2.6433
X5.7996Y-4.6051
X5.8063Y-4.8114
X5.8063Y-4.8902
X5.8114Y-4.3181
X5.8248Y-3.1925
X5.8248Y-3.2713
X5.8268Y-2.2047
X5.8268Y-2.2835
X5.8303Y-4.7579
X5.8307Y-5.3976
X5.8307Y-5.4764
X5.8327Y-4.0929
X5.8343Y-3.922
X5.8343Y-4.0008
X5.8374Y-4.2272
X5.8425Y-3.6067
X5.8433Y-3.4799
X5.8437Y-3.5425
X5.8461Y-4.8496
X5.8539Y-2.7315
X5.8539Y-4.5531
X5.8618Y-4.4102
X5.8701Y-4.6091
X5.878Y-2.5646
X5.878Y-2.6433
X5.8839Y-4.3185
X5.885Y-4.8114
X5.885Y-4.8902
X5.887Y-3.1594
X5.887Y-3.2382
X5.9024Y-4.0874
X5.9055Y-2.2047
X5.9055Y-2.2835
X5.9055Y-5.3543
X5.9055Y-5.4331
X5.9098Y-4.2276
X5.913Y-3.4799
X5.9283Y-4.4098
X5.9303Y-2.7315
X5.9362Y-4.6067
X5.9366Y-4.537
X5.9378Y-3.6819
X5.9421Y-3.1961
X5.9421Y-3.2748
X5.9508Y-5.2941
X5.9516Y-4.6831
X5.9567Y-2.5646
X5.9567Y-2.6433
X5.9571Y-2.4972
X5.9575Y-2.3504
X5.9575Y-2.4236
X5.9583Y-4.3185
X5.9843Y-2.2047
X5.9843Y-2.2835
X5.9843Y-4.2276
X5.9843Y-5.3543
X5.9843Y-5.4331
X5.9862Y-4.085
X5.9917Y-4.8886
X5.9921Y-4.8047
X5.9953Y-3.1575
X5.9953Y-3.2362
X5.9965Y-4.4098
X5.9965Y-4.4886
X5.9965Y-4.5673
X5.9965Y-4.6461
X5.9965Y-4.7248
X6.0071Y-4.9988
X6.0071Y-5.0776
X6.0071Y-5.1563
X6.0071Y-5.235
X6.0087Y-5.2945
X6.0138Y-4.3134
X6.0165Y-3.6819
X6.0173Y-2.7319
X6.0272Y-4.8457
X6.0354Y-2.5646
X6.0354Y-2.6433
X6.0469Y-3.1925
X6.063Y-2.2047
X6.063Y-2.2835
X6.063Y-4.0157
X6.063Y-4.0945
X6.063Y-4.252
X6.063Y-4.3307
X6.063Y-4.4094
X6.063Y-4.4882
X6.063Y-4.5669
X6.063Y-4.6457
X6.063Y-4.7244
X6.063Y-4.8031
X6.063Y-4.9606
X6.063Y-5.0394
X6.063Y-5.1181
X6.063Y-5.1969
X6.063Y-5.2756
X6.063Y-5.3543
X6.063Y-5.4331
X6.0669Y-4.8898
X6.0819Y-4.1949
X6.0961Y-2.7319
X6.113Y-2.8091
X6.113Y-2.8878
X6.113Y-2.9642
X6.1142Y-2.5646
X6.1142Y-2.6433
X6.1252Y-4.1736
X6.1256Y-4.252
X6.1287Y-4.3307
X6.1287Y-4.4098
X6.1287Y-4.4886
X6.1287Y-4.5677
X6.1287Y-4.6457
X6.1287Y-4.7244
X6.1343Y-2.4937
X6.1413Y-2.3642
X6.1417Y-2.2047
X6.1417Y-2.2835
X6.1417Y-3.937
X6.1417Y-4.0157
X6.1417Y-4.0945
X6.1417Y-4.8819
X6.1417Y-4.9606
X6.1417Y-5.0394
X6.1417Y-5.1181
X6.1417Y-5.1969
X6.1417Y-5.2756
X6.1417Y-5.3543
X6.1417Y-5.4331
X6.1496Y-4.8071
X6.1591Y-3.4047
X6.165Y-3.2724
X6.165Y-3.3512
X6.1724Y-2.7319
X6.1819Y-3.6028
X6.1823Y-3.5437
X6.1823Y-3.6917
X6.1823Y-3.7705
X6.1831Y-3.485
X6.1886Y-3.035
X6.1902Y-2.8091
X6.1902Y-2.8878
X6.1902Y-2.9642
X6.2047Y-3.8583
X6.2047Y-3.937
X6.2047Y-4.0157
X6.2047Y-4.0945
X6.2047Y-4.1732
X6.2047Y-4.252
X6.2205Y-2.2047
X6.2205Y-2.2835
X6.2205Y-4.3307
X6.2205Y-4.4094
X6.2205Y-4.4882
X6.2205Y-4.5669
X6.2205Y-4.6457
X6.2205Y-4.7244
X6.2205Y-4.8031
X6.2205Y-4.8819
X6.2205Y-4.9606
X6.2205Y-5.0394
X6.2205Y-5.1181
X6.2205Y-5.1969
X6.2205Y-5.2756
X6.2205Y-5.3543
X6.2205Y-5.4331
X6.222Y-3.2205
X6.222Y-3.2992
X6.222Y-3.378
X6.2965Y-3.1524
X6.2972Y-3.2209
X6.2972Y-3.2996
X6.2972Y-3.3783
X6.2972Y-3.4571
X6.2988Y-3.5343
X6.2988Y-3.613
X6.2988Y-3.6917
X6.2988Y-3.7705
X6.2992Y-2.2047
X6.2992Y-2.2835
X6.2992Y-3.8583
X6.2992Y-3.937
X6.2992Y-4.0157
X6.2992Y-4.0945
X6.2992Y-4.1732
X6.2992Y-4.252
X6.2992Y-4.3307
X6.2992Y-4.4094
X6.2992Y-4.4882
X6.2992Y-4.5669
X6.2992Y-4.6457
X6.2992Y-4.7244
X6.2992Y-4.8031
X6.2992Y-4.8819
X6.2992Y-4.9606
X6.2992Y-5.0394
X6.2992Y-5.1181
X6.2992Y-5.1969
X6.2992Y-5.2756
X6.2992Y-5.3543
X6.2992Y-5.4331
T2
X5.0783Y-4.2925
X5.1374Y-4.2925
X5.1965Y-4.2925
X5.2555Y-4.2925
T3
X4.2469Y-4.5563
X4.824Y-5.0575
X5.0087Y-4.5551
X5.3303Y-3.5965
X5.5843Y-5.0614
X5.6063Y-4.874
X5.7177Y-3.3283
T4
X4.0059Y-4.5614
X4.0559Y-4.5114
X4.0559Y-4.6114
X4.585Y-5.0618
X4.635Y-5.0118
X4.635Y-5.1118
X5.1772Y-4.5266
X5.2272Y-4.4766
X5.2272Y-4.5766
X5.7547Y-5.0593
X5.8047Y-5.0093
X5.8047Y-5.1093
T5
X4.0774Y-3.2459
X4.0774Y-3.5459
X4.1774Y-3.2459
X4.1774Y-3.5459
X4.2774Y-3.2459
X4.2774Y-3.5459
X4.285Y-3.7813
X4.285Y-4.0813
X4.3774Y-3.2459
X4.3774Y-3.5459
X4.385Y-3.7813
X4.385Y-4.0813
X4.4774Y-3.2459
X4.4774Y-3.5459
X4.485Y-3.7813
X4.485Y-4.0813
X4.5774Y-3.2459
X4.5774Y-3.5459
X4.585Y-3.7813
X4.585Y-4.0813
X4.6774Y-3.2459
X4.6774Y-3.5459
X4.685Y-3.7813
X4.685Y-4.0813
X4.785Y-3.7813
X4.785Y-4.0813
X4.885Y-3.7813
X4.885Y-4.0813
X4.8868Y-3.5146
X4.8868Y-3.6146
X4.985Y-3.7813
X4.985Y-4.0813
X5.0089Y-2.8876
X5.0089Y-3.1876
X5.085Y-3.7813
X5.085Y-4.0813
X5.1089Y-2.8876
X5.1089Y-3.1876
X5.185Y-3.7813
X5.185Y-4.0813
X5.1868Y-3.5146
X5.1868Y-3.6146
X5.2089Y-2.8876
X5.2089Y-3.1876
X5.285Y-3.7813
X5.285Y-4.0813
X5.3089Y-2.8876
X5.3089Y-3.1876
X5.385Y-3.7813
X5.385Y-4.0813
X5.4089Y-2.8876
X5.4089Y-3.1876
X5.485Y-3.7813
X5.485Y-4.0813
X5.5089Y-2.8876
X5.5089Y-3.1876
X5.585Y-3.7813
X5.585Y-4.0813
X5.6089Y-2.8876
X5.6089Y-3.1876
T6
X4.0476Y-3.8421
X4.0476Y-3.9421
X4.0476Y-4.0421
X4.0476Y-4.1421
X4.0476Y-4.2421
X5.5193Y-3.425
X5.5193Y-3.525
T7
X4.3189Y-4.5313
X4.3193Y-4.7291
X4.4189Y-4.5313
X4.4193Y-4.7291
X4.5189Y-4.5313
X4.5193Y-4.7291
X4.7362Y-4.4569
X4.737Y-4.6543
X4.8362Y-4.4569
X4.837Y-4.6543
X4.8965Y-5.037
X4.8965Y-5.2343
X4.9362Y-4.4569
X4.937Y-4.6543
X4.9965Y-5.037
X4.9965Y-5.2343
X5.0965Y-5.037
X5.0965Y-5.2343
X5.3138Y-4.9622
X5.3142Y-5.1602
X5.4138Y-4.9622
X5.4142Y-5.1602
X5.5138Y-4.9622
X5.5142Y-5.1602
X5.9181Y-3.5772
X6.0181Y-3.5772
X6.1181Y-3.5772
T8
X4.1681Y-5.0276
X4.1681Y-5.2244
X4.2189Y-2.4327
X4.4157Y-2.4327
X4.7632Y-2.4339
X4.96Y-2.4339
X5.3089Y-2.428
X5.5057Y-2.428
X5.8346Y-4.4809
X5.8346Y-4.6778
X5.8596Y-2.428
X5.9717Y-3.76
X5.9717Y-3.9569
X5.9717Y-4.1537
X6.0565Y-2.428
T0
M30
