%TF.GenerationSoftware,KiCad,Pcbnew,(6.0.2)*%
%TF.CreationDate,2022-03-08T08:53:00-06:00*%
%TF.ProjectId,FundamentalsRobot,46756e64-616d-4656-9e74-616c73526f62,rev?*%
%TF.SameCoordinates,Original*%
%TF.FileFunction,Paste,Top*%
%TF.FilePolarity,Positive*%
%FSLAX46Y46*%
G04 Gerber Fmt 4.6, Leading zero omitted, Abs format (unit mm)*
G04 Created by KiCad (PCBNEW (6.0.2)) date 2022-03-08 08:53:00*
%MOMM*%
%LPD*%
G01*
G04 APERTURE LIST*
G04 Aperture macros list*
%AMRoundRect*
0 Rectangle with rounded corners*
0 $1 Rounding radius*
0 $2 $3 $4 $5 $6 $7 $8 $9 X,Y pos of 4 corners*
0 Add a 4 corners polygon primitive as box body*
4,1,4,$2,$3,$4,$5,$6,$7,$8,$9,$2,$3,0*
0 Add four circle primitives for the rounded corners*
1,1,$1+$1,$2,$3*
1,1,$1+$1,$4,$5*
1,1,$1+$1,$6,$7*
1,1,$1+$1,$8,$9*
0 Add four rect primitives between the rounded corners*
20,1,$1+$1,$2,$3,$4,$5,0*
20,1,$1+$1,$4,$5,$6,$7,0*
20,1,$1+$1,$6,$7,$8,$9,0*
20,1,$1+$1,$8,$9,$2,$3,0*%
G04 Aperture macros list end*
%ADD10RoundRect,0.200000X0.275000X-0.200000X0.275000X0.200000X-0.275000X0.200000X-0.275000X-0.200000X0*%
%ADD11RoundRect,0.200000X-0.335876X-0.053033X-0.053033X-0.335876X0.335876X0.053033X0.053033X0.335876X0*%
%ADD12RoundRect,0.200000X-0.275000X0.200000X-0.275000X-0.200000X0.275000X-0.200000X0.275000X0.200000X0*%
%ADD13RoundRect,0.200000X0.200000X0.275000X-0.200000X0.275000X-0.200000X-0.275000X0.200000X-0.275000X0*%
%ADD14RoundRect,0.250000X-0.650000X0.325000X-0.650000X-0.325000X0.650000X-0.325000X0.650000X0.325000X0*%
%ADD15RoundRect,0.225000X0.225000X0.250000X-0.225000X0.250000X-0.225000X-0.250000X0.225000X-0.250000X0*%
%ADD16RoundRect,0.225000X-0.250000X0.225000X-0.250000X-0.225000X0.250000X-0.225000X0.250000X0.225000X0*%
%ADD17RoundRect,0.225000X0.250000X-0.225000X0.250000X0.225000X-0.250000X0.225000X-0.250000X-0.225000X0*%
G04 APERTURE END LIST*
D10*
%TO.C,R13*%
X103015000Y-65170000D03*
X103015000Y-63520000D03*
%TD*%
D11*
%TO.C,R17*%
X114916637Y-130916637D03*
X116083363Y-132083363D03*
%TD*%
D12*
%TO.C,R4*%
X145210000Y-85845000D03*
X145210000Y-87495000D03*
%TD*%
D13*
%TO.C,R27*%
X147005000Y-132045000D03*
X145355000Y-132045000D03*
%TD*%
D14*
%TO.C,C4*%
X136290000Y-113145000D03*
X136290000Y-116095000D03*
%TD*%
D13*
%TO.C,R10*%
X135555000Y-89925000D03*
X133905000Y-89925000D03*
%TD*%
D10*
%TO.C,R24*%
X134380000Y-107320000D03*
X134380000Y-105670000D03*
%TD*%
D15*
%TO.C,C2*%
X155025000Y-86430000D03*
X153475000Y-86430000D03*
%TD*%
D10*
%TO.C,R23*%
X131420000Y-107290000D03*
X131420000Y-105640000D03*
%TD*%
%TO.C,R18*%
X120720000Y-126235000D03*
X120720000Y-124585000D03*
%TD*%
%TO.C,R26*%
X143710000Y-126400000D03*
X143710000Y-124750000D03*
%TD*%
D12*
%TO.C,R25*%
X143670000Y-131900000D03*
X143670000Y-133550000D03*
%TD*%
D13*
%TO.C,R3*%
X126035000Y-71190000D03*
X124385000Y-71190000D03*
%TD*%
D16*
%TO.C,C3*%
X103020000Y-60490000D03*
X103020000Y-62040000D03*
%TD*%
D17*
%TO.C,C1*%
X143640000Y-88145000D03*
X143640000Y-86595000D03*
%TD*%
D13*
%TO.C,R14*%
X132375000Y-118645000D03*
X130725000Y-118645000D03*
%TD*%
D14*
%TO.C,C6*%
X138800000Y-113150000D03*
X138800000Y-116100000D03*
%TD*%
D10*
%TO.C,R20*%
X120590000Y-130490000D03*
X120590000Y-128840000D03*
%TD*%
D12*
%TO.C,R6*%
X106060000Y-120595000D03*
X106060000Y-122245000D03*
%TD*%
%TO.C,R16*%
X158195000Y-62965000D03*
X158195000Y-64615000D03*
%TD*%
%TO.C,R9*%
X129100000Y-119275000D03*
X129100000Y-120925000D03*
%TD*%
D10*
%TO.C,R2*%
X106060000Y-114325000D03*
X106060000Y-112675000D03*
%TD*%
%TO.C,R7*%
X106060000Y-119225000D03*
X106060000Y-117575000D03*
%TD*%
%TO.C,R15*%
X144380000Y-70825000D03*
X144380000Y-69175000D03*
%TD*%
D11*
%TO.C,R1*%
X99896637Y-118041637D03*
X101063363Y-119208363D03*
%TD*%
D12*
%TO.C,R11*%
X134040000Y-91450000D03*
X134040000Y-93100000D03*
%TD*%
D10*
%TO.C,R8*%
X129120000Y-117855000D03*
X129120000Y-116205000D03*
%TD*%
D12*
%TO.C,R5*%
X145210000Y-88905000D03*
X145210000Y-90555000D03*
%TD*%
D10*
%TO.C,R21*%
X143680000Y-130470000D03*
X143680000Y-128820000D03*
%TD*%
D16*
%TO.C,C5*%
X158195000Y-59765000D03*
X158195000Y-61315000D03*
%TD*%
D10*
%TO.C,R22*%
X128530000Y-107320000D03*
X128530000Y-105670000D03*
%TD*%
D12*
%TO.C,R19*%
X120660000Y-131910000D03*
X120660000Y-133560000D03*
%TD*%
D10*
%TO.C,R12*%
X129020000Y-113155000D03*
X129020000Y-111505000D03*
%TD*%
M02*
