%TF.GenerationSoftware,KiCad,Pcbnew,(6.0.2)*%
%TF.CreationDate,2022-03-08T08:53:01-06:00*%
%TF.ProjectId,FundamentalsRobot,46756e64-616d-4656-9e74-616c73526f62,rev?*%
%TF.SameCoordinates,Original*%
%TF.FileFunction,Soldermask,Top*%
%TF.FilePolarity,Negative*%
%FSLAX46Y46*%
G04 Gerber Fmt 4.6, Leading zero omitted, Abs format (unit mm)*
G04 Created by KiCad (PCBNEW (6.0.2)) date 2022-03-08 08:53:01*
%MOMM*%
%LPD*%
G01*
G04 APERTURE LIST*
G04 Aperture macros list*
%AMRoundRect*
0 Rectangle with rounded corners*
0 $1 Rounding radius*
0 $2 $3 $4 $5 $6 $7 $8 $9 X,Y pos of 4 corners*
0 Add a 4 corners polygon primitive as box body*
4,1,4,$2,$3,$4,$5,$6,$7,$8,$9,$2,$3,0*
0 Add four circle primitives for the rounded corners*
1,1,$1+$1,$2,$3*
1,1,$1+$1,$4,$5*
1,1,$1+$1,$6,$7*
1,1,$1+$1,$8,$9*
0 Add four rect primitives between the rounded corners*
20,1,$1+$1,$2,$3,$4,$5,0*
20,1,$1+$1,$4,$5,$6,$7,0*
20,1,$1+$1,$6,$7,$8,$9,0*
20,1,$1+$1,$8,$9,$2,$3,0*%
G04 Aperture macros list end*
%ADD10C,0.150000*%
%ADD11RoundRect,0.200000X0.275000X-0.200000X0.275000X0.200000X-0.275000X0.200000X-0.275000X-0.200000X0*%
%ADD12R,1.905000X2.000000*%
%ADD13O,1.905000X2.000000*%
%ADD14R,1.300000X1.300000*%
%ADD15C,1.300000*%
%ADD16RoundRect,0.200000X-0.335876X-0.053033X-0.053033X-0.335876X0.335876X0.053033X0.053033X0.335876X0*%
%ADD17RoundRect,0.200000X-0.275000X0.200000X-0.275000X-0.200000X0.275000X-0.200000X0.275000X0.200000X0*%
%ADD18RoundRect,0.200000X0.200000X0.275000X-0.200000X0.275000X-0.200000X-0.275000X0.200000X-0.275000X0*%
%ADD19R,1.700000X1.700000*%
%ADD20O,1.700000X1.700000*%
%ADD21R,1.600000X1.600000*%
%ADD22O,1.600000X1.600000*%
%ADD23RoundRect,0.250000X-0.650000X0.325000X-0.650000X-0.325000X0.650000X-0.325000X0.650000X0.325000X0*%
%ADD24R,1.980000X3.960000*%
%ADD25O,1.980000X3.960000*%
%ADD26R,3.960000X1.980000*%
%ADD27O,3.960000X1.980000*%
%ADD28RoundRect,0.225000X0.225000X0.250000X-0.225000X0.250000X-0.225000X-0.250000X0.225000X-0.250000X0*%
%ADD29RoundRect,0.225000X-0.250000X0.225000X-0.250000X-0.225000X0.250000X-0.225000X0.250000X0.225000X0*%
%ADD30RoundRect,0.225000X0.250000X-0.225000X0.250000X0.225000X-0.250000X0.225000X-0.250000X-0.225000X0*%
%ADD31C,1.000000*%
G04 APERTURE END LIST*
D10*
X146654285Y-76851142D02*
X146454285Y-76851142D01*
X146454285Y-77165428D02*
X146454285Y-76565428D01*
X146740000Y-76565428D01*
X147225714Y-76765428D02*
X147225714Y-77165428D01*
X146968571Y-76765428D02*
X146968571Y-77079714D01*
X146997142Y-77136857D01*
X147054285Y-77165428D01*
X147140000Y-77165428D01*
X147197142Y-77136857D01*
X147225714Y-77108285D01*
X147511428Y-76765428D02*
X147511428Y-77165428D01*
X147511428Y-76822571D02*
X147540000Y-76794000D01*
X147597142Y-76765428D01*
X147682857Y-76765428D01*
X147740000Y-76794000D01*
X147768571Y-76851142D01*
X147768571Y-77165428D01*
X148311428Y-77165428D02*
X148311428Y-76565428D01*
X148311428Y-77136857D02*
X148254285Y-77165428D01*
X148140000Y-77165428D01*
X148082857Y-77136857D01*
X148054285Y-77108285D01*
X148025714Y-77051142D01*
X148025714Y-76879714D01*
X148054285Y-76822571D01*
X148082857Y-76794000D01*
X148140000Y-76765428D01*
X148254285Y-76765428D01*
X148311428Y-76794000D01*
X148854285Y-77165428D02*
X148854285Y-76851142D01*
X148825714Y-76794000D01*
X148768571Y-76765428D01*
X148654285Y-76765428D01*
X148597142Y-76794000D01*
X148854285Y-77136857D02*
X148797142Y-77165428D01*
X148654285Y-77165428D01*
X148597142Y-77136857D01*
X148568571Y-77079714D01*
X148568571Y-77022571D01*
X148597142Y-76965428D01*
X148654285Y-76936857D01*
X148797142Y-76936857D01*
X148854285Y-76908285D01*
X149140000Y-77165428D02*
X149140000Y-76765428D01*
X149140000Y-76822571D02*
X149168571Y-76794000D01*
X149225714Y-76765428D01*
X149311428Y-76765428D01*
X149368571Y-76794000D01*
X149397142Y-76851142D01*
X149397142Y-77165428D01*
X149397142Y-76851142D02*
X149425714Y-76794000D01*
X149482857Y-76765428D01*
X149568571Y-76765428D01*
X149625714Y-76794000D01*
X149654285Y-76851142D01*
X149654285Y-77165428D01*
X150168571Y-77136857D02*
X150111428Y-77165428D01*
X149997142Y-77165428D01*
X149940000Y-77136857D01*
X149911428Y-77079714D01*
X149911428Y-76851142D01*
X149940000Y-76794000D01*
X149997142Y-76765428D01*
X150111428Y-76765428D01*
X150168571Y-76794000D01*
X150197142Y-76851142D01*
X150197142Y-76908285D01*
X149911428Y-76965428D01*
X150454285Y-76765428D02*
X150454285Y-77165428D01*
X150454285Y-76822571D02*
X150482857Y-76794000D01*
X150540000Y-76765428D01*
X150625714Y-76765428D01*
X150682857Y-76794000D01*
X150711428Y-76851142D01*
X150711428Y-77165428D01*
X150911428Y-76765428D02*
X151140000Y-76765428D01*
X150997142Y-76565428D02*
X150997142Y-77079714D01*
X151025714Y-77136857D01*
X151082857Y-77165428D01*
X151140000Y-77165428D01*
X151597142Y-77165428D02*
X151597142Y-76851142D01*
X151568571Y-76794000D01*
X151511428Y-76765428D01*
X151397142Y-76765428D01*
X151340000Y-76794000D01*
X151597142Y-77136857D02*
X151540000Y-77165428D01*
X151397142Y-77165428D01*
X151340000Y-77136857D01*
X151311428Y-77079714D01*
X151311428Y-77022571D01*
X151340000Y-76965428D01*
X151397142Y-76936857D01*
X151540000Y-76936857D01*
X151597142Y-76908285D01*
X151968571Y-77165428D02*
X151911428Y-77136857D01*
X151882857Y-77079714D01*
X151882857Y-76565428D01*
X152168571Y-77136857D02*
X152225714Y-77165428D01*
X152340000Y-77165428D01*
X152397142Y-77136857D01*
X152425714Y-77079714D01*
X152425714Y-77051142D01*
X152397142Y-76994000D01*
X152340000Y-76965428D01*
X152254285Y-76965428D01*
X152197142Y-76936857D01*
X152168571Y-76879714D01*
X152168571Y-76851142D01*
X152197142Y-76794000D01*
X152254285Y-76765428D01*
X152340000Y-76765428D01*
X152397142Y-76794000D01*
X153482857Y-77165428D02*
X153282857Y-76879714D01*
X153140000Y-77165428D02*
X153140000Y-76565428D01*
X153368571Y-76565428D01*
X153425714Y-76594000D01*
X153454285Y-76622571D01*
X153482857Y-76679714D01*
X153482857Y-76765428D01*
X153454285Y-76822571D01*
X153425714Y-76851142D01*
X153368571Y-76879714D01*
X153140000Y-76879714D01*
X153825714Y-77165428D02*
X153768571Y-77136857D01*
X153740000Y-77108285D01*
X153711428Y-77051142D01*
X153711428Y-76879714D01*
X153740000Y-76822571D01*
X153768571Y-76794000D01*
X153825714Y-76765428D01*
X153911428Y-76765428D01*
X153968571Y-76794000D01*
X153997142Y-76822571D01*
X154025714Y-76879714D01*
X154025714Y-77051142D01*
X153997142Y-77108285D01*
X153968571Y-77136857D01*
X153911428Y-77165428D01*
X153825714Y-77165428D01*
X154282857Y-77165428D02*
X154282857Y-76565428D01*
X154282857Y-76794000D02*
X154340000Y-76765428D01*
X154454285Y-76765428D01*
X154511428Y-76794000D01*
X154540000Y-76822571D01*
X154568571Y-76879714D01*
X154568571Y-77051142D01*
X154540000Y-77108285D01*
X154511428Y-77136857D01*
X154454285Y-77165428D01*
X154340000Y-77165428D01*
X154282857Y-77136857D01*
X154911428Y-77165428D02*
X154854285Y-77136857D01*
X154825714Y-77108285D01*
X154797142Y-77051142D01*
X154797142Y-76879714D01*
X154825714Y-76822571D01*
X154854285Y-76794000D01*
X154911428Y-76765428D01*
X154997142Y-76765428D01*
X155054285Y-76794000D01*
X155082857Y-76822571D01*
X155111428Y-76879714D01*
X155111428Y-77051142D01*
X155082857Y-77108285D01*
X155054285Y-77136857D01*
X154997142Y-77165428D01*
X154911428Y-77165428D01*
X155282857Y-76765428D02*
X155511428Y-76765428D01*
X155368571Y-76565428D02*
X155368571Y-77079714D01*
X155397142Y-77136857D01*
X155454285Y-77165428D01*
X155511428Y-77165428D01*
X150011428Y-78131428D02*
X149811428Y-77845714D01*
X149668571Y-78131428D02*
X149668571Y-77531428D01*
X149897142Y-77531428D01*
X149954285Y-77560000D01*
X149982857Y-77588571D01*
X150011428Y-77645714D01*
X150011428Y-77731428D01*
X149982857Y-77788571D01*
X149954285Y-77817142D01*
X149897142Y-77845714D01*
X149668571Y-77845714D01*
X150497142Y-78102857D02*
X150440000Y-78131428D01*
X150325714Y-78131428D01*
X150268571Y-78102857D01*
X150240000Y-78045714D01*
X150240000Y-77817142D01*
X150268571Y-77760000D01*
X150325714Y-77731428D01*
X150440000Y-77731428D01*
X150497142Y-77760000D01*
X150525714Y-77817142D01*
X150525714Y-77874285D01*
X150240000Y-77931428D01*
X150725714Y-77731428D02*
X150868571Y-78131428D01*
X151011428Y-77731428D01*
X151240000Y-78074285D02*
X151268571Y-78102857D01*
X151240000Y-78131428D01*
X151211428Y-78102857D01*
X151240000Y-78074285D01*
X151240000Y-78131428D01*
X151954285Y-77960000D02*
X152240000Y-77960000D01*
X151897142Y-78131428D02*
X152097142Y-77531428D01*
X152297142Y-78131428D01*
X146740000Y-78497428D02*
X147140000Y-78497428D01*
X146740000Y-79097428D01*
X147140000Y-79097428D01*
X147625714Y-79097428D02*
X147625714Y-78783142D01*
X147597142Y-78726000D01*
X147540000Y-78697428D01*
X147425714Y-78697428D01*
X147368571Y-78726000D01*
X147625714Y-79068857D02*
X147568571Y-79097428D01*
X147425714Y-79097428D01*
X147368571Y-79068857D01*
X147340000Y-79011714D01*
X147340000Y-78954571D01*
X147368571Y-78897428D01*
X147425714Y-78868857D01*
X147568571Y-78868857D01*
X147625714Y-78840285D01*
X148168571Y-79068857D02*
X148111428Y-79097428D01*
X147997142Y-79097428D01*
X147940000Y-79068857D01*
X147911428Y-79040285D01*
X147882857Y-78983142D01*
X147882857Y-78811714D01*
X147911428Y-78754571D01*
X147940000Y-78726000D01*
X147997142Y-78697428D01*
X148111428Y-78697428D01*
X148168571Y-78726000D01*
X148425714Y-79097428D02*
X148425714Y-78497428D01*
X148682857Y-79097428D02*
X148682857Y-78783142D01*
X148654285Y-78726000D01*
X148597142Y-78697428D01*
X148511428Y-78697428D01*
X148454285Y-78726000D01*
X148425714Y-78754571D01*
X149368571Y-78497428D02*
X149511428Y-79097428D01*
X149625714Y-78668857D01*
X149740000Y-79097428D01*
X149882857Y-78497428D01*
X150368571Y-79097428D02*
X150368571Y-78783142D01*
X150340000Y-78726000D01*
X150282857Y-78697428D01*
X150168571Y-78697428D01*
X150111428Y-78726000D01*
X150368571Y-79068857D02*
X150311428Y-79097428D01*
X150168571Y-79097428D01*
X150111428Y-79068857D01*
X150082857Y-79011714D01*
X150082857Y-78954571D01*
X150111428Y-78897428D01*
X150168571Y-78868857D01*
X150311428Y-78868857D01*
X150368571Y-78840285D01*
X150740000Y-79097428D02*
X150682857Y-79068857D01*
X150654285Y-79011714D01*
X150654285Y-78497428D01*
X151225714Y-79097428D02*
X151225714Y-78497428D01*
X151225714Y-79068857D02*
X151168571Y-79097428D01*
X151054285Y-79097428D01*
X150997142Y-79068857D01*
X150968571Y-79040285D01*
X150940000Y-78983142D01*
X150940000Y-78811714D01*
X150968571Y-78754571D01*
X150997142Y-78726000D01*
X151054285Y-78697428D01*
X151168571Y-78697428D01*
X151225714Y-78726000D01*
X151740000Y-79068857D02*
X151682857Y-79097428D01*
X151568571Y-79097428D01*
X151511428Y-79068857D01*
X151482857Y-79011714D01*
X151482857Y-78783142D01*
X151511428Y-78726000D01*
X151568571Y-78697428D01*
X151682857Y-78697428D01*
X151740000Y-78726000D01*
X151768571Y-78783142D01*
X151768571Y-78840285D01*
X151482857Y-78897428D01*
X152025714Y-78697428D02*
X152025714Y-79097428D01*
X152025714Y-78754571D02*
X152054285Y-78726000D01*
X152111428Y-78697428D01*
X152197142Y-78697428D01*
X152254285Y-78726000D01*
X152282857Y-78783142D01*
X152282857Y-79097428D01*
X152997142Y-78554571D02*
X153025714Y-78526000D01*
X153082857Y-78497428D01*
X153225714Y-78497428D01*
X153282857Y-78526000D01*
X153311428Y-78554571D01*
X153340000Y-78611714D01*
X153340000Y-78668857D01*
X153311428Y-78754571D01*
X152968571Y-79097428D01*
X153340000Y-79097428D01*
X154025714Y-78468857D02*
X153511428Y-79240285D01*
X154197142Y-78554571D02*
X154225714Y-78526000D01*
X154282857Y-78497428D01*
X154425714Y-78497428D01*
X154482857Y-78526000D01*
X154511428Y-78554571D01*
X154540000Y-78611714D01*
X154540000Y-78668857D01*
X154511428Y-78754571D01*
X154168571Y-79097428D01*
X154540000Y-79097428D01*
X154768571Y-78554571D02*
X154797142Y-78526000D01*
X154854285Y-78497428D01*
X154997142Y-78497428D01*
X155054285Y-78526000D01*
X155082857Y-78554571D01*
X155111428Y-78611714D01*
X155111428Y-78668857D01*
X155082857Y-78754571D01*
X154740000Y-79097428D01*
X155111428Y-79097428D01*
%TO.C,G\u002A\u002A\u002A*%
G36*
X149512833Y-73930404D02*
G01*
X149512188Y-73903708D01*
X149511607Y-73871870D01*
X149511083Y-73834356D01*
X149510611Y-73790634D01*
X149510185Y-73740170D01*
X149509799Y-73682430D01*
X149509447Y-73616882D01*
X149509123Y-73542992D01*
X149508822Y-73460227D01*
X149508537Y-73368054D01*
X149508263Y-73265939D01*
X149507994Y-73153349D01*
X149507724Y-73029752D01*
X149507487Y-72914004D01*
X149507211Y-72760884D01*
X149507026Y-72619652D01*
X149506930Y-72490199D01*
X149506925Y-72372412D01*
X149507011Y-72266181D01*
X149507188Y-72171394D01*
X149507457Y-72087940D01*
X149507818Y-72015707D01*
X149508272Y-71954584D01*
X149508819Y-71904460D01*
X149509459Y-71865224D01*
X149510193Y-71836764D01*
X149511021Y-71818968D01*
X149511636Y-71812917D01*
X149516969Y-71782510D01*
X149520703Y-71761625D01*
X149523280Y-71747962D01*
X149525142Y-71739216D01*
X149526731Y-71733085D01*
X149527376Y-71730890D01*
X149530945Y-71716784D01*
X149533003Y-71706888D01*
X149537000Y-71692826D01*
X149544496Y-71672447D01*
X149554405Y-71648157D01*
X149565640Y-71622364D01*
X149577115Y-71597474D01*
X149587743Y-71575893D01*
X149596438Y-71560027D01*
X149602114Y-71552283D01*
X149602976Y-71551897D01*
X149607674Y-71547224D01*
X149607895Y-71545260D01*
X149611849Y-71535119D01*
X149621648Y-71521182D01*
X149634195Y-71506971D01*
X149646395Y-71496005D01*
X149654903Y-71491800D01*
X149660896Y-71490333D01*
X149657597Y-71487069D01*
X149657918Y-71480955D01*
X149665773Y-71468837D01*
X149679499Y-71452416D01*
X149697435Y-71433397D01*
X149717916Y-71413482D01*
X149739279Y-71394374D01*
X149759862Y-71377778D01*
X149772548Y-71368882D01*
X150483964Y-71368882D01*
X150486964Y-71371883D01*
X150489964Y-71368882D01*
X150486964Y-71365882D01*
X150483964Y-71368882D01*
X149772548Y-71368882D01*
X149773948Y-71367900D01*
X149788265Y-71357995D01*
X149798838Y-71349459D01*
X149808533Y-71342933D01*
X149812582Y-71341880D01*
X149820983Y-71338590D01*
X149833677Y-71330570D01*
X149835018Y-71329592D01*
X149850402Y-71320719D01*
X149864488Y-71316339D01*
X149864777Y-71316314D01*
X149875148Y-71313894D01*
X149877916Y-71311097D01*
X149882892Y-71307260D01*
X149895192Y-71301007D01*
X149910879Y-71294061D01*
X149926012Y-71288146D01*
X149936653Y-71284987D01*
X149937921Y-71284836D01*
X149945220Y-71282069D01*
X149946922Y-71281113D01*
X149957830Y-71276889D01*
X149976093Y-71271865D01*
X149997234Y-71267247D01*
X150000926Y-71266565D01*
X150015734Y-71263693D01*
X150030928Y-71260521D01*
X150043885Y-71258813D01*
X150064397Y-71257334D01*
X150089940Y-71256132D01*
X150117991Y-71255257D01*
X150146026Y-71254759D01*
X150171521Y-71254686D01*
X150191955Y-71255087D01*
X150204802Y-71256012D01*
X150207942Y-71257068D01*
X150213186Y-71259493D01*
X150225960Y-71260297D01*
X150227443Y-71260262D01*
X150247878Y-71261550D01*
X150264947Y-71264907D01*
X150284215Y-71269712D01*
X150303950Y-71273591D01*
X150319762Y-71277133D01*
X150330357Y-71281210D01*
X150330952Y-71281620D01*
X150340921Y-71286352D01*
X150353613Y-71290203D01*
X150370486Y-71295486D01*
X150390193Y-71303431D01*
X150409581Y-71312512D01*
X150425496Y-71321202D01*
X150434782Y-71327976D01*
X150435960Y-71330055D01*
X150439369Y-71334771D01*
X150440460Y-71334646D01*
X150450627Y-71336791D01*
X150467717Y-71345616D01*
X150489769Y-71359733D01*
X150514827Y-71377753D01*
X150540929Y-71398285D01*
X150566117Y-71419941D01*
X150582546Y-71435408D01*
X150633785Y-71493753D01*
X150678458Y-71560462D01*
X150715462Y-71633215D01*
X150743694Y-71709691D01*
X150762052Y-71787569D01*
X150766895Y-71823402D01*
X150767702Y-71837692D01*
X150768425Y-71863748D01*
X150769062Y-71901335D01*
X150769614Y-71950220D01*
X150770080Y-72010168D01*
X150770458Y-72080945D01*
X150770748Y-72162316D01*
X150770950Y-72254047D01*
X150771062Y-72355904D01*
X150771084Y-72467652D01*
X150771015Y-72589056D01*
X150770854Y-72719883D01*
X150770600Y-72859897D01*
X150770459Y-72924489D01*
X150770149Y-73056350D01*
X150769850Y-73176755D01*
X150769554Y-73286248D01*
X150769256Y-73385374D01*
X150768949Y-73474678D01*
X150768626Y-73554705D01*
X150768282Y-73625998D01*
X150767910Y-73689104D01*
X150767503Y-73744566D01*
X150767055Y-73792928D01*
X150766560Y-73834737D01*
X150766011Y-73870536D01*
X150765402Y-73900870D01*
X150764727Y-73926284D01*
X150763979Y-73947323D01*
X150763151Y-73964530D01*
X150762238Y-73978452D01*
X150761233Y-73989632D01*
X150760130Y-73998615D01*
X150758922Y-74005945D01*
X150757709Y-74011711D01*
X150734356Y-74093771D01*
X150703952Y-74167327D01*
X150665472Y-74234252D01*
X150617896Y-74296420D01*
X150580548Y-74336217D01*
X150518008Y-74391267D01*
X150451509Y-74435904D01*
X150379281Y-74471122D01*
X150299552Y-74497917D01*
X150286534Y-74501349D01*
X150261454Y-74507300D01*
X150238850Y-74511395D01*
X150215443Y-74513944D01*
X150187950Y-74515258D01*
X150153089Y-74515647D01*
X150135936Y-74515612D01*
X150096545Y-74515139D01*
X150065853Y-74513894D01*
X150040569Y-74511544D01*
X150017401Y-74507755D01*
X149993055Y-74502196D01*
X149986404Y-74500491D01*
X149913143Y-74477784D01*
X149848193Y-74449378D01*
X149788571Y-74413627D01*
X149731290Y-74368885D01*
X149705788Y-74345668D01*
X149653358Y-74290668D01*
X149609800Y-74232831D01*
X149573925Y-74170066D01*
X149544542Y-74100277D01*
X149520463Y-74021372D01*
X149519617Y-74018091D01*
X149518364Y-74012459D01*
X149517215Y-74005417D01*
X149516165Y-73996432D01*
X149515208Y-73984972D01*
X149514337Y-73970503D01*
X149513811Y-73958485D01*
X149955922Y-73958485D01*
X149970386Y-73987029D01*
X149995753Y-74024203D01*
X150030764Y-74055846D01*
X150073806Y-74080597D01*
X150087933Y-74086433D01*
X150102073Y-74088708D01*
X150124182Y-74089004D01*
X150150449Y-74087631D01*
X150177062Y-74084901D01*
X150200209Y-74081123D01*
X150216080Y-74076608D01*
X150217645Y-74075861D01*
X150247992Y-74055451D01*
X150276450Y-74028459D01*
X150299106Y-73998871D01*
X150306617Y-73985243D01*
X150321951Y-73952829D01*
X150321951Y-72893599D01*
X150321949Y-72761386D01*
X150321940Y-72640637D01*
X150321916Y-72530813D01*
X150321874Y-72431378D01*
X150321805Y-72341793D01*
X150321706Y-72261522D01*
X150321569Y-72190027D01*
X150321388Y-72126769D01*
X150321159Y-72071213D01*
X150320874Y-72022819D01*
X150320528Y-71981051D01*
X150320116Y-71945371D01*
X150319630Y-71915242D01*
X150319065Y-71890126D01*
X150318415Y-71869485D01*
X150317675Y-71852782D01*
X150316838Y-71839479D01*
X150315898Y-71829039D01*
X150314850Y-71820925D01*
X150313687Y-71814598D01*
X150312404Y-71809522D01*
X150310995Y-71805158D01*
X150309902Y-71802166D01*
X150288246Y-71760901D01*
X150257076Y-71726752D01*
X150225096Y-71704718D01*
X150208101Y-71695976D01*
X150193191Y-71690667D01*
X150176333Y-71687961D01*
X150153493Y-71687026D01*
X150138937Y-71686963D01*
X150110984Y-71687476D01*
X150090969Y-71689460D01*
X150074849Y-71693682D01*
X150058581Y-71700911D01*
X150054549Y-71702998D01*
X150020034Y-71726770D01*
X149990280Y-71758021D01*
X149968767Y-71793037D01*
X149967503Y-71795895D01*
X149966063Y-71799498D01*
X149964747Y-71803639D01*
X149963550Y-71808852D01*
X149962467Y-71815669D01*
X149961491Y-71824622D01*
X149960617Y-71836245D01*
X149959840Y-71851069D01*
X149959153Y-71869628D01*
X149958552Y-71892454D01*
X149958030Y-71920079D01*
X149957582Y-71953035D01*
X149957203Y-71991857D01*
X149956886Y-72037075D01*
X149956626Y-72089223D01*
X149956417Y-72148832D01*
X149956254Y-72216437D01*
X149956132Y-72292569D01*
X149956044Y-72377760D01*
X149955984Y-72472544D01*
X149955948Y-72577452D01*
X149955929Y-72693018D01*
X149955923Y-72819773D01*
X149955922Y-72890699D01*
X149955922Y-73958485D01*
X149513811Y-73958485D01*
X149513548Y-73952491D01*
X149512833Y-73930404D01*
G37*
G36*
X151890219Y-71256765D02*
G01*
X151976414Y-71271443D01*
X152057453Y-71296956D01*
X152133288Y-71333282D01*
X152203870Y-71380394D01*
X152269150Y-71438269D01*
X152283033Y-71452698D01*
X152331075Y-71510038D01*
X152370491Y-71570807D01*
X152402667Y-71637508D01*
X152428986Y-71712644D01*
X152431394Y-71720872D01*
X152452229Y-71793259D01*
X152449119Y-72394963D01*
X152011084Y-72394963D01*
X152008084Y-72106941D01*
X152005084Y-71818918D01*
X151988342Y-71784826D01*
X151964584Y-71747840D01*
X151932543Y-71717981D01*
X151904409Y-71700462D01*
X151879627Y-71691768D01*
X151847772Y-71686902D01*
X151812976Y-71685882D01*
X151779373Y-71688723D01*
X151751094Y-71695443D01*
X151741063Y-71699813D01*
X151705489Y-71724862D01*
X151674338Y-71758360D01*
X151655467Y-71787791D01*
X151639055Y-71818918D01*
X151639055Y-73955086D01*
X151655038Y-73985088D01*
X151680526Y-74021735D01*
X151714804Y-74054315D01*
X151741063Y-74072240D01*
X151766020Y-74081808D01*
X151798130Y-74086950D01*
X151833376Y-74087633D01*
X151867744Y-74083824D01*
X151897218Y-74075492D01*
X151901633Y-74073537D01*
X151934902Y-74052497D01*
X151964944Y-74023850D01*
X151987896Y-73991460D01*
X151992188Y-73982983D01*
X151994888Y-73976860D01*
X151997193Y-73970436D01*
X151999144Y-73962736D01*
X152000781Y-73952785D01*
X152002144Y-73939608D01*
X152003275Y-73922231D01*
X152004214Y-73899677D01*
X152005001Y-73870973D01*
X152005677Y-73835144D01*
X152006283Y-73791214D01*
X152006859Y-73738208D01*
X152007446Y-73675151D01*
X152008084Y-73601070D01*
X152008084Y-73601058D01*
X152011084Y-73247030D01*
X152449119Y-73247030D01*
X152450985Y-73595058D01*
X152451342Y-73681361D01*
X152451421Y-73756103D01*
X152451217Y-73819721D01*
X152450723Y-73872650D01*
X152449934Y-73915329D01*
X152448844Y-73948194D01*
X152447448Y-73971681D01*
X152445937Y-73985088D01*
X152426078Y-74070369D01*
X152395806Y-74150497D01*
X152355815Y-74224747D01*
X152306797Y-74292395D01*
X152249443Y-74352715D01*
X152184448Y-74404982D01*
X152112503Y-74448471D01*
X152034301Y-74482456D01*
X151950534Y-74506213D01*
X151947699Y-74506811D01*
X151926533Y-74509919D01*
X151897392Y-74512440D01*
X151863230Y-74514305D01*
X151826997Y-74515444D01*
X151791646Y-74515788D01*
X151760129Y-74515269D01*
X151735397Y-74513817D01*
X151723061Y-74512070D01*
X151647685Y-74492733D01*
X151581705Y-74469866D01*
X151522740Y-74442252D01*
X151468410Y-74408675D01*
X151416335Y-74367921D01*
X151385066Y-74339406D01*
X151328459Y-74277430D01*
X151281192Y-74209230D01*
X151244179Y-74136254D01*
X151225954Y-74086634D01*
X151222172Y-74074819D01*
X151218710Y-74064162D01*
X151215555Y-74054115D01*
X151212693Y-74044127D01*
X151210108Y-74033647D01*
X151207787Y-74022126D01*
X151205716Y-74009015D01*
X151203880Y-73993762D01*
X151202266Y-73975819D01*
X151200859Y-73954635D01*
X151199646Y-73929661D01*
X151198611Y-73900345D01*
X151197742Y-73866139D01*
X151197023Y-73826493D01*
X151196441Y-73780856D01*
X151195981Y-73728679D01*
X151195629Y-73669411D01*
X151195372Y-73602504D01*
X151195195Y-73527406D01*
X151195084Y-73443568D01*
X151195024Y-73350440D01*
X151195002Y-73247471D01*
X151195003Y-73134113D01*
X151195014Y-73009815D01*
X151195020Y-72884002D01*
X151195020Y-71794916D01*
X151208760Y-71741878D01*
X151235153Y-71658311D01*
X151269257Y-71583055D01*
X151311990Y-71514739D01*
X151364269Y-71451993D01*
X151427011Y-71393446D01*
X151459041Y-71368000D01*
X151520210Y-71328666D01*
X151588980Y-71297027D01*
X151663333Y-71273602D01*
X151741247Y-71258913D01*
X151820703Y-71253482D01*
X151890219Y-71256765D01*
G37*
G36*
X150126324Y-75142468D02*
G01*
X150107825Y-75136678D01*
X150087933Y-75131179D01*
X150066272Y-75125159D01*
X150048247Y-75119446D01*
X150038510Y-75115614D01*
X150023301Y-75110859D01*
X150016291Y-75110177D01*
X150001211Y-75107904D01*
X149990707Y-75104583D01*
X149977518Y-75099962D01*
X149957654Y-75093794D01*
X149940921Y-75088966D01*
X149919013Y-75082785D01*
X149899715Y-75077200D01*
X149889917Y-75074254D01*
X149874720Y-75069724D01*
X149854746Y-75064029D01*
X149847914Y-75062133D01*
X149823760Y-75055461D01*
X149798485Y-75048447D01*
X149793909Y-75047172D01*
X149769757Y-75040464D01*
X149744482Y-75033482D01*
X149739905Y-75032223D01*
X149720758Y-75026641D01*
X149704833Y-75021461D01*
X149700902Y-75019998D01*
X149687741Y-75015571D01*
X149669041Y-75010194D01*
X149661899Y-75008321D01*
X149640848Y-75002842D01*
X149621395Y-74997588D01*
X149616896Y-74996328D01*
X149586672Y-74987757D01*
X149556151Y-74979146D01*
X149529107Y-74971557D01*
X149509315Y-74966051D01*
X149507387Y-74965521D01*
X149487700Y-74960039D01*
X149466533Y-74954042D01*
X149465384Y-74953713D01*
X149444907Y-74948061D01*
X149421397Y-74941868D01*
X149414876Y-74940208D01*
X149397464Y-74935169D01*
X149385194Y-74930422D01*
X149382373Y-74928659D01*
X149373354Y-74925108D01*
X149363794Y-74924162D01*
X149347827Y-74921880D01*
X149339292Y-74918814D01*
X149319861Y-74911089D01*
X149293890Y-74903548D01*
X149266723Y-74897505D01*
X149243703Y-74894269D01*
X149238338Y-74894042D01*
X149211086Y-74892057D01*
X149176980Y-74886886D01*
X149139710Y-74879362D01*
X149102966Y-74870320D01*
X149070439Y-74860593D01*
X149045817Y-74851014D01*
X149043984Y-74850122D01*
X149028829Y-74844681D01*
X149017039Y-74843962D01*
X149016295Y-74844199D01*
X149009493Y-74843931D01*
X149009102Y-74840784D01*
X149005391Y-74834054D01*
X148993992Y-74824888D01*
X148986869Y-74820547D01*
X148970430Y-74810714D01*
X148957730Y-74801986D01*
X148954937Y-74799653D01*
X148946165Y-74793235D01*
X148942914Y-74792149D01*
X148936603Y-74788074D01*
X148923925Y-74777070D01*
X148906721Y-74760958D01*
X148886834Y-74741562D01*
X148866107Y-74720703D01*
X148846383Y-74700205D01*
X148829504Y-74681891D01*
X148818560Y-74669142D01*
X148776070Y-74609411D01*
X148741146Y-74544061D01*
X148712810Y-74471077D01*
X148697981Y-74420577D01*
X148697065Y-74415767D01*
X148696215Y-74408289D01*
X148695430Y-74397718D01*
X148694706Y-74383632D01*
X148694043Y-74365607D01*
X148693436Y-74343220D01*
X148692885Y-74316046D01*
X148692387Y-74283662D01*
X148691939Y-74245645D01*
X148691540Y-74201571D01*
X148691187Y-74151017D01*
X148690877Y-74093558D01*
X148690609Y-74028771D01*
X148690381Y-73956234D01*
X148690189Y-73875521D01*
X148690032Y-73786210D01*
X148689908Y-73687876D01*
X148689814Y-73580097D01*
X148689748Y-73462449D01*
X148689707Y-73334508D01*
X148689695Y-73238181D01*
X148955711Y-73238181D01*
X148955719Y-73367222D01*
X148955781Y-73489100D01*
X148955896Y-73603423D01*
X148956063Y-73709800D01*
X148956281Y-73807839D01*
X148956549Y-73897148D01*
X148956866Y-73977336D01*
X148957230Y-74048011D01*
X148957642Y-74108781D01*
X148958098Y-74159254D01*
X148958600Y-74199039D01*
X148959145Y-74227744D01*
X148959732Y-74244978D01*
X148959948Y-74248237D01*
X148963327Y-74280301D01*
X148967757Y-74312891D01*
X148972535Y-74341125D01*
X148975107Y-74353245D01*
X148994006Y-74414879D01*
X149019487Y-74470482D01*
X149050656Y-74518744D01*
X149086623Y-74558355D01*
X149126496Y-74588006D01*
X149139858Y-74595140D01*
X149158591Y-74603952D01*
X149174473Y-74610373D01*
X149190587Y-74615202D01*
X149210012Y-74619235D01*
X149235829Y-74623272D01*
X149262868Y-74627000D01*
X149291013Y-74631135D01*
X149316978Y-74635552D01*
X149336933Y-74639574D01*
X149343874Y-74641346D01*
X149362063Y-74646574D01*
X149385159Y-74652961D01*
X149397878Y-74656386D01*
X149419249Y-74662227D01*
X149447086Y-74670047D01*
X149476345Y-74678425D01*
X149484885Y-74680904D01*
X149520816Y-74691373D01*
X149550327Y-74699963D01*
X149576261Y-74707497D01*
X149601458Y-74714797D01*
X149628759Y-74722687D01*
X149661005Y-74731989D01*
X149701036Y-74743526D01*
X149715903Y-74747810D01*
X149758954Y-74760208D01*
X149792479Y-74769842D01*
X149818479Y-74777283D01*
X149838959Y-74783096D01*
X149855920Y-74787851D01*
X149871366Y-74792116D01*
X149887299Y-74796459D01*
X149889917Y-74797169D01*
X149914950Y-74804064D01*
X149946540Y-74812965D01*
X149986190Y-74824301D01*
X150035400Y-74838499D01*
X150051930Y-74843286D01*
X150081900Y-74851951D01*
X150109209Y-74859805D01*
X150130978Y-74866024D01*
X150144328Y-74869781D01*
X150144937Y-74869948D01*
X150160644Y-74874295D01*
X150182358Y-74880367D01*
X150198941Y-74885034D01*
X150221538Y-74891392D01*
X150242203Y-74897169D01*
X150252946Y-74900146D01*
X150262837Y-74902945D01*
X150282789Y-74908659D01*
X150311334Y-74916866D01*
X150347005Y-74927142D01*
X150388335Y-74939064D01*
X150433855Y-74952211D01*
X150471963Y-74963228D01*
X150521614Y-74977565D01*
X150569864Y-74991455D01*
X150614925Y-75004386D01*
X150655010Y-75015848D01*
X150688333Y-75025329D01*
X150713108Y-75032317D01*
X150723983Y-75035337D01*
X150755143Y-75044023D01*
X150790848Y-75054201D01*
X150824154Y-75063888D01*
X150828991Y-75065318D01*
X150854561Y-75072732D01*
X150877286Y-75079028D01*
X150893642Y-75083241D01*
X150897996Y-75084202D01*
X150914945Y-75088649D01*
X150924999Y-75092318D01*
X150953141Y-75100366D01*
X150984081Y-75100277D01*
X151020814Y-75092044D01*
X151021006Y-75091985D01*
X151035286Y-75087645D01*
X151056882Y-75081075D01*
X151081632Y-75073544D01*
X151087011Y-75071906D01*
X151110824Y-75064729D01*
X151131360Y-75058668D01*
X151145003Y-75054787D01*
X151147016Y-75054256D01*
X151156992Y-75051528D01*
X151176752Y-75045954D01*
X151204556Y-75038036D01*
X151238662Y-75028273D01*
X151277330Y-75017165D01*
X151318819Y-75005213D01*
X151361388Y-74992916D01*
X151403296Y-74980775D01*
X151442802Y-74969290D01*
X151444039Y-74968930D01*
X151474004Y-74960220D01*
X151501309Y-74952324D01*
X151523076Y-74946069D01*
X151536431Y-74942286D01*
X151537047Y-74942116D01*
X151550844Y-74938204D01*
X151572387Y-74931976D01*
X151597911Y-74924520D01*
X151609052Y-74921244D01*
X151635132Y-74913583D01*
X151658829Y-74906662D01*
X151676380Y-74901578D01*
X151681058Y-74900243D01*
X151694858Y-74896274D01*
X151716403Y-74890003D01*
X151741931Y-74882527D01*
X151753064Y-74879254D01*
X151778188Y-74871877D01*
X151799996Y-74865509D01*
X151815170Y-74861118D01*
X151819069Y-74860012D01*
X151829710Y-74856954D01*
X151848794Y-74851383D01*
X151873256Y-74844198D01*
X151891075Y-74838943D01*
X151953445Y-74820766D01*
X152006468Y-74805837D01*
X152035086Y-74798106D01*
X152048266Y-74794440D01*
X152069646Y-74788295D01*
X152095928Y-74780625D01*
X152116092Y-74774677D01*
X152191762Y-74752337D01*
X152261215Y-74732024D01*
X152329699Y-74712208D01*
X152353111Y-74705479D01*
X152380534Y-74697550D01*
X152410487Y-74688804D01*
X152425117Y-74684495D01*
X152452540Y-74676437D01*
X152482494Y-74667718D01*
X152497122Y-74663494D01*
X152524484Y-74655497D01*
X152554383Y-74646566D01*
X152569128Y-74642080D01*
X152595309Y-74635872D01*
X152625748Y-74631272D01*
X152647134Y-74629607D01*
X152708073Y-74623789D01*
X152762184Y-74610161D01*
X152812406Y-74587886D01*
X152830149Y-74577560D01*
X152875104Y-74542777D01*
X152913641Y-74498201D01*
X152945510Y-74444330D01*
X152970466Y-74381664D01*
X152988260Y-74310702D01*
X152998057Y-74238919D01*
X152998777Y-74224606D01*
X152999456Y-74198551D01*
X153000094Y-74161015D01*
X153000690Y-74112257D01*
X153001242Y-74052537D01*
X153001749Y-73982115D01*
X153002210Y-73901250D01*
X153002624Y-73810202D01*
X153002990Y-73709231D01*
X153003306Y-73598596D01*
X153003572Y-73478557D01*
X153003786Y-73349374D01*
X153003947Y-73211307D01*
X153004054Y-73064614D01*
X153004106Y-72909557D01*
X153004111Y-72858735D01*
X153004106Y-72703071D01*
X153004075Y-72558967D01*
X153004012Y-72425982D01*
X153003911Y-72303675D01*
X153003767Y-72191605D01*
X153003573Y-72089330D01*
X153003325Y-71996411D01*
X153003017Y-71912406D01*
X153002642Y-71836874D01*
X153002195Y-71769374D01*
X153001671Y-71709465D01*
X153001063Y-71656706D01*
X153000367Y-71610656D01*
X152999575Y-71570874D01*
X152998683Y-71536920D01*
X152997685Y-71508351D01*
X152996576Y-71484728D01*
X152995348Y-71465609D01*
X152993998Y-71450553D01*
X152992518Y-71439119D01*
X152990904Y-71430866D01*
X152989150Y-71425354D01*
X152987249Y-71422141D01*
X152985511Y-71420887D01*
X152981015Y-71414025D01*
X152980160Y-71407611D01*
X152977285Y-71391188D01*
X152969705Y-71368316D01*
X152958990Y-71342775D01*
X152946708Y-71318345D01*
X152935773Y-71300661D01*
X152924015Y-71283967D01*
X152914495Y-71270214D01*
X152911155Y-71265247D01*
X152901412Y-71253342D01*
X152885801Y-71237296D01*
X152867748Y-71220562D01*
X152861257Y-71214989D01*
X152835902Y-71198092D01*
X152801772Y-71181441D01*
X152762063Y-71166091D01*
X152719974Y-71153097D01*
X152678703Y-71143512D01*
X152641447Y-71138393D01*
X152627337Y-71137827D01*
X152606052Y-71135849D01*
X152586793Y-71130941D01*
X152581943Y-71128827D01*
X152567093Y-71122475D01*
X152555729Y-71119863D01*
X152545523Y-71118145D01*
X152527991Y-71113672D01*
X152509911Y-71108328D01*
X152450247Y-71090018D01*
X152396838Y-71074426D01*
X152351607Y-71062105D01*
X152329109Y-71056491D01*
X152307581Y-71050849D01*
X152290587Y-71045433D01*
X152281619Y-71041363D01*
X152281405Y-71041180D01*
X152271498Y-71037131D01*
X152259904Y-71035856D01*
X152246425Y-71034317D01*
X152239665Y-71031419D01*
X152232177Y-71027859D01*
X152216092Y-71022237D01*
X152194409Y-71015574D01*
X152186161Y-71013215D01*
X152160984Y-71006109D01*
X152138110Y-70999580D01*
X152121665Y-70994806D01*
X152119093Y-70994040D01*
X152087234Y-70984822D01*
X152056135Y-70976439D01*
X152029302Y-70969801D01*
X152010242Y-70965815D01*
X152009584Y-70965706D01*
X151996329Y-70962302D01*
X151990142Y-70958250D01*
X151990082Y-70957875D01*
X151984930Y-70953502D01*
X151973581Y-70950024D01*
X151955929Y-70946096D01*
X151936370Y-70941069D01*
X151936078Y-70940988D01*
X151899145Y-70930680D01*
X151869970Y-70922472D01*
X151844743Y-70915276D01*
X151819652Y-70908003D01*
X151790886Y-70899566D01*
X151786066Y-70898147D01*
X151757421Y-70889754D01*
X151730451Y-70881932D01*
X151708826Y-70875741D01*
X151699060Y-70873007D01*
X151681603Y-70868173D01*
X151668182Y-70864370D01*
X151666057Y-70863748D01*
X151658146Y-70861458D01*
X151657056Y-70861193D01*
X151651742Y-70859648D01*
X151637519Y-70855407D01*
X151616969Y-70849243D01*
X151606052Y-70845958D01*
X151581868Y-70838878D01*
X151561228Y-70833204D01*
X151547450Y-70829835D01*
X151544670Y-70829341D01*
X151533418Y-70826090D01*
X151530168Y-70823962D01*
X151521654Y-70820914D01*
X151509399Y-70819839D01*
X151496083Y-70818113D01*
X151489463Y-70814519D01*
X151481852Y-70809951D01*
X151467504Y-70805726D01*
X151465107Y-70805246D01*
X151451241Y-70801595D01*
X151444233Y-70797693D01*
X151444026Y-70797066D01*
X151438781Y-70793927D01*
X151426136Y-70792198D01*
X151425669Y-70792180D01*
X151402828Y-70788936D01*
X151374110Y-70781373D01*
X151344248Y-70770780D01*
X151339031Y-70768614D01*
X151325195Y-70763785D01*
X151303427Y-70757362D01*
X151277494Y-70750427D01*
X151265525Y-70747443D01*
X151241644Y-70741104D01*
X151222915Y-70735124D01*
X151211886Y-70730373D01*
X151210021Y-70728531D01*
X151207708Y-70724446D01*
X151201632Y-70729636D01*
X151193087Y-70742496D01*
X151183367Y-70761418D01*
X151183146Y-70761898D01*
X151165827Y-70790906D01*
X151142119Y-70818957D01*
X151115390Y-70842616D01*
X151089005Y-70858451D01*
X151088158Y-70858809D01*
X151069234Y-70866851D01*
X151052717Y-70874133D01*
X151049069Y-70875811D01*
X151036690Y-70878772D01*
X151016452Y-70880717D01*
X150991432Y-70881670D01*
X150964707Y-70881658D01*
X150939353Y-70880706D01*
X150918447Y-70878841D01*
X150905066Y-70876087D01*
X150902336Y-70874583D01*
X150891264Y-70869155D01*
X150881795Y-70867843D01*
X150871102Y-70865866D01*
X150867994Y-70862493D01*
X150862933Y-70857115D01*
X150853985Y-70853627D01*
X150840251Y-70846390D01*
X150822434Y-70831917D01*
X150803161Y-70812926D01*
X150785058Y-70792130D01*
X150770751Y-70772244D01*
X150764948Y-70761583D01*
X150757109Y-70745763D01*
X150750432Y-70735122D01*
X150748458Y-70733125D01*
X150740470Y-70733184D01*
X150724672Y-70736477D01*
X150705844Y-70741877D01*
X150685043Y-70748086D01*
X150667955Y-70752409D01*
X150659095Y-70753834D01*
X150648561Y-70755674D01*
X150631109Y-70760422D01*
X150616374Y-70765110D01*
X150582404Y-70775959D01*
X150540604Y-70788152D01*
X150489054Y-70802250D01*
X150486964Y-70802808D01*
X150468487Y-70808101D01*
X150453240Y-70813075D01*
X150450961Y-70813931D01*
X150439498Y-70817459D01*
X150420126Y-70822479D01*
X150396677Y-70828008D01*
X150392364Y-70828972D01*
X150370084Y-70834441D01*
X150352692Y-70839718D01*
X150343253Y-70843842D01*
X150342506Y-70844564D01*
X150334563Y-70848756D01*
X150325666Y-70849842D01*
X150311610Y-70851617D01*
X150292565Y-70856072D01*
X150285517Y-70858139D01*
X150261637Y-70865323D01*
X150236500Y-70872501D01*
X150231944Y-70873748D01*
X150210186Y-70880062D01*
X150184638Y-70888055D01*
X150171323Y-70892453D01*
X150151446Y-70898657D01*
X150135179Y-70902795D01*
X150128029Y-70903846D01*
X150116549Y-70905590D01*
X150099320Y-70909964D01*
X150092643Y-70911981D01*
X150080042Y-70915918D01*
X150067477Y-70919685D01*
X150052431Y-70923996D01*
X150032389Y-70929564D01*
X150004832Y-70937101D01*
X149982924Y-70943062D01*
X149962007Y-70949165D01*
X149944712Y-70954949D01*
X149936502Y-70958349D01*
X149922140Y-70962770D01*
X149911354Y-70963851D01*
X149898829Y-70965751D01*
X149893404Y-70969063D01*
X149885960Y-70973131D01*
X149871113Y-70977130D01*
X149864548Y-70978317D01*
X149847918Y-70981731D01*
X149823572Y-70987702D01*
X149795269Y-70995279D01*
X149775908Y-71000795D01*
X149744809Y-71009872D01*
X149721093Y-71016702D01*
X149700633Y-71022432D01*
X149679300Y-71028209D01*
X149652968Y-71035179D01*
X149637897Y-71039140D01*
X149617134Y-71045015D01*
X149600863Y-71050397D01*
X149592894Y-71053963D01*
X149583624Y-71057530D01*
X149567415Y-71061075D01*
X149560201Y-71062193D01*
X149542616Y-71065685D01*
X149530003Y-71070150D01*
X149527499Y-71071849D01*
X149516719Y-71077047D01*
X149510315Y-71077860D01*
X149498369Y-71079538D01*
X149480048Y-71083829D01*
X149468011Y-71087219D01*
X149444663Y-71094047D01*
X149421454Y-71100539D01*
X149412879Y-71102829D01*
X149393596Y-71108331D01*
X149369415Y-71115865D01*
X149353120Y-71121251D01*
X149330024Y-71127326D01*
X149299608Y-71132849D01*
X149266549Y-71137025D01*
X149254005Y-71138112D01*
X149191066Y-71147029D01*
X149136984Y-71163852D01*
X149091516Y-71188665D01*
X149079981Y-71197307D01*
X149064681Y-71208747D01*
X149053001Y-71215955D01*
X149048479Y-71217371D01*
X149043994Y-71220286D01*
X149043850Y-71221668D01*
X149040790Y-71229228D01*
X149032719Y-71243778D01*
X149021305Y-71262337D01*
X149019849Y-71264602D01*
X149008126Y-71283655D01*
X148999578Y-71299298D01*
X148995884Y-71308426D01*
X148995847Y-71308886D01*
X148993330Y-71318827D01*
X148987214Y-71333325D01*
X148986632Y-71334506D01*
X148980692Y-71349688D01*
X148973900Y-71371900D01*
X148967705Y-71396394D01*
X148967584Y-71396933D01*
X148966491Y-71402572D01*
X148965479Y-71409657D01*
X148964544Y-71418654D01*
X148963682Y-71430031D01*
X148962890Y-71444255D01*
X148962163Y-71461793D01*
X148961498Y-71483111D01*
X148960890Y-71508679D01*
X148960337Y-71538961D01*
X148959835Y-71574426D01*
X148959379Y-71615540D01*
X148958965Y-71662771D01*
X148958590Y-71716585D01*
X148958251Y-71777451D01*
X148957942Y-71845834D01*
X148957661Y-71922202D01*
X148957404Y-72007023D01*
X148957167Y-72100762D01*
X148956945Y-72203888D01*
X148956736Y-72316868D01*
X148956535Y-72440168D01*
X148956338Y-72574255D01*
X148956142Y-72719598D01*
X148956024Y-72811996D01*
X148955863Y-72960176D01*
X148955759Y-73102368D01*
X148955711Y-73238181D01*
X148689695Y-73238181D01*
X148689690Y-73195850D01*
X148689693Y-73046053D01*
X148689716Y-72884692D01*
X148689717Y-72879252D01*
X148689769Y-72704021D01*
X148689855Y-72540564D01*
X148689976Y-72388657D01*
X148690134Y-72248072D01*
X148690330Y-72118583D01*
X148690564Y-71999966D01*
X148690838Y-71891993D01*
X148691153Y-71794438D01*
X148691510Y-71707076D01*
X148691909Y-71629680D01*
X148692351Y-71562025D01*
X148692839Y-71503884D01*
X148693372Y-71455031D01*
X148693952Y-71415241D01*
X148694579Y-71384286D01*
X148695256Y-71361942D01*
X148695982Y-71347982D01*
X148696604Y-71342677D01*
X148720080Y-71267274D01*
X148753476Y-71194754D01*
X148795625Y-71126609D01*
X148845357Y-71064332D01*
X148901506Y-71009415D01*
X148962903Y-70963352D01*
X149017353Y-70932748D01*
X149057567Y-70914581D01*
X149093526Y-70901308D01*
X149129329Y-70891835D01*
X149169076Y-70885069D01*
X149214864Y-70880096D01*
X149241962Y-70877167D01*
X149267000Y-70873592D01*
X149285735Y-70870005D01*
X149289870Y-70868908D01*
X149309506Y-70863273D01*
X149332232Y-70857145D01*
X149337874Y-70855690D01*
X149357067Y-70850463D01*
X149373007Y-70845547D01*
X149376877Y-70844160D01*
X149410323Y-70832971D01*
X149445238Y-70824120D01*
X149453383Y-70822534D01*
X149467813Y-70818701D01*
X149475497Y-70814225D01*
X149475884Y-70813171D01*
X149481015Y-70809133D01*
X149490603Y-70807838D01*
X149508535Y-70805534D01*
X149519106Y-70802443D01*
X149532032Y-70798119D01*
X149551991Y-70792225D01*
X149571892Y-70786779D01*
X149593864Y-70780700D01*
X149612526Y-70775018D01*
X149622896Y-70771330D01*
X149633351Y-70767659D01*
X149652493Y-70761678D01*
X149677439Y-70754267D01*
X149700902Y-70747541D01*
X149760744Y-70730577D01*
X149809667Y-70716499D01*
X149848351Y-70705108D01*
X149877474Y-70696206D01*
X149889917Y-70692216D01*
X149904296Y-70687765D01*
X149927850Y-70680786D01*
X149958191Y-70671973D01*
X149992935Y-70662019D01*
X150027928Y-70652115D01*
X150063203Y-70642060D01*
X150094966Y-70632759D01*
X150121220Y-70624816D01*
X150139971Y-70618836D01*
X150149223Y-70615423D01*
X150149356Y-70615354D01*
X150161701Y-70610638D01*
X150167003Y-70609823D01*
X150175679Y-70608127D01*
X150192616Y-70603665D01*
X150214657Y-70597376D01*
X150238648Y-70590199D01*
X150261434Y-70583073D01*
X150279859Y-70576936D01*
X150288948Y-70573535D01*
X150303203Y-70568887D01*
X150321190Y-70564538D01*
X150321951Y-70564387D01*
X150337388Y-70560604D01*
X150360050Y-70554160D01*
X150385797Y-70546250D01*
X150393957Y-70543622D01*
X150423217Y-70534396D01*
X150453979Y-70525202D01*
X150480319Y-70517801D01*
X150483964Y-70516839D01*
X150505938Y-70510870D01*
X150524602Y-70505360D01*
X150534968Y-70501849D01*
X150545671Y-70498277D01*
X150564873Y-70492538D01*
X150589472Y-70485542D01*
X150606974Y-70480728D01*
X150633423Y-70473409D01*
X150656501Y-70466763D01*
X150673107Y-70461696D01*
X150678979Y-70459673D01*
X150708972Y-70449003D01*
X150728628Y-70444130D01*
X150740751Y-70441161D01*
X150760463Y-70435666D01*
X150783909Y-70428729D01*
X150788633Y-70427286D01*
X150816857Y-70418703D01*
X150846393Y-70409851D01*
X150870874Y-70402640D01*
X150870994Y-70402605D01*
X150897867Y-70394659D01*
X150926718Y-70385905D01*
X150940974Y-70381480D01*
X150960747Y-70375702D01*
X150974656Y-70373817D01*
X150988204Y-70375860D01*
X151006889Y-70381867D01*
X151006979Y-70381898D01*
X151027457Y-70388633D01*
X151054793Y-70397143D01*
X151084288Y-70405976D01*
X151096012Y-70409383D01*
X151127242Y-70418506D01*
X151160402Y-70428427D01*
X151189681Y-70437402D01*
X151197286Y-70439790D01*
X151219543Y-70446514D01*
X151237926Y-70451478D01*
X151248971Y-70453756D01*
X151249871Y-70453810D01*
X151262118Y-70456474D01*
X151268607Y-70459249D01*
X151280688Y-70464051D01*
X151298686Y-70469665D01*
X151306029Y-70471653D01*
X151316115Y-70474305D01*
X151327402Y-70477404D01*
X151341368Y-70481386D01*
X151359489Y-70486685D01*
X151383242Y-70493738D01*
X151414105Y-70502980D01*
X151453553Y-70514847D01*
X151501044Y-70529164D01*
X151532399Y-70538561D01*
X151563054Y-70547642D01*
X151589292Y-70555311D01*
X151606052Y-70560101D01*
X151626587Y-70566062D01*
X151643876Y-70571472D01*
X151651056Y-70573984D01*
X151661490Y-70577488D01*
X151680591Y-70583415D01*
X151705490Y-70590890D01*
X151729062Y-70597803D01*
X151762433Y-70607499D01*
X151798104Y-70617884D01*
X151830711Y-70627396D01*
X151846071Y-70631887D01*
X151871576Y-70639327D01*
X151894755Y-70646040D01*
X151911646Y-70650882D01*
X151915077Y-70651849D01*
X151962000Y-70665087D01*
X151997502Y-70675382D01*
X152021780Y-70682795D01*
X152035035Y-70687383D01*
X152035086Y-70687404D01*
X152047203Y-70691652D01*
X152066248Y-70697589D01*
X152083090Y-70702498D01*
X152126466Y-70714876D01*
X152172050Y-70728163D01*
X152223160Y-70743335D01*
X152269104Y-70757136D01*
X152318785Y-70772113D01*
X152358944Y-70784206D01*
X152391548Y-70794003D01*
X152418563Y-70802092D01*
X152441954Y-70809060D01*
X152463689Y-70815496D01*
X152485734Y-70821986D01*
X152500123Y-70826209D01*
X152533179Y-70835959D01*
X152568804Y-70846557D01*
X152601314Y-70856310D01*
X152614132Y-70860189D01*
X152643380Y-70868187D01*
X152674132Y-70875175D01*
X152700469Y-70879829D01*
X152704139Y-70880300D01*
X152780891Y-70892237D01*
X152849181Y-70909324D01*
X152911784Y-70932493D01*
X152971475Y-70962679D01*
X152999619Y-70979751D01*
X153031851Y-71003270D01*
X153067600Y-71034271D01*
X153104139Y-71069989D01*
X153138740Y-71107656D01*
X153168676Y-71144507D01*
X153185092Y-71167867D01*
X153213905Y-71214774D01*
X153235441Y-71255953D01*
X153250837Y-71294230D01*
X153261234Y-71332430D01*
X153267688Y-71372654D01*
X153268466Y-71383884D01*
X153269180Y-71403812D01*
X153269830Y-71432642D01*
X153270417Y-71470582D01*
X153270942Y-71517835D01*
X153271406Y-71574608D01*
X153271808Y-71641105D01*
X153272151Y-71717532D01*
X153272433Y-71804094D01*
X153272657Y-71900997D01*
X153272823Y-72008445D01*
X153272931Y-72126644D01*
X153272982Y-72255800D01*
X153272976Y-72396117D01*
X153272915Y-72547801D01*
X153272799Y-72711057D01*
X153272629Y-72886091D01*
X153272612Y-72902003D01*
X153270979Y-74375119D01*
X153258222Y-74420123D01*
X153250508Y-74446983D01*
X153244411Y-74466611D01*
X153238353Y-74483345D01*
X153230758Y-74501520D01*
X153220047Y-74525475D01*
X153219335Y-74527050D01*
X153210785Y-74546371D01*
X153204638Y-74561069D01*
X153202181Y-74568063D01*
X153202178Y-74568133D01*
X153198759Y-74575961D01*
X153189547Y-74591049D01*
X153176112Y-74611182D01*
X153160021Y-74634140D01*
X153142845Y-74657708D01*
X153126151Y-74679667D01*
X153111508Y-74697801D01*
X153105806Y-74704345D01*
X153077195Y-74733624D01*
X153044772Y-74763014D01*
X153011945Y-74789640D01*
X152982122Y-74810625D01*
X152974083Y-74815499D01*
X152937620Y-74835391D01*
X152905017Y-74850266D01*
X152870730Y-74862559D01*
X152858133Y-74866455D01*
X152822074Y-74877110D01*
X152794671Y-74884638D01*
X152773154Y-74889574D01*
X152754751Y-74892451D01*
X152736690Y-74893801D01*
X152716198Y-74894158D01*
X152714153Y-74894160D01*
X152687635Y-74895277D01*
X152661998Y-74898205D01*
X152642844Y-74902296D01*
X152619657Y-74909369D01*
X152594907Y-74916549D01*
X152590130Y-74917882D01*
X152571430Y-74923575D01*
X152556378Y-74929070D01*
X152552708Y-74930748D01*
X152537714Y-74935483D01*
X152530895Y-74936163D01*
X152517996Y-74938023D01*
X152498324Y-74942750D01*
X152476369Y-74949064D01*
X152456619Y-74955688D01*
X152444700Y-74960719D01*
X152430337Y-74965096D01*
X152419552Y-74966166D01*
X152407001Y-74968102D01*
X152401543Y-74971474D01*
X152394113Y-74975444D01*
X152379042Y-74979431D01*
X152370304Y-74980974D01*
X152351376Y-74984528D01*
X152336453Y-74988569D01*
X152332728Y-74990083D01*
X152320868Y-74994738D01*
X152303544Y-75000107D01*
X152299107Y-75001312D01*
X152282324Y-75005870D01*
X152258270Y-75012579D01*
X152231201Y-75020247D01*
X152221101Y-75023139D01*
X152192394Y-75031360D01*
X152163555Y-75039577D01*
X152139644Y-75046350D01*
X152134094Y-75047911D01*
X152108735Y-75055115D01*
X152080176Y-75063355D01*
X152065088Y-75067765D01*
X152038528Y-75075427D01*
X152008493Y-75083872D01*
X151990082Y-75088930D01*
X151968136Y-75095116D01*
X151949487Y-75100791D01*
X151939078Y-75104387D01*
X151923345Y-75109547D01*
X151912076Y-75112314D01*
X151891730Y-75116956D01*
X151867875Y-75123166D01*
X151843343Y-75130103D01*
X151820970Y-75136924D01*
X151803589Y-75142787D01*
X151794034Y-75146849D01*
X151793067Y-75147680D01*
X151786246Y-75151170D01*
X151776848Y-75152180D01*
X151759402Y-75154467D01*
X151748846Y-75157576D01*
X151735932Y-75161929D01*
X151715993Y-75167905D01*
X151696059Y-75173467D01*
X151670538Y-75180508D01*
X151644944Y-75187842D01*
X151629440Y-75192474D01*
X151611296Y-75197883D01*
X151597201Y-75201763D01*
X151593437Y-75202647D01*
X151560355Y-75210716D01*
X151519030Y-75223314D01*
X151516045Y-75224297D01*
X151493471Y-75231290D01*
X151471919Y-75237205D01*
X151462147Y-75239484D01*
X151444251Y-75243784D01*
X151421435Y-75250092D01*
X151408143Y-75254091D01*
X151383450Y-75261513D01*
X151354732Y-75269738D01*
X151336031Y-75274873D01*
X151314391Y-75281051D01*
X151296375Y-75286874D01*
X151286608Y-75290755D01*
X151272076Y-75295203D01*
X151262107Y-75296192D01*
X151249240Y-75297938D01*
X151243528Y-75300688D01*
X151235432Y-75304713D01*
X151220018Y-75309803D01*
X151211025Y-75312237D01*
X151188822Y-75318012D01*
X151167428Y-75323857D01*
X151162017Y-75325404D01*
X151123305Y-75336429D01*
X151084405Y-75347097D01*
X151072010Y-75350391D01*
X151054926Y-75353027D01*
X151029083Y-75354781D01*
X150997339Y-75355686D01*
X150962548Y-75355774D01*
X150927569Y-75355080D01*
X150895258Y-75353636D01*
X150868471Y-75351475D01*
X150850065Y-75348631D01*
X150846992Y-75347779D01*
X150824317Y-75340724D01*
X150801064Y-75333991D01*
X150798989Y-75333423D01*
X150778875Y-75327876D01*
X150754489Y-75321032D01*
X150741984Y-75317478D01*
X150718325Y-75310762D01*
X150694980Y-75304208D01*
X150684980Y-75301434D01*
X150666526Y-75296027D01*
X150651285Y-75291028D01*
X150648977Y-75290170D01*
X150637076Y-75286252D01*
X150617918Y-75280642D01*
X150597973Y-75275177D01*
X150575382Y-75269045D01*
X150555479Y-75263393D01*
X150543969Y-75259889D01*
X150527325Y-75255092D01*
X150508179Y-75250448D01*
X150507966Y-75250402D01*
X150492401Y-75247001D01*
X150483613Y-75244827D01*
X150476648Y-75242570D01*
X150471963Y-75240877D01*
X150460908Y-75237355D01*
X150443640Y-75232334D01*
X150435960Y-75230198D01*
X150415909Y-75224483D01*
X150398268Y-75219104D01*
X150393957Y-75217687D01*
X150380881Y-75213697D01*
X150360361Y-75207926D01*
X150336588Y-75201549D01*
X150333952Y-75200861D01*
X150306337Y-75193460D01*
X150277956Y-75185522D01*
X150255946Y-75179062D01*
X150221250Y-75168526D01*
X150196165Y-75161085D01*
X150178854Y-75156237D01*
X150167477Y-75153483D01*
X150160195Y-75152322D01*
X150157229Y-75152180D01*
X150143854Y-75149467D01*
X150143169Y-75149180D01*
X151720061Y-75149180D01*
X151723061Y-75152180D01*
X151726062Y-75149180D01*
X151723061Y-75146180D01*
X151720061Y-75149180D01*
X150143169Y-75149180D01*
X150137355Y-75146744D01*
X150126324Y-75142468D01*
G37*
%TD*%
D11*
%TO.C,R13*%
X103015000Y-65170000D03*
X103015000Y-63520000D03*
%TD*%
D12*
%TO.C,U2*%
X150320000Y-90860000D03*
D13*
X152860000Y-90860000D03*
X155400000Y-90860000D03*
%TD*%
D12*
%TO.C,Q4*%
X125400000Y-118220000D03*
D13*
X122860000Y-118220000D03*
X120320000Y-118220000D03*
%TD*%
D14*
%TO.C,Q12*%
X147440000Y-129775000D03*
D15*
X146170000Y-128505000D03*
X147440000Y-127235000D03*
%TD*%
D16*
%TO.C,R17*%
X114916637Y-130916637D03*
X116083363Y-132083363D03*
%TD*%
D17*
%TO.C,R4*%
X145210000Y-85845000D03*
X145210000Y-87495000D03*
%TD*%
D18*
%TO.C,R27*%
X147005000Y-132045000D03*
X145355000Y-132045000D03*
%TD*%
D19*
%TO.C,SW1*%
X140190000Y-86995000D03*
D20*
X140190000Y-89535000D03*
%TD*%
D21*
%TO.C,U1*%
X127225000Y-80965000D03*
D22*
X129765000Y-80965000D03*
X132305000Y-80965000D03*
X134845000Y-80965000D03*
X137385000Y-80965000D03*
X139925000Y-80965000D03*
X142465000Y-80965000D03*
X142465000Y-73345000D03*
X139925000Y-73345000D03*
X137385000Y-73345000D03*
X134845000Y-73345000D03*
X132305000Y-73345000D03*
X129765000Y-73345000D03*
X127225000Y-73345000D03*
%TD*%
D23*
%TO.C,C4*%
X136290000Y-113145000D03*
X136290000Y-116095000D03*
%TD*%
D14*
%TO.C,Q1*%
X103020000Y-117130000D03*
D15*
X101750000Y-115860000D03*
X103020000Y-114590000D03*
%TD*%
D18*
%TO.C,R10*%
X135555000Y-89925000D03*
X133905000Y-89925000D03*
%TD*%
D11*
%TO.C,R24*%
X134380000Y-107320000D03*
X134380000Y-105670000D03*
%TD*%
D24*
%TO.C,J5*%
X107160000Y-61790000D03*
D25*
X112160000Y-61790000D03*
%TD*%
D26*
%TO.C,J1*%
X151680000Y-95505000D03*
D27*
X151680000Y-100505000D03*
X151680000Y-105505000D03*
%TD*%
D24*
%TO.C,J6*%
X148835000Y-61670000D03*
D25*
X153835000Y-61670000D03*
%TD*%
D28*
%TO.C,C2*%
X155025000Y-86430000D03*
X153475000Y-86430000D03*
%TD*%
D12*
%TO.C,Q10*%
X140060000Y-131070000D03*
D13*
X137520000Y-131070000D03*
X134980000Y-131070000D03*
%TD*%
D11*
%TO.C,R23*%
X131420000Y-107290000D03*
X131420000Y-105640000D03*
%TD*%
%TO.C,R18*%
X120720000Y-126235000D03*
X120720000Y-124585000D03*
%TD*%
%TO.C,R26*%
X143710000Y-126400000D03*
X143710000Y-124750000D03*
%TD*%
D17*
%TO.C,R25*%
X143670000Y-131900000D03*
X143670000Y-133550000D03*
%TD*%
D12*
%TO.C,Q5*%
X125380000Y-113205000D03*
D13*
X122840000Y-113205000D03*
X120300000Y-113205000D03*
%TD*%
D18*
%TO.C,R3*%
X126035000Y-71190000D03*
X124385000Y-71190000D03*
%TD*%
D29*
%TO.C,C3*%
X103020000Y-60490000D03*
X103020000Y-62040000D03*
%TD*%
D26*
%TO.C,J8*%
X148200000Y-118815000D03*
D27*
X148200000Y-113815000D03*
%TD*%
D30*
%TO.C,C1*%
X143640000Y-88145000D03*
X143640000Y-86595000D03*
%TD*%
D18*
%TO.C,R14*%
X132375000Y-118645000D03*
X130725000Y-118645000D03*
%TD*%
D23*
%TO.C,C6*%
X138800000Y-113150000D03*
X138800000Y-116100000D03*
%TD*%
D11*
%TO.C,R20*%
X120590000Y-130490000D03*
X120590000Y-128840000D03*
%TD*%
D17*
%TO.C,R6*%
X106060000Y-120595000D03*
X106060000Y-122245000D03*
%TD*%
%TO.C,R16*%
X158195000Y-62965000D03*
X158195000Y-64615000D03*
%TD*%
%TO.C,R9*%
X129100000Y-119275000D03*
X129100000Y-120925000D03*
%TD*%
D14*
%TO.C,Q6*%
X132770000Y-116245000D03*
D15*
X131500000Y-114975000D03*
X132770000Y-113705000D03*
%TD*%
D11*
%TO.C,R2*%
X106060000Y-114325000D03*
X106060000Y-112675000D03*
%TD*%
D24*
%TO.C,J7*%
X134845000Y-61670000D03*
D25*
X139845000Y-61670000D03*
%TD*%
D11*
%TO.C,R7*%
X106060000Y-119225000D03*
X106060000Y-117575000D03*
%TD*%
%TO.C,R15*%
X144380000Y-70825000D03*
X144380000Y-69175000D03*
%TD*%
D12*
%TO.C,Q9*%
X124370000Y-132950000D03*
D13*
X126910000Y-132950000D03*
X129450000Y-132950000D03*
%TD*%
D16*
%TO.C,R1*%
X99896637Y-118041637D03*
X101063363Y-119208363D03*
%TD*%
D19*
%TO.C,J3*%
X102810000Y-97590000D03*
D20*
X102810000Y-100130000D03*
X102810000Y-102670000D03*
X102810000Y-105210000D03*
X102810000Y-107750000D03*
%TD*%
D12*
%TO.C,Q3*%
X109710000Y-120120000D03*
D13*
X112250000Y-120120000D03*
X114790000Y-120120000D03*
%TD*%
D17*
%TO.C,R11*%
X134040000Y-91450000D03*
X134040000Y-93100000D03*
%TD*%
D11*
%TO.C,R8*%
X129120000Y-117855000D03*
X129120000Y-116205000D03*
%TD*%
D17*
%TO.C,R5*%
X145210000Y-88905000D03*
X145210000Y-90555000D03*
%TD*%
D11*
%TO.C,R21*%
X143680000Y-130470000D03*
X143680000Y-128820000D03*
%TD*%
D14*
%TO.C,Q7*%
X117730000Y-129840000D03*
D15*
X116460000Y-128570000D03*
X117730000Y-127300000D03*
%TD*%
D31*
%TO.C,D1*%
X128990000Y-109030000D03*
X131990000Y-109030000D03*
X133490000Y-109030000D03*
X130490000Y-109030000D03*
%TD*%
D24*
%TO.C,J2*%
X120985000Y-61820000D03*
D25*
X125985000Y-61820000D03*
%TD*%
D29*
%TO.C,C5*%
X158195000Y-59765000D03*
X158195000Y-61315000D03*
%TD*%
D12*
%TO.C,Q11*%
X140050000Y-126040000D03*
D13*
X137510000Y-126040000D03*
X134970000Y-126040000D03*
%TD*%
D12*
%TO.C,Q2*%
X109700000Y-115095000D03*
D13*
X112240000Y-115095000D03*
X114780000Y-115095000D03*
%TD*%
D21*
%TO.C,U3*%
X141860000Y-96045000D03*
D22*
X139320000Y-96045000D03*
X136780000Y-96045000D03*
X134240000Y-96045000D03*
X131700000Y-96045000D03*
X129160000Y-96045000D03*
X126620000Y-96045000D03*
X124080000Y-96045000D03*
X121540000Y-96045000D03*
X119000000Y-96045000D03*
X116460000Y-96045000D03*
X113920000Y-96045000D03*
X111380000Y-96045000D03*
X108840000Y-96045000D03*
X108840000Y-103665000D03*
X111380000Y-103665000D03*
X113920000Y-103665000D03*
X116460000Y-103665000D03*
X119000000Y-103665000D03*
X121540000Y-103665000D03*
X124080000Y-103665000D03*
X126620000Y-103665000D03*
X129160000Y-103665000D03*
X131700000Y-103665000D03*
X134240000Y-103665000D03*
X136780000Y-103665000D03*
X139320000Y-103665000D03*
X141860000Y-103665000D03*
%TD*%
D21*
%TO.C,U4*%
X103565000Y-90065000D03*
D22*
X106105000Y-90065000D03*
X108645000Y-90065000D03*
X111185000Y-90065000D03*
X113725000Y-90065000D03*
X116265000Y-90065000D03*
X118805000Y-90065000D03*
X118805000Y-82445000D03*
X116265000Y-82445000D03*
X113725000Y-82445000D03*
X111185000Y-82445000D03*
X108645000Y-82445000D03*
X106105000Y-82445000D03*
X103565000Y-82445000D03*
%TD*%
D11*
%TO.C,R22*%
X128530000Y-107320000D03*
X128530000Y-105670000D03*
%TD*%
D12*
%TO.C,Q8*%
X124370000Y-127940000D03*
D13*
X126910000Y-127940000D03*
X129450000Y-127940000D03*
%TD*%
D21*
%TO.C,SW2*%
X124125000Y-89270000D03*
D22*
X124125000Y-91810000D03*
X131745000Y-91810000D03*
X131745000Y-89270000D03*
%TD*%
D17*
%TO.C,R19*%
X120660000Y-131910000D03*
X120660000Y-133560000D03*
%TD*%
D11*
%TO.C,R12*%
X129020000Y-113155000D03*
X129020000Y-111505000D03*
%TD*%
D26*
%TO.C,J4*%
X105870000Y-132700000D03*
D27*
X105870000Y-127700000D03*
%TD*%
M02*
