%TF.GenerationSoftware,KiCad,Pcbnew,(6.0.2)*%
%TF.CreationDate,2022-03-08T08:53:01-06:00*%
%TF.ProjectId,FundamentalsRobot,46756e64-616d-4656-9e74-616c73526f62,rev?*%
%TF.SameCoordinates,Original*%
%TF.FileFunction,Soldermask,Bot*%
%TF.FilePolarity,Negative*%
%FSLAX46Y46*%
G04 Gerber Fmt 4.6, Leading zero omitted, Abs format (unit mm)*
G04 Created by KiCad (PCBNEW (6.0.2)) date 2022-03-08 08:53:01*
%MOMM*%
%LPD*%
G01*
G04 APERTURE LIST*
%ADD10R,1.905000X2.000000*%
%ADD11O,1.905000X2.000000*%
%ADD12R,1.300000X1.300000*%
%ADD13C,1.300000*%
%ADD14R,1.700000X1.700000*%
%ADD15O,1.700000X1.700000*%
%ADD16R,1.600000X1.600000*%
%ADD17O,1.600000X1.600000*%
%ADD18R,1.980000X3.960000*%
%ADD19O,1.980000X3.960000*%
%ADD20R,3.960000X1.980000*%
%ADD21O,3.960000X1.980000*%
%ADD22C,1.000000*%
G04 APERTURE END LIST*
D10*
%TO.C,U2*%
X150320000Y-90860000D03*
D11*
X152860000Y-90860000D03*
X155400000Y-90860000D03*
%TD*%
D10*
%TO.C,Q4*%
X125400000Y-118220000D03*
D11*
X122860000Y-118220000D03*
X120320000Y-118220000D03*
%TD*%
D12*
%TO.C,Q12*%
X147440000Y-129775000D03*
D13*
X146170000Y-128505000D03*
X147440000Y-127235000D03*
%TD*%
D14*
%TO.C,SW1*%
X140190000Y-86995000D03*
D15*
X140190000Y-89535000D03*
%TD*%
D16*
%TO.C,U1*%
X127225000Y-80965000D03*
D17*
X129765000Y-80965000D03*
X132305000Y-80965000D03*
X134845000Y-80965000D03*
X137385000Y-80965000D03*
X139925000Y-80965000D03*
X142465000Y-80965000D03*
X142465000Y-73345000D03*
X139925000Y-73345000D03*
X137385000Y-73345000D03*
X134845000Y-73345000D03*
X132305000Y-73345000D03*
X129765000Y-73345000D03*
X127225000Y-73345000D03*
%TD*%
D12*
%TO.C,Q1*%
X103020000Y-117130000D03*
D13*
X101750000Y-115860000D03*
X103020000Y-114590000D03*
%TD*%
D18*
%TO.C,J5*%
X107160000Y-61790000D03*
D19*
X112160000Y-61790000D03*
%TD*%
D20*
%TO.C,J1*%
X151680000Y-95505000D03*
D21*
X151680000Y-100505000D03*
X151680000Y-105505000D03*
%TD*%
D18*
%TO.C,J6*%
X148835000Y-61670000D03*
D19*
X153835000Y-61670000D03*
%TD*%
D10*
%TO.C,Q10*%
X140060000Y-131070000D03*
D11*
X137520000Y-131070000D03*
X134980000Y-131070000D03*
%TD*%
D10*
%TO.C,Q5*%
X125380000Y-113205000D03*
D11*
X122840000Y-113205000D03*
X120300000Y-113205000D03*
%TD*%
D20*
%TO.C,J8*%
X148200000Y-118815000D03*
D21*
X148200000Y-113815000D03*
%TD*%
D12*
%TO.C,Q6*%
X132770000Y-116245000D03*
D13*
X131500000Y-114975000D03*
X132770000Y-113705000D03*
%TD*%
D18*
%TO.C,J7*%
X134845000Y-61670000D03*
D19*
X139845000Y-61670000D03*
%TD*%
D10*
%TO.C,Q9*%
X124370000Y-132950000D03*
D11*
X126910000Y-132950000D03*
X129450000Y-132950000D03*
%TD*%
D14*
%TO.C,J3*%
X102810000Y-97590000D03*
D15*
X102810000Y-100130000D03*
X102810000Y-102670000D03*
X102810000Y-105210000D03*
X102810000Y-107750000D03*
%TD*%
D10*
%TO.C,Q3*%
X109710000Y-120120000D03*
D11*
X112250000Y-120120000D03*
X114790000Y-120120000D03*
%TD*%
D12*
%TO.C,Q7*%
X117730000Y-129840000D03*
D13*
X116460000Y-128570000D03*
X117730000Y-127300000D03*
%TD*%
D22*
%TO.C,D1*%
X128990000Y-109030000D03*
X131990000Y-109030000D03*
X133490000Y-109030000D03*
X130490000Y-109030000D03*
%TD*%
D18*
%TO.C,J2*%
X120985000Y-61820000D03*
D19*
X125985000Y-61820000D03*
%TD*%
D10*
%TO.C,Q11*%
X140050000Y-126040000D03*
D11*
X137510000Y-126040000D03*
X134970000Y-126040000D03*
%TD*%
D10*
%TO.C,Q2*%
X109700000Y-115095000D03*
D11*
X112240000Y-115095000D03*
X114780000Y-115095000D03*
%TD*%
D16*
%TO.C,U3*%
X141860000Y-96045000D03*
D17*
X139320000Y-96045000D03*
X136780000Y-96045000D03*
X134240000Y-96045000D03*
X131700000Y-96045000D03*
X129160000Y-96045000D03*
X126620000Y-96045000D03*
X124080000Y-96045000D03*
X121540000Y-96045000D03*
X119000000Y-96045000D03*
X116460000Y-96045000D03*
X113920000Y-96045000D03*
X111380000Y-96045000D03*
X108840000Y-96045000D03*
X108840000Y-103665000D03*
X111380000Y-103665000D03*
X113920000Y-103665000D03*
X116460000Y-103665000D03*
X119000000Y-103665000D03*
X121540000Y-103665000D03*
X124080000Y-103665000D03*
X126620000Y-103665000D03*
X129160000Y-103665000D03*
X131700000Y-103665000D03*
X134240000Y-103665000D03*
X136780000Y-103665000D03*
X139320000Y-103665000D03*
X141860000Y-103665000D03*
%TD*%
D16*
%TO.C,U4*%
X103565000Y-90065000D03*
D17*
X106105000Y-90065000D03*
X108645000Y-90065000D03*
X111185000Y-90065000D03*
X113725000Y-90065000D03*
X116265000Y-90065000D03*
X118805000Y-90065000D03*
X118805000Y-82445000D03*
X116265000Y-82445000D03*
X113725000Y-82445000D03*
X111185000Y-82445000D03*
X108645000Y-82445000D03*
X106105000Y-82445000D03*
X103565000Y-82445000D03*
%TD*%
D10*
%TO.C,Q8*%
X124370000Y-127940000D03*
D11*
X126910000Y-127940000D03*
X129450000Y-127940000D03*
%TD*%
D16*
%TO.C,SW2*%
X124125000Y-89270000D03*
D17*
X124125000Y-91810000D03*
X131745000Y-91810000D03*
X131745000Y-89270000D03*
%TD*%
D20*
%TO.C,J4*%
X105870000Y-132700000D03*
D21*
X105870000Y-127700000D03*
%TD*%
M02*
